<svg width="1120" height="991" viewBox="0 0 1120 991" fill="none" xmlns="http://www.w3.org/2000/svg">
<path opacity="0.52" d="M435.07 16.4644C413.191 91.2975 301.132 127.476 184.749 97.2544C94.8942 73.9287 34.0046 14.8618 0 -41H433.786C439.977 -22.4045 440.424 -2.38704 435.07 16.4644Z" fill="url(#paint0_linear_1487_20977)"/>
<path opacity="0.16" d="M1119.16 -41V765.12C969.616 148.39 483.604 447.852 366.571 -41H1119.16Z" fill="#EA8933"/>
<path style="mix-blend-mode:multiply" opacity="0.52" d="M830.33 62.2578C807.362 196.708 689.728 261.7 567.575 207.408C473.234 165.483 403.794 64.6697 387.702 -41H828.981C835.486 -6.92367 835.943 28.0244 830.33 62.2578Z" fill="url(#paint1_linear_1487_20977)"/>
<mask id="mask0_1487_20977" style="mask-type:luminance" maskUnits="userSpaceOnUse" x="329" y="691" width="791" height="301">
<path d="M1119.16 691.589H329.186V991.051H1119.16V691.589Z" fill="white"/>
</mask>
<g mask="url(#mask0_1487_20977)">
<path d="M441.537 887.792C480.857 753.342 682.202 688.351 891.285 742.642C1052.74 784.567 1162.15 890.69 1223.19 991.05H443.829C432.971 956.701 431.59 921.656 441.537 887.792Z" fill="url(#paint2_linear_1487_20977)"/>
</g>
<mask id="mask1_1487_20977" style="mask-type:luminance" maskUnits="userSpaceOnUse" x="496" y="803" width="624" height="189">
<path d="M1119.16 803.281H496.608V991.052H1119.16V803.281Z" fill="white"/>
</mask>
<g mask="url(#mask1_1487_20977)">
<path d="M616.891 991.053L750.179 953.822C750.179 953.822 778.429 957.06 795.188 991.053H616.891Z" fill="#EA8933"/>
<path d="M965.861 991.053H787.564L814.563 983.509L838.555 976.808L902.728 958.889L920.852 953.822C920.852 953.822 921.583 953.903 922.867 954.178C929.613 955.651 951.736 962.499 965.861 991.053Z" fill="#EA8933"/>
<path d="M710.03 991.052H705.804V885.836C705.804 882.421 710.03 882.421 710.03 885.836V991.052Z" fill="#EA8933"/>
<path d="M1017.24 991.052H1013.02V885.836C1013.02 882.421 1017.24 882.421 1017.24 885.836V991.052Z" fill="#EA8933"/>
</g>
<path d="M189.169 638.949L201.197 601.216L229.334 590.371L221.759 635.096L189.169 638.949Z" fill="url(#paint3_linear_1487_20977)"/>
<path d="M229.334 590.371L287.476 628.67V645.213L323.009 666.855L318.88 690.893L221.759 635.096L229.334 590.371Z" fill="#EA8933"/>
<path d="M466.13 772.509L465.074 742.612L496.559 733.854L496.055 763.121L466.13 772.509Z" fill="url(#paint4_linear_1487_20977)"/>
<path d="M496.559 733.854L538.008 748.213L537.553 780.506L496.055 763.121L496.559 733.854Z" fill="#EA8933"/>
<path d="M534.611 816.085C535.895 816.393 425.835 807.652 265.744 733.531C105.653 659.41 50.9398 593.48 80.2793 574.492C105.295 558.305 153.344 568.94 197.605 598.773C349.845 701.497 452.379 742.596 563.333 767.815C603.498 774.29 582.35 821.055 572.614 820.585L534.611 816.085Z" fill="url(#paint5_linear_1487_20977)"/>
<path d="M534.611 816.085C535.895 816.392 425.835 807.651 265.744 733.53C105.653 659.409 50.6962 593.172 80.2795 574.492C109.863 555.812 281.023 678.186 361.483 711.791C477.769 760.352 501.029 764.092 558.164 778.158C598.329 784.633 582.464 821.119 572.793 820.649L534.611 816.085Z" fill="#EA8933"/>
<path style="mix-blend-mode:multiply" d="M534.611 816.085C535.895 816.392 425.835 807.651 265.744 733.53C105.653 659.409 50.6962 593.172 80.2795 574.492C109.863 555.812 281.023 678.186 361.483 711.791C477.769 760.352 501.029 764.092 558.164 778.158C598.329 784.633 582.464 821.119 572.793 820.649L534.611 816.085Z" fill="url(#paint6_linear_1487_20977)"/>
<path d="M180.716 667.891L213.486 650.085C213.486 650.085 198.678 734.21 190.225 821.086C181.773 907.962 191.282 990.857 190.225 991.051C189.169 991.245 58.092 991.148 58.092 991.148C99.6279 903.241 140.503 795.489 180.716 667.891Z" fill="url(#paint7_linear_1487_20977)"/>
<path d="M94.2584 991.052L158.643 990.955C152.564 932.681 159.195 853.785 170.135 767.831C139.007 860.357 116.121 932.778 94.2584 991.052Z" fill="#EA8933"/>
<path d="M490.431 788.372L567.608 808.93C567.608 808.93 581.343 942.49 639.648 991.051H534.611C534.611 991.051 474.583 961.154 490.431 788.372Z" fill="#EA8933"/>
<path style="mix-blend-mode:multiply" d="M538.869 984.577C524.24 957.058 498.233 866.41 498.233 796.806L561.626 814.045C564.389 836.416 578.758 934.186 623.686 984.577H538.869Z" fill="url(#paint8_linear_1487_20977)"/>
<path d="M466.13 798.053L490.431 788.341C490.431 788.341 499.485 930.61 534.611 991.02H420.081C420.081 991.02 461.904 934.074 466.13 798.053Z" fill="url(#paint9_linear_1487_20977)"/>
<path d="M451.095 991.052L512.862 990.955C495.746 942.895 486.855 897.701 477.102 830.2C467.349 887.648 465.724 933.604 451.095 991.052Z" fill="#EA8933"/>
<path style="mix-blend-mode:multiply" d="M451.095 991.052L512.862 990.955C495.746 942.895 486.855 897.701 477.102 830.2C467.349 887.648 465.724 933.604 451.095 991.052Z" fill="url(#paint10_linear_1487_20977)"/>
<path d="M356.103 736.136L447.129 774.37C447.129 774.37 429.476 886.239 485.343 990.954H380.274C380.274 990.954 340.255 952.817 356.103 736.136Z" fill="#EA8933"/>
<path style="mix-blend-mode:multiply" d="M386.077 984.48C379.575 974.865 355.193 900.404 361.955 745.623L439.977 778.418C437.278 800.983 429.883 893.347 474.68 984.48H386.077Z" fill="url(#paint11_linear_1487_20977)"/>
<path d="M335.053 754.72L356.103 736.104C356.103 736.104 345.147 915.15 380.274 990.923H265.793C265.793 990.923 310.737 921.933 335.053 754.72Z" fill="url(#paint12_linear_1487_20977)"/>
<path d="M287.688 991.051L360.069 990.954C342.953 942.894 337.492 880.137 338.938 808.654C323.269 878.955 306.673 943.088 287.688 991.051Z" fill="#EA8933"/>
<path style="mix-blend-mode:multiply" d="M94.2584 991.052L158.643 990.955C152.564 932.681 159.195 853.785 170.135 767.831C139.007 860.357 116.121 932.778 94.2584 991.052Z" fill="url(#paint13_linear_1487_20977)"/>
<path style="mix-blend-mode:multiply" d="M287.688 991.051L360.069 990.954C342.953 942.894 337.492 880.137 338.938 808.654C323.269 878.955 306.673 943.088 287.688 991.051Z" fill="url(#paint14_linear_1487_20977)"/>
<path d="M310.737 708.991L213.486 650.15C213.486 650.15 170.135 846.015 190.225 990.954H299.927C299.927 990.954 293.897 920.071 294.954 850.013C296.01 779.955 310.737 708.991 310.737 708.991Z" fill="#EA8933"/>
<path style="mix-blend-mode:multiply" d="M195.898 984.479C180.261 860.502 210.04 699.683 217.939 660.445L303.438 712.244C300.187 729.046 289.248 790.185 288.338 849.981C287.493 906.846 291.329 964.909 292.792 984.544L195.898 984.479Z" fill="url(#paint15_linear_1487_20977)"/>
<path d="M30.1016 991.052C30.1016 991.052 36.4083 956.557 71.8433 953.821C86.83 952.672 196.061 957.059 213.258 991.052H30.1016Z" fill="#EA8933"/>
<path d="M877.793 833.145C877.808 833.258 877.78 833.373 877.713 833.466C877.647 833.559 877.548 833.624 877.436 833.647L863.229 836.48L861.311 841.563L873.096 839.847C873.211 839.836 873.326 839.869 873.419 839.937C873.512 840.006 873.576 840.106 873.6 840.219C873.614 840.333 873.582 840.447 873.512 840.538C873.443 840.629 873.34 840.689 873.226 840.705L849.039 844.25L850.957 846.597L861.961 846.84C862.079 846.844 862.191 846.893 862.273 846.978C862.355 847.062 862.4 847.175 862.4 847.293C862.392 847.403 862.342 847.506 862.261 847.581C862.179 847.656 862.072 847.698 861.961 847.697L850.746 847.455C850.686 847.458 850.627 847.446 850.573 847.421C850.519 847.395 850.472 847.357 850.437 847.309L848.048 844.395L834.312 846.386L829.436 851.809L856.728 849.219C856.831 849.227 856.928 849.271 857.002 849.343C857.076 849.415 857.122 849.511 857.132 849.614C857.142 849.717 857.114 849.819 857.055 849.904C856.996 849.989 856.909 850.05 856.809 850.077L836.751 851.971L838.149 853.881L843.317 854.464C843.376 854.467 843.433 854.483 843.485 854.51C843.538 854.538 843.583 854.575 843.62 854.621C843.657 854.666 843.684 854.719 843.699 854.776C843.714 854.832 843.717 854.892 843.708 854.949C843.69 855.05 843.638 855.141 843.561 855.209C843.485 855.276 843.387 855.316 843.285 855.322L837.937 854.723C837.815 854.706 837.704 854.642 837.628 854.545L835.792 852.068L822.625 853.314C821.598 854.585 820.334 855.646 818.903 856.439C818.074 856.924 817.278 857.458 816.497 858.057H821.179L824.137 855.662C824.178 855.623 824.227 855.595 824.28 855.578C824.334 855.561 824.39 855.556 824.446 855.564L836.799 856.762C836.857 856.768 836.913 856.786 836.964 856.813C837.015 856.841 837.06 856.879 837.096 856.924C837.133 856.969 837.16 857.021 837.176 857.077C837.192 857.132 837.196 857.19 837.19 857.248C837.183 857.303 837.166 857.357 837.139 857.406C837.112 857.455 837.076 857.498 837.032 857.532C836.988 857.567 836.938 857.592 836.884 857.608C836.83 857.623 836.774 857.627 836.718 857.62L824.543 856.439L822.479 858.057L832.232 858.138C832.348 858.138 832.46 858.184 832.542 858.266C832.625 858.348 832.671 858.459 832.671 858.575C832.671 858.632 832.659 858.688 832.637 858.74C832.615 858.792 832.582 858.839 832.541 858.879C832.5 858.918 832.452 858.949 832.399 858.969C832.345 858.989 832.289 858.998 832.232 858.996L815.977 858.883V860.502L819.846 861.845C819.954 861.889 820.043 861.971 820.094 862.075C820.145 862.18 820.155 862.3 820.122 862.412C820.087 862.494 820.028 862.564 819.953 862.613C819.878 862.662 819.789 862.688 819.7 862.687H819.553L815.425 861.246C815.336 861.216 815.259 861.16 815.203 861.084C815.148 861.009 815.118 860.918 815.116 860.825V858.964C813.494 860.197 811.987 861.573 810.613 863.075L812.418 863.885C812.505 863.929 812.574 864.002 812.615 864.09C812.656 864.179 812.666 864.278 812.644 864.373C812.621 864.468 812.568 864.553 812.491 864.614C812.415 864.675 812.32 864.709 812.223 864.71C812.169 864.725 812.113 864.725 812.06 864.71L809.996 863.787C808.225 865.822 806.733 868.081 805.558 870.505C792.555 897.78 794.944 942.327 799.203 974.621C799.983 980.594 800.828 986.146 801.673 991.083H770.123C770.595 988.348 771.033 985.434 771.505 982.358C776.381 949.806 780.315 900.047 766.238 870.505C764.825 867.563 762.936 864.873 760.647 862.541L755.77 864.71C755.707 864.727 755.639 864.727 755.575 864.71C755.495 864.708 755.416 864.684 755.347 864.641C755.279 864.599 755.223 864.539 755.185 864.467C755.161 864.414 755.148 864.357 755.146 864.299C755.145 864.241 755.155 864.183 755.176 864.128C755.197 864.074 755.229 864.024 755.27 863.983C755.31 863.941 755.359 863.907 755.413 863.885L760.013 861.845C758.912 860.764 757.739 859.758 756.502 858.834H752.698V860.777C752.694 860.867 752.664 860.954 752.612 861.029C752.561 861.103 752.489 861.161 752.406 861.198L748.245 862.638H748.115C748.026 862.64 747.94 862.615 747.867 862.565C747.794 862.516 747.739 862.445 747.708 862.363C747.687 862.309 747.678 862.251 747.68 862.193C747.681 862.135 747.695 862.078 747.719 862.026C747.743 861.973 747.778 861.925 747.821 861.886C747.863 861.847 747.914 861.816 747.968 861.796L751.821 860.453V858.834L735.566 858.948C735.466 858.928 735.376 858.875 735.311 858.796C735.247 858.718 735.211 858.62 735.211 858.519C735.211 858.417 735.247 858.319 735.311 858.241C735.376 858.162 735.466 858.109 735.566 858.09L745.319 858.009L743.238 856.39L731.08 857.572C730.966 857.585 730.851 857.554 730.76 857.485C730.668 857.415 730.608 857.313 730.592 857.199C730.586 857.085 730.623 856.972 730.695 856.883C730.767 856.794 730.869 856.733 730.982 856.714L743.336 855.516C743.391 855.507 743.448 855.511 743.502 855.528C743.555 855.544 743.604 855.574 743.645 855.613L746.603 858.009H755.234C754.454 857.458 753.69 856.957 752.861 856.39C751.596 855.675 750.454 854.763 749.48 853.687L731.974 852.068L730.153 854.545C730.076 854.64 729.966 854.703 729.844 854.723L724.497 855.322C724.397 855.302 724.307 855.249 724.242 855.171C724.177 855.092 724.142 854.994 724.142 854.893C724.142 854.791 724.177 854.693 724.242 854.615C724.307 854.537 724.397 854.483 724.497 854.464L729.682 853.881L731.08 851.971L711.005 850.077C710.892 850.065 710.787 850.009 710.715 849.921C710.642 849.833 710.606 849.721 710.615 849.608C710.631 849.493 710.691 849.389 710.782 849.317C710.872 849.245 710.987 849.21 711.103 849.219L738.394 851.809L733.518 846.386L719.767 844.395L717.41 847.309C717.369 847.355 717.319 847.391 717.263 847.416C717.207 847.441 717.146 847.454 717.085 847.455L705.869 847.697C705.813 847.7 705.758 847.691 705.706 847.672C705.654 847.653 705.606 847.623 705.565 847.586C705.524 847.548 705.492 847.503 705.468 847.453C705.445 847.402 705.432 847.348 705.43 847.293C705.428 847.235 705.437 847.178 705.457 847.124C705.477 847.07 705.508 847.021 705.547 846.979C705.586 846.937 705.633 846.903 705.686 846.879C705.738 846.855 705.795 846.842 705.853 846.84L716.873 846.597L718.791 844.25L694.621 840.705C694.564 840.699 694.508 840.681 694.458 840.653C694.408 840.625 694.364 840.588 694.329 840.542C694.294 840.497 694.268 840.444 694.254 840.389C694.24 840.333 694.238 840.276 694.247 840.219C694.267 840.104 694.33 840.002 694.424 839.933C694.518 839.863 694.635 839.833 694.751 839.847L706.519 841.563L704.666 836.48L690.443 833.647C690.387 833.637 690.334 833.617 690.286 833.586C690.238 833.555 690.197 833.515 690.166 833.468C690.134 833.422 690.112 833.369 690.101 833.313C690.09 833.258 690.09 833.201 690.102 833.145C690.122 833.032 690.186 832.931 690.28 832.864C690.375 832.797 690.492 832.77 690.606 832.789L705.056 835.67C705.13 835.684 705.199 835.714 705.258 835.759C705.317 835.804 705.365 835.862 705.398 835.929L707.559 841.724L733.876 845.545C733.973 845.571 734.063 845.621 734.136 845.69L739.451 851.696C739.48 851.719 739.504 851.749 739.521 851.782C739.538 851.816 739.547 851.852 739.548 851.89L748.878 852.796C748.421 852.097 748.168 851.284 748.148 850.449C748.128 849.614 748.341 848.791 748.765 848.07C740.637 844.557 730.641 840.672 721.392 837.176L718.71 838.374H718.547H718.434L690.362 830.798C690.305 830.785 690.252 830.761 690.205 830.726C690.159 830.692 690.12 830.648 690.091 830.598C690.062 830.548 690.044 830.492 690.037 830.435C690.031 830.377 690.036 830.319 690.053 830.264C690.087 830.155 690.161 830.062 690.261 830.005C690.36 829.948 690.478 829.931 690.59 829.956L718.45 837.564L720.189 836.804C705.43 831.268 692.8 826.848 692.556 826.751C692.447 826.714 692.356 826.636 692.304 826.533C692.253 826.43 692.244 826.31 692.28 826.201C692.324 826.094 692.407 826.007 692.513 825.959C692.619 825.911 692.739 825.905 692.849 825.942C693.093 825.942 703.479 829.633 716.386 834.44L713.216 825.732L702 818.642C701.94 818.619 701.885 818.583 701.84 818.536C701.795 818.49 701.761 818.434 701.741 818.373C701.72 818.312 701.713 818.247 701.721 818.183C701.728 818.119 701.75 818.057 701.784 818.002C701.818 817.947 701.864 817.901 701.918 817.866C701.973 817.831 702.034 817.808 702.099 817.8C702.163 817.791 702.228 817.797 702.29 817.817C702.351 817.836 702.408 817.869 702.455 817.913L713.834 825.068C713.902 825.132 713.957 825.209 713.996 825.294L717.475 834.845L721.506 836.35H721.587C730.917 839.879 740.995 843.813 749.22 847.374C749.904 846.484 750.721 845.704 751.642 845.059L736.753 835.654L730.82 837.176C730.735 837.201 730.644 837.201 730.56 837.176L720.059 833.178C720.004 833.158 719.954 833.128 719.912 833.088C719.87 833.048 719.836 833 719.813 832.947C719.79 832.894 719.779 832.837 719.779 832.779C719.78 832.721 719.792 832.664 719.815 832.611C719.833 832.557 719.862 832.508 719.9 832.466C719.939 832.424 719.985 832.39 720.037 832.367C720.089 832.344 720.146 832.332 720.203 832.333C720.26 832.333 720.316 832.345 720.368 832.368L730.738 836.318L736.72 834.699C736.774 834.676 736.832 834.663 736.891 834.663C736.95 834.663 737.008 834.676 737.061 834.699L744.669 839.555V836.625L736.541 830.652C736.49 830.624 736.446 830.584 736.413 830.536C736.38 830.488 736.357 830.434 736.348 830.376C736.339 830.319 736.342 830.26 736.359 830.204C736.376 830.148 736.404 830.097 736.444 830.053C736.476 830.006 736.518 829.966 736.566 829.936C736.615 829.906 736.669 829.886 736.726 829.879C736.783 829.871 736.841 829.875 736.896 829.892C736.951 829.908 737.002 829.935 737.045 829.973L745.319 836.043C745.373 836.085 745.417 836.139 745.448 836.201C745.479 836.263 745.496 836.33 745.498 836.399V840.122L752.373 844.492C754.094 843.445 755.919 842.578 757.819 841.902C751.137 835.959 744.079 830.45 736.688 825.408L725.797 827.399H725.716H725.521L705.674 816.78C705.624 816.753 705.58 816.716 705.545 816.672C705.51 816.628 705.484 816.577 705.469 816.523C705.453 816.469 705.449 816.412 705.457 816.356C705.464 816.3 705.483 816.246 705.511 816.197C705.535 816.145 705.57 816.098 705.613 816.06C705.656 816.021 705.707 815.992 705.762 815.974C705.816 815.956 705.874 815.949 705.932 815.954C705.99 815.959 706.046 815.976 706.096 816.003L725.797 826.525L735.696 824.712C729.393 820.408 722.83 816.494 716.044 812.992C715.939 812.941 715.858 812.85 715.82 812.739C715.782 812.628 715.789 812.507 715.841 812.401C715.893 812.296 715.984 812.216 716.096 812.178C716.207 812.14 716.329 812.148 716.434 812.199C723.553 815.912 730.431 820.064 737.029 824.631L737.175 824.712C740.28 826.832 743.563 829.212 746.928 831.818L746.001 821.507L730.43 809.399C730.384 809.365 730.346 809.323 730.317 809.274C730.288 809.226 730.269 809.172 730.262 809.116C730.254 809.061 730.258 809.004 730.273 808.949C730.288 808.895 730.313 808.844 730.348 808.8C730.383 808.754 730.427 808.715 730.477 808.686C730.527 808.658 730.583 808.639 730.64 808.631C730.698 808.624 730.756 808.628 730.812 808.643C730.868 808.658 730.92 808.684 730.966 808.719L746.7 820.924C746.792 821.002 746.85 821.112 746.863 821.231L747.854 832.562C750.309 834.44 752.731 836.48 755.315 838.633C755.559 837.904 756.047 836.642 756.941 834.327L749.919 827.366C749.874 827.328 749.838 827.281 749.814 827.228C749.789 827.175 749.776 827.117 749.776 827.059C749.776 827 749.789 826.943 749.814 826.89C749.838 826.836 749.874 826.789 749.919 826.751C750 826.675 750.108 826.633 750.219 826.633C750.331 826.633 750.439 826.675 750.52 826.751L757.753 833.906C757.817 833.964 757.86 834.042 757.875 834.127C757.89 834.212 757.875 834.299 757.835 834.375C757.071 836.35 756.209 838.568 755.998 839.232C756.908 840.009 757.802 840.85 758.696 841.627C762.979 840.232 767.389 839.257 771.862 838.714C770.968 836.383 770.026 834.1 769.002 831.899H761.297C761.24 831.901 761.184 831.893 761.131 831.873C761.078 831.854 761.029 831.824 760.988 831.785L755.234 826.67C755.192 826.631 755.158 826.583 755.135 826.53C755.112 826.478 755.1 826.421 755.1 826.363C755.1 826.305 755.112 826.248 755.135 826.195C755.158 826.142 755.192 826.095 755.234 826.055C755.275 826.013 755.324 825.979 755.379 825.956C755.433 825.932 755.492 825.921 755.551 825.921C755.61 825.921 755.669 825.932 755.723 825.956C755.778 825.979 755.827 826.013 755.868 826.055L761.508 831.073H768.628C767.149 827.982 765.588 825.052 764.028 822.381L749.968 819.629C749.904 819.647 749.836 819.647 749.772 819.629L735.924 808.541C735.841 808.456 735.795 808.343 735.795 808.225C735.795 808.107 735.841 807.994 735.924 807.909C736.008 807.832 736.118 807.789 736.232 807.789C736.347 807.789 736.457 807.832 736.541 807.909L750.309 818.933L763.491 821.49C760.381 816.207 756.899 811.15 753.072 806.355C752.996 806.274 752.953 806.167 752.953 806.056C752.953 805.945 752.996 805.838 753.072 805.757C753.11 805.715 753.157 805.681 753.208 805.659C753.26 805.636 753.316 805.624 753.373 805.624C753.429 805.624 753.486 805.636 753.537 805.659C753.589 805.681 753.635 805.715 753.674 805.757C757.431 810.417 760.848 815.339 763.898 820.487V811.827L762.711 806.113C762.699 806.056 762.699 805.998 762.709 805.942C762.72 805.885 762.742 805.831 762.774 805.783C762.805 805.735 762.846 805.694 762.894 805.661C762.942 805.629 762.996 805.606 763.052 805.595C763.108 805.583 763.165 805.583 763.221 805.593C763.277 805.604 763.33 805.626 763.377 805.658C763.424 805.69 763.464 805.731 763.495 805.778C763.526 805.826 763.547 805.879 763.556 805.935L764.759 811.697C764.767 811.729 764.767 811.762 764.759 811.794V821.976C765.247 822.834 765.767 823.708 766.255 824.615L771.976 816.392V804.834C771.98 804.715 772.03 804.602 772.114 804.518C772.199 804.434 772.312 804.385 772.431 804.381C772.546 804.389 772.654 804.44 772.732 804.524C772.811 804.608 772.854 804.719 772.854 804.834V816.537C772.871 816.617 772.871 816.7 772.854 816.78L766.791 825.473C767.799 827.334 768.79 829.309 769.749 831.332C769.789 831.372 769.817 831.423 769.831 831.478C770.497 832.935 771.163 834.408 771.797 835.929L775.975 832.692L775.552 829.455L772.415 828.92C772.354 828.913 772.296 828.892 772.246 828.858C772.195 828.824 772.153 828.779 772.123 828.726L769.684 824.598C769.628 824.499 769.612 824.381 769.639 824.27C769.667 824.159 769.735 824.063 769.831 823.999C769.93 823.94 770.049 823.921 770.162 823.949C770.274 823.976 770.371 824.047 770.432 824.145L772.708 827.836L775.39 828.305L774.902 824.437C774.893 824.38 774.895 824.322 774.91 824.267C774.924 824.211 774.949 824.159 774.984 824.113C775.019 824.068 775.063 824.03 775.113 824.002C775.163 823.974 775.219 823.957 775.276 823.951C775.333 823.942 775.391 823.944 775.447 823.958C775.502 823.972 775.555 823.998 775.6 824.032C775.646 824.067 775.684 824.111 775.712 824.161C775.74 824.211 775.758 824.266 775.764 824.323L776.82 832.627C776.827 832.7 776.815 832.774 776.787 832.841C776.758 832.909 776.714 832.969 776.658 833.016L772.09 836.593L772.821 838.536C776.072 838.131 779.616 837.888 783.273 837.791V827.884L778.397 824.728C778.345 824.696 778.301 824.654 778.267 824.603C778.234 824.553 778.211 824.496 778.202 824.437L775.91 804.688C775.901 804.633 775.903 804.576 775.917 804.521C775.932 804.466 775.957 804.415 775.992 804.371C776.028 804.327 776.072 804.291 776.122 804.264C776.172 804.238 776.227 804.223 776.284 804.219C776.34 804.21 776.399 804.212 776.454 804.226C776.51 804.24 776.562 804.265 776.608 804.3C776.654 804.335 776.692 804.379 776.72 804.429C776.748 804.479 776.765 804.534 776.771 804.591L779.047 824.113L783.224 826.865V804.429C783.222 804.373 783.231 804.316 783.252 804.263C783.272 804.21 783.303 804.162 783.342 804.121C783.382 804.08 783.429 804.048 783.481 804.026C783.534 804.004 783.59 803.992 783.647 803.992C783.763 803.992 783.875 804.038 783.957 804.12C784.04 804.202 784.086 804.313 784.086 804.429V823.482L789.856 818.998L790.539 804.64C790.547 804.522 790.601 804.413 790.689 804.334C790.777 804.256 790.892 804.214 791.01 804.219C791.068 804.221 791.125 804.234 791.177 804.258C791.23 804.282 791.277 804.316 791.316 804.358C791.355 804.4 791.386 804.45 791.406 804.504C791.426 804.557 791.435 804.615 791.433 804.672L790.718 819.24C790.711 819.304 790.692 819.365 790.662 819.421C790.631 819.476 790.589 819.525 790.539 819.564L784.037 824.582V837.775H785.939C789.19 837.775 792.213 837.904 795.171 838.163C795.302 837.839 795.415 837.5 795.562 837.192L789.921 833.032C789.864 832.994 789.817 832.944 789.783 832.885C789.75 832.826 789.73 832.76 789.726 832.692V824.323C789.728 824.266 789.742 824.209 789.766 824.157C789.79 824.105 789.824 824.058 789.866 824.019C789.908 823.98 789.958 823.949 790.012 823.929C790.066 823.909 790.124 823.9 790.181 823.902C790.238 823.9 790.295 823.909 790.348 823.93C790.401 823.95 790.45 823.98 790.491 824.02C790.532 824.059 790.564 824.106 790.587 824.158C790.609 824.21 790.62 824.267 790.62 824.323V827.917L792.717 826.298L793.611 820.649C793.638 820.535 793.706 820.434 793.801 820.366C793.897 820.297 794.014 820.266 794.131 820.276C794.245 820.296 794.347 820.36 794.414 820.454C794.481 820.548 794.508 820.665 794.489 820.778L793.546 826.622C793.525 826.733 793.46 826.832 793.367 826.897L790.62 828.937V832.417L795.87 836.318C796.569 834.586 797.317 832.902 798.097 831.268C798.086 831.22 798.086 831.17 798.097 831.122C799.056 829.098 800.048 827.124 801.056 825.262L794.993 816.57C794.969 816.49 794.969 816.406 794.993 816.327V804.623C794.991 804.566 795 804.509 795.02 804.455C795.04 804.401 795.07 804.352 795.11 804.31C795.149 804.268 795.196 804.234 795.249 804.21C795.301 804.186 795.358 804.172 795.415 804.17C795.533 804.174 795.645 804.224 795.727 804.309C795.809 804.393 795.854 804.506 795.854 804.623V816.23L801.592 824.453C802.096 823.546 802.584 822.672 803.087 821.814V811.535L804.29 805.773C804.302 805.716 804.325 805.663 804.357 805.615C804.389 805.568 804.431 805.527 804.479 805.495C804.528 805.464 804.582 805.442 804.639 805.431C804.695 805.42 804.754 805.421 804.81 805.433C804.867 805.444 804.921 805.467 804.969 805.499C805.017 805.532 805.057 805.573 805.089 805.621C805.121 805.669 805.143 805.723 805.154 805.78C805.164 805.836 805.164 805.894 805.152 805.951L803.949 811.665V820.325C806.998 815.178 810.415 810.255 814.173 805.595C814.213 805.553 814.26 805.519 814.314 805.496C814.367 805.473 814.424 805.461 814.482 805.461C814.54 805.461 814.597 805.473 814.65 805.496C814.703 805.519 814.751 805.553 814.791 805.595C814.831 805.634 814.862 805.68 814.884 805.732C814.905 805.783 814.916 805.838 814.916 805.894C814.916 805.95 814.905 806.005 814.884 806.056C814.862 806.108 814.831 806.154 814.791 806.194C810.948 810.98 807.461 816.038 804.355 821.329L817.538 818.771L831.322 807.748C831.403 807.671 831.511 807.629 831.622 807.629C831.734 807.629 831.842 807.671 831.923 807.748C832.005 807.832 832.052 807.945 832.052 808.063C832.052 808.181 832.005 808.294 831.923 808.379L818.058 819.467C817.994 819.482 817.927 819.482 817.863 819.467L803.803 822.219C802.177 824.89 800.666 827.82 799.186 830.911H806.322L811.946 825.942C811.986 825.9 812.034 825.866 812.087 825.843C812.14 825.82 812.197 825.808 812.255 825.808C812.313 825.808 812.37 825.82 812.423 825.843C812.477 825.866 812.524 825.9 812.564 825.942C812.638 826.027 812.679 826.137 812.679 826.25C812.679 826.362 812.638 826.472 812.564 826.557L806.777 831.672C806.739 831.71 806.693 831.74 806.643 831.759C806.593 831.779 806.539 831.788 806.485 831.785H798.78C797.805 833.841 796.927 835.978 796.082 838.163C800.821 838.562 805.516 839.38 810.109 840.607C810.662 840.122 811.231 839.588 811.735 839.118C811.507 838.438 810.662 836.221 809.882 834.262C809.852 834.181 809.848 834.094 809.868 834.01C809.888 833.927 809.932 833.851 809.996 833.793L817.213 826.638C817.297 826.569 817.404 826.534 817.513 826.539C817.621 826.545 817.724 826.59 817.801 826.667C817.878 826.744 817.924 826.846 817.929 826.954C817.935 827.063 817.899 827.169 817.83 827.253L810.792 834.214C811.719 836.528 812.206 837.791 812.418 838.519C814.921 836.366 817.424 834.327 819.878 832.449L820.87 821.118C820.873 821.056 820.891 820.996 820.922 820.943C820.953 820.889 820.997 820.844 821.049 820.811L836.767 808.606C836.813 808.57 836.865 808.544 836.921 808.529C836.977 808.514 837.035 808.51 837.093 808.518C837.15 808.525 837.205 808.544 837.256 808.573C837.306 808.602 837.35 808.641 837.385 808.686C837.461 808.768 837.504 808.875 837.504 808.986C837.504 809.097 837.461 809.204 837.385 809.285L821.78 821.393L820.886 831.705C824.283 829.098 827.583 826.719 830.639 824.598L830.801 824.517C837.402 819.955 844.28 815.803 851.396 812.086C851.448 812.061 851.505 812.047 851.563 812.044C851.62 812.042 851.678 812.05 851.733 812.07C851.787 812.089 851.837 812.119 851.88 812.158C851.922 812.197 851.957 812.244 851.981 812.296C852.008 812.348 852.024 812.404 852.028 812.463C852.032 812.521 852.024 812.579 852.004 812.634C851.984 812.689 851.953 812.739 851.913 812.781C851.872 812.823 851.824 812.856 851.77 812.879C844.982 816.41 838.414 820.345 832.102 824.663L842.001 826.492L861.718 815.938C861.767 815.911 861.822 815.895 861.878 815.89C861.935 815.885 861.992 815.892 862.045 815.91C862.099 815.928 862.148 815.958 862.19 815.996C862.231 816.034 862.264 816.081 862.287 816.133C862.315 816.181 862.334 816.235 862.341 816.291C862.349 816.347 862.344 816.404 862.329 816.458C862.314 816.513 862.288 816.563 862.253 816.608C862.218 816.652 862.174 816.688 862.124 816.715L842.293 827.334H842.082H841.985L831.094 825.343C824.091 830.111 817.388 835.301 811.02 840.883C813.163 841.489 815.251 842.274 817.261 843.23L822.235 839.992V836.269C822.241 836.2 822.262 836.132 822.295 836.071C822.329 836.009 822.375 835.956 822.43 835.913L830.688 829.843C830.734 829.805 830.787 829.777 830.845 829.761C830.903 829.744 830.963 829.74 831.022 829.747C831.082 829.755 831.139 829.774 831.19 829.805C831.242 829.835 831.286 829.876 831.322 829.924C831.383 830.018 831.406 830.131 831.388 830.242C831.37 830.353 831.312 830.453 831.224 830.523L823.097 836.496V839.442L830.704 834.586C830.814 834.545 830.935 834.545 831.045 834.586L837.011 836.205L847.381 832.255C847.487 832.222 847.601 832.229 847.701 832.277C847.801 832.324 847.88 832.407 847.921 832.509C847.962 832.612 847.963 832.726 847.923 832.829C847.883 832.932 847.806 833.016 847.706 833.064L837.206 837.063C837.115 837.087 837.02 837.087 836.929 837.063L830.997 835.541L818.172 843.748C819.386 844.374 820.512 845.158 821.52 846.079C829.192 842.841 838.019 839.41 846.292 836.366H846.373L850.388 834.861L853.883 825.311C853.923 825.221 853.984 825.143 854.062 825.084L865.44 817.929C865.487 817.897 865.541 817.874 865.598 817.863C865.654 817.852 865.712 817.853 865.769 817.865C865.825 817.877 865.878 817.9 865.925 817.934C865.972 817.967 866.012 818.01 866.041 818.059C866.103 818.156 866.124 818.273 866.099 818.385C866.075 818.497 866.008 818.595 865.911 818.658L854.696 825.748L851.445 834.456C864.367 829.6 874.77 826.023 875.014 825.958C875.066 825.938 875.122 825.929 875.178 825.931C875.234 825.933 875.289 825.947 875.339 825.971C875.389 825.995 875.434 826.03 875.47 826.072C875.507 826.114 875.534 826.164 875.55 826.217C875.571 826.27 875.58 826.327 875.578 826.384C875.576 826.44 875.563 826.496 875.538 826.548C875.514 826.599 875.48 826.645 875.437 826.683C875.394 826.721 875.344 826.749 875.29 826.768C875.03 826.865 862.287 831.284 847.657 836.82L849.397 837.581L877.257 829.973C877.367 829.948 877.482 829.966 877.579 830.023C877.676 830.08 877.747 830.172 877.777 830.28C877.797 830.334 877.805 830.392 877.801 830.449C877.797 830.507 877.78 830.563 877.752 830.613C877.725 830.664 877.686 830.708 877.64 830.743C877.594 830.777 877.541 830.802 877.485 830.814L849.478 838.471H849.332H849.137L846.471 837.273C838.344 840.332 829.696 843.748 822.089 846.872C823.032 847.813 823.583 849.073 823.633 850.401C823.629 851.123 823.45 851.833 823.113 852.473L828.233 851.987C828.256 851.918 828.289 851.852 828.331 851.793L833.662 845.787C833.737 845.711 833.833 845.66 833.939 845.642L860.238 841.822L862.417 836.027C862.439 835.959 862.48 835.9 862.535 835.854C862.589 835.808 862.655 835.779 862.725 835.768L877.176 832.886C877.292 832.843 877.422 832.845 877.536 832.893C877.651 832.941 877.743 833.032 877.793 833.145Z" fill="#EA8933"/>
<path d="M958.237 909.096C958.251 909.188 958.229 909.282 958.174 909.357C958.119 909.433 958.037 909.484 957.945 909.5L946.566 911.766L945.022 915.878L954.482 914.502C954.529 914.49 954.577 914.488 954.624 914.497C954.671 914.506 954.716 914.525 954.754 914.553C954.793 914.58 954.825 914.616 954.849 914.658C954.872 914.7 954.886 914.746 954.889 914.793C954.896 914.839 954.893 914.886 954.881 914.931C954.869 914.976 954.848 915.018 954.819 915.054C954.79 915.091 954.754 915.121 954.713 915.143C954.672 915.165 954.626 915.178 954.58 915.182L935.075 918.015L936.7 919.925L945.542 920.103C945.634 920.107 945.721 920.146 945.785 920.213C945.848 920.279 945.884 920.367 945.884 920.459C945.886 920.505 945.879 920.551 945.863 920.594C945.846 920.637 945.822 920.677 945.79 920.71C945.758 920.743 945.719 920.77 945.677 920.788C945.634 920.806 945.589 920.815 945.542 920.815L936.521 920.605C936.471 920.606 936.42 920.595 936.375 920.572C936.329 920.55 936.29 920.516 936.261 920.475L934.294 918.209L923.257 919.828L919.405 924.166L941.349 922.094C941.44 922.093 941.528 922.126 941.597 922.185C941.666 922.245 941.711 922.328 941.723 922.418C941.727 922.464 941.722 922.51 941.708 922.554C941.694 922.598 941.671 922.639 941.64 922.673C941.61 922.708 941.573 922.737 941.531 922.757C941.489 922.777 941.444 922.788 941.398 922.79L925.273 924.409L926.411 925.93L930.605 926.303C930.699 926.303 930.79 926.34 930.857 926.407C930.924 926.474 930.962 926.564 930.962 926.659C930.962 926.753 930.924 926.844 930.857 926.91C930.79 926.977 930.699 927.015 930.605 927.015L926.297 926.529C926.2 926.514 926.112 926.462 926.053 926.383L924.574 924.392L913.976 925.396C913.149 926.419 912.134 927.276 910.985 927.921C910.319 928.303 909.673 928.719 909.051 929.168H912.724L915.114 927.241C915.145 927.209 915.183 927.185 915.226 927.171C915.268 927.157 915.314 927.153 915.358 927.16L925.273 928.132C925.319 928.134 925.365 928.145 925.407 928.165C925.448 928.185 925.486 928.213 925.516 928.248C925.546 928.283 925.569 928.324 925.583 928.368C925.598 928.412 925.603 928.458 925.598 928.504C925.59 928.596 925.546 928.68 925.477 928.741C925.407 928.801 925.316 928.832 925.224 928.828L915.472 927.873L913.846 929.216H921.697C921.743 929.216 921.789 929.225 921.831 929.244C921.874 929.262 921.912 929.288 921.944 929.321C921.976 929.355 922.001 929.394 922.017 929.437C922.033 929.48 922.041 929.526 922.038 929.572C922.038 929.664 922.003 929.752 921.939 929.819C921.876 929.885 921.789 929.924 921.697 929.928L908.693 929.831V931.159L911.782 932.227C911.826 932.24 911.867 932.262 911.903 932.291C911.939 932.32 911.968 932.356 911.99 932.397C912.011 932.438 912.024 932.483 912.027 932.529C912.03 932.574 912.024 932.621 912.009 932.664C911.99 932.738 911.946 932.803 911.883 932.848C911.821 932.892 911.744 932.913 911.668 932.907H911.57L908.238 931.758C908.169 931.73 908.11 931.683 908.067 931.623C908.023 931.563 907.998 931.492 907.994 931.418V929.928C906.695 930.932 905.483 932.042 904.37 933.247L905.816 933.894C905.858 933.912 905.896 933.938 905.928 933.97C905.96 934.003 905.985 934.041 906.002 934.083C906.018 934.126 906.026 934.171 906.025 934.216C906.024 934.262 906.014 934.306 905.995 934.348C905.969 934.41 905.926 934.463 905.872 934.503C905.818 934.543 905.753 934.568 905.686 934.574H905.54L903.915 933.846C902.482 935.472 901.279 937.286 900.339 939.236C898.928 942.241 897.759 945.354 896.844 948.544C893.154 961.056 892.195 976.256 892.601 991.164H876.428C876.985 978.685 876.025 966.184 873.567 953.934C872.515 948.848 870.879 943.9 868.691 939.187C867.564 936.802 866.054 934.615 864.221 932.713L860.108 934.396H859.962C859.893 934.391 859.826 934.367 859.769 934.327C859.711 934.287 859.666 934.233 859.637 934.169C859.602 934.087 859.6 933.995 859.63 933.911C859.66 933.827 859.721 933.758 859.8 933.716L863.506 932.097C862.626 931.229 861.686 930.423 860.694 929.686H857.622V931.304C857.622 931.375 857.603 931.445 857.566 931.505C857.528 931.565 857.474 931.613 857.41 931.644L854.062 932.794H853.948C853.874 932.796 853.802 932.773 853.743 932.729C853.684 932.685 853.641 932.622 853.623 932.551C853.608 932.508 853.601 932.463 853.603 932.418C853.605 932.373 853.617 932.329 853.637 932.288C853.656 932.247 853.684 932.211 853.718 932.181C853.752 932.151 853.791 932.128 853.834 932.114L856.939 931.045V929.734L843.935 929.831C843.843 929.824 843.756 929.784 843.691 929.719C843.625 929.654 843.585 929.567 843.578 929.475C843.578 929.428 843.587 929.382 843.605 929.339C843.623 929.296 843.649 929.256 843.682 929.223C843.716 929.19 843.755 929.164 843.798 929.146C843.842 929.128 843.888 929.119 843.935 929.119H851.786L850.161 927.776L840.408 928.731C840.311 928.74 840.215 928.711 840.139 928.651C840.063 928.59 840.014 928.503 840.002 928.407C839.997 928.315 840.028 928.225 840.089 928.156C840.149 928.086 840.235 928.043 840.327 928.035L850.242 927.063C850.289 927.055 850.337 927.058 850.382 927.072C850.427 927.086 850.469 927.111 850.502 927.144L852.875 929.071H859.832C859.214 928.65 858.581 928.229 857.914 927.856C856.897 927.271 855.981 926.528 855.2 925.655L841.123 924.328L839.579 926.303C839.512 926.371 839.428 926.422 839.335 926.448L835.028 926.934C834.983 926.936 834.938 926.929 834.896 926.914C834.853 926.899 834.815 926.876 834.781 926.846C834.748 926.816 834.721 926.779 834.702 926.739C834.683 926.699 834.672 926.655 834.67 926.61C834.665 926.519 834.693 926.429 834.75 926.357C834.807 926.286 834.889 926.237 834.979 926.222L839.14 925.768L840.262 924.247L824.121 922.628C824.032 922.616 823.951 922.571 823.893 922.502C823.836 922.433 823.807 922.345 823.812 922.256C823.816 922.209 823.829 922.163 823.851 922.122C823.873 922.08 823.903 922.043 823.939 922.013C823.976 921.983 824.017 921.96 824.063 921.946C824.108 921.932 824.155 921.928 824.202 921.932L846.146 924.004L842.245 919.828L831.192 918.209L829.274 920.54C829.245 920.582 829.206 920.616 829.161 920.639C829.115 920.662 829.064 920.672 829.013 920.669L819.992 920.88C819.897 920.88 819.806 920.842 819.739 920.776C819.672 920.709 819.635 920.618 819.635 920.524C819.638 920.433 819.675 920.347 819.738 920.281C819.801 920.216 819.885 920.175 819.976 920.168L828.851 919.99L830.379 918.079L810.873 915.247C810.784 915.231 810.705 915.182 810.65 915.11C810.596 915.038 810.571 914.948 810.581 914.858C810.582 914.811 810.593 914.765 810.615 914.724C810.636 914.682 810.667 914.646 810.704 914.617C810.742 914.589 810.785 914.57 810.832 914.561C810.878 914.553 810.926 914.555 810.971 914.567L820.464 915.943L818.919 911.831L807.541 909.565C807.451 909.546 807.372 909.491 807.321 909.414C807.271 909.337 807.254 909.242 807.273 909.152C807.292 909.062 807.347 908.983 807.425 908.933C807.502 908.883 807.597 908.866 807.687 908.885L819.309 911.184C819.368 911.198 819.422 911.226 819.467 911.265C819.513 911.305 819.548 911.355 819.57 911.41L821.309 916.056L842.44 919.148C842.527 919.155 842.609 919.196 842.667 919.261L846.926 924.117C846.974 924.167 847.007 924.228 847.024 924.295L854.517 925.008C854.136 924.406 853.928 923.711 853.915 923C853.924 922.373 854.098 921.759 854.419 921.22C847.918 918.387 839.79 915.263 832.394 912.463L830.265 913.418H830.021L807.492 907.25C807.449 907.239 807.408 907.218 807.372 907.191C807.336 907.163 807.306 907.129 807.283 907.09C807.26 907.051 807.246 907.008 807.24 906.963C807.234 906.918 807.237 906.873 807.249 906.829C807.26 906.786 807.281 906.745 807.308 906.709C807.336 906.673 807.37 906.643 807.409 906.621C807.449 906.598 807.492 906.584 807.537 906.578C807.582 906.572 807.627 906.575 807.671 906.587L830.086 912.705L831.484 912.09C819.635 907.639 809.443 903.997 809.232 903.997C809.189 903.982 809.149 903.959 809.115 903.929C809.081 903.899 809.054 903.863 809.034 903.822C809.014 903.782 809.003 903.737 809.001 903.692C808.998 903.647 809.005 903.602 809.02 903.56C809.033 903.515 809.055 903.474 809.084 903.439C809.114 903.404 809.151 903.376 809.192 903.356C809.234 903.336 809.279 903.325 809.325 903.324C809.371 903.323 809.417 903.331 809.459 903.349C809.654 903.349 818.009 906.328 828.396 910.18L825.844 903.187L816.823 897.392C816.744 897.342 816.687 897.263 816.666 897.173C816.645 897.082 816.66 896.986 816.709 896.907C816.732 896.866 816.764 896.831 816.801 896.803C816.839 896.775 816.882 896.755 816.928 896.744C816.974 896.733 817.021 896.732 817.067 896.741C817.113 896.749 817.157 896.767 817.196 896.793L826.315 902.556C826.351 902.573 826.383 902.598 826.408 902.629C826.433 902.66 826.451 902.696 826.461 902.734L829.257 910.423L832.508 911.637C840.018 914.454 848.113 917.626 854.744 920.508C855.292 919.784 855.95 919.15 856.695 918.63L844.732 911.038L839.985 912.252C839.911 912.277 839.832 912.277 839.758 912.252L831.322 909.015C831.279 908.999 831.24 908.975 831.207 908.944C831.173 908.913 831.146 908.875 831.127 908.834C831.109 908.793 831.098 908.748 831.097 908.703C831.095 908.657 831.102 908.612 831.118 908.57C831.134 908.527 831.159 908.488 831.19 908.455C831.221 908.422 831.258 908.395 831.3 908.376C831.341 908.357 831.386 908.347 831.432 908.345C831.477 908.344 831.523 908.351 831.565 908.367L839.904 911.524L844.78 910.31C844.824 910.289 844.871 910.279 844.919 910.279C844.966 910.279 845.013 910.289 845.057 910.31L851.168 914.211V911.896L844.667 907.04C844.628 907.014 844.596 906.981 844.571 906.942C844.546 906.903 844.529 906.86 844.521 906.814C844.514 906.769 844.516 906.722 844.527 906.678C844.538 906.633 844.558 906.591 844.585 906.554C844.652 906.493 844.739 906.459 844.829 906.459C844.92 906.459 845.007 906.493 845.073 906.554L851.737 911.41C851.777 911.445 851.809 911.487 851.832 911.534C851.854 911.582 851.866 911.633 851.867 911.686V914.664L857.459 918.209C858.84 917.364 860.305 916.664 861.831 916.121C856.455 911.337 850.77 906.908 844.813 902.864L836.035 904.482H835.857L819.911 895.952C819.832 895.902 819.774 895.825 819.747 895.736C819.72 895.647 819.727 895.551 819.765 895.466C819.786 895.424 819.817 895.387 819.854 895.357C819.891 895.328 819.934 895.306 819.98 895.294C820.026 895.282 820.074 895.279 820.12 895.287C820.167 895.294 820.212 895.311 820.252 895.337L836.084 903.802L844.049 902.346C838.971 898.866 833.683 895.698 828.217 892.86C828.148 892.811 828.099 892.739 828.078 892.658C828.058 892.576 828.067 892.49 828.104 892.414C828.141 892.339 828.203 892.279 828.281 892.245C828.358 892.211 828.445 892.205 828.526 892.229C834.258 895.198 839.79 898.534 845.089 902.216C845.132 902.206 845.176 902.206 845.219 902.216C847.69 903.916 850.356 905.826 853.086 907.914L852.371 899.61L839.839 889.898C839.776 889.829 839.741 889.74 839.741 889.647C839.741 889.554 839.776 889.464 839.839 889.396C839.911 889.339 840 889.309 840.091 889.309C840.182 889.309 840.271 889.339 840.343 889.396L852.989 899.221C853.059 899.285 853.105 899.371 853.119 899.464L853.915 908.561C855.899 910.18 857.882 911.799 859.913 913.418C860.108 912.835 860.499 911.799 861.23 909.954L855.59 904.353C855.555 904.321 855.527 904.282 855.508 904.239C855.489 904.196 855.479 904.149 855.479 904.102C855.479 904.055 855.489 904.008 855.508 903.965C855.527 903.922 855.555 903.883 855.59 903.851C855.656 903.79 855.743 903.755 855.834 903.755C855.924 903.755 856.011 903.79 856.077 903.851L861.896 909.614C861.944 909.662 861.977 909.722 861.991 909.788C862.006 909.854 862.001 909.923 861.978 909.986C861.344 911.605 860.661 913.353 860.499 913.903L862.66 915.846C866.104 914.704 869.655 913.912 873.258 913.482C872.543 911.621 871.763 909.759 870.95 908.011H864.741C864.699 908.016 864.657 908.011 864.618 907.997C864.578 907.983 864.543 907.96 864.513 907.93L859.881 903.802C859.828 903.738 859.799 903.657 859.8 903.574C859.801 903.49 859.831 903.41 859.885 903.346C859.939 903.283 860.014 903.24 860.096 903.226C860.179 903.212 860.264 903.227 860.336 903.268L864.871 907.315H870.463C869.276 904.822 868.024 902.459 866.757 900.322L855.378 898.105C855.33 898.113 855.28 898.113 855.232 898.105L844.098 889.202C844.03 889.132 843.992 889.039 843.992 888.943C843.992 888.846 844.03 888.753 844.098 888.684C844.167 888.621 844.256 888.586 844.35 888.586C844.443 888.586 844.533 888.621 844.602 888.684L855.671 897.554L866.285 899.626C863.784 895.375 860.981 891.307 857.898 887.453C857.865 887.422 857.84 887.384 857.822 887.342C857.804 887.301 857.795 887.256 857.795 887.211C857.795 887.165 857.804 887.121 857.822 887.079C857.84 887.037 857.865 886.999 857.898 886.968C857.965 886.902 858.055 886.864 858.15 886.864C858.244 886.864 858.335 886.902 858.402 886.968C861.381 890.732 864.097 894.697 866.529 898.833V891.872L865.57 887.259C865.555 887.172 865.573 887.081 865.621 887.007C865.669 886.932 865.744 886.877 865.83 886.854C865.923 886.834 866.019 886.85 866.101 886.898C866.182 886.946 866.242 887.023 866.269 887.113L867.228 891.759V900.031C867.634 900.711 868.041 901.407 868.431 902.135L873.047 895.531V886.239C873.036 886.187 873.036 886.134 873.049 886.082C873.061 886.03 873.085 885.982 873.118 885.94C873.152 885.899 873.194 885.866 873.242 885.843C873.29 885.82 873.343 885.808 873.397 885.808C873.45 885.808 873.503 885.82 873.551 885.843C873.599 885.866 873.641 885.899 873.675 885.94C873.708 885.982 873.732 886.03 873.745 886.082C873.757 886.134 873.757 886.187 873.746 886.239V895.547C873.763 895.616 873.763 895.688 873.746 895.757L868.87 902.734C869.699 904.223 870.495 905.81 871.259 907.445C871.269 907.482 871.269 907.521 871.259 907.558C871.828 908.739 872.348 909.921 872.885 911.151L876.233 908.513L875.924 905.874L873.388 905.453C873.338 905.441 873.29 905.419 873.249 905.389C873.207 905.358 873.171 905.32 873.145 905.275L871.243 902.167C871.217 902.13 871.199 902.087 871.191 902.043C871.182 901.998 871.183 901.952 871.194 901.907C871.205 901.863 871.225 901.822 871.253 901.785C871.281 901.749 871.316 901.72 871.357 901.698C871.437 901.65 871.532 901.634 871.624 901.656C871.715 901.677 871.794 901.733 871.844 901.811L873.665 904.79L875.827 905.162L875.501 902.022C875.492 901.977 875.493 901.93 875.503 901.886C875.513 901.841 875.532 901.799 875.56 901.762C875.587 901.725 875.623 901.695 875.663 901.672C875.704 901.65 875.748 901.637 875.794 901.633C875.884 901.624 875.974 901.648 876.047 901.702C876.119 901.757 876.168 901.836 876.184 901.925L877.029 908.61C877.037 908.671 877.03 908.732 877.007 908.789C876.984 908.845 876.947 908.895 876.899 908.934L873.226 911.815C873.421 912.317 873.632 912.835 873.827 913.434C876.477 913.11 879.289 912.9 882.215 912.835V904.871L878.33 902.329C878.289 902.302 878.255 902.266 878.23 902.224C878.205 902.182 878.189 902.135 878.184 902.087L876.347 886.223C876.34 886.178 876.342 886.133 876.353 886.089C876.364 886.045 876.384 886.004 876.411 885.968C876.438 885.932 876.473 885.901 876.512 885.878C876.551 885.855 876.594 885.841 876.639 885.835C876.686 885.83 876.734 885.835 876.779 885.849C876.824 885.863 876.866 885.886 876.902 885.916C876.938 885.946 876.968 885.983 876.99 886.024C877.012 886.066 877.025 886.112 877.029 886.158L878.85 901.844L882.215 904.029V885.997C882.219 885.908 882.256 885.823 882.319 885.761C882.382 885.698 882.467 885.661 882.556 885.657C882.602 885.654 882.648 885.662 882.692 885.678C882.735 885.694 882.774 885.718 882.808 885.75C882.841 885.782 882.868 885.82 882.886 885.863C882.904 885.905 882.914 885.951 882.914 885.997V901.326L887.53 897.732L888.115 886.175C888.115 886.129 888.124 886.083 888.143 886.041C888.161 885.998 888.187 885.96 888.221 885.928C888.254 885.897 888.294 885.872 888.337 885.856C888.38 885.84 888.427 885.832 888.473 885.835C888.52 885.834 888.568 885.844 888.611 885.863C888.655 885.882 888.694 885.91 888.726 885.945C888.758 885.98 888.783 886.022 888.798 886.067C888.813 886.112 888.819 886.16 888.814 886.207L888.229 897.926C888.228 897.977 888.215 898.026 888.193 898.07C888.17 898.115 888.138 898.154 888.099 898.185L882.914 902.216V912.819H884.36C886.928 912.819 889.415 912.948 891.821 913.142C891.919 912.9 891.984 912.624 892.081 912.382L887.562 909.031C887.518 908.996 887.482 908.951 887.457 908.901C887.432 908.851 887.418 908.796 887.416 908.739V902.022C887.414 901.976 887.421 901.93 887.437 901.887C887.453 901.844 887.478 901.804 887.51 901.771C887.542 901.738 887.58 901.711 887.623 901.693C887.665 901.675 887.711 901.666 887.757 901.666C887.805 901.663 887.853 901.671 887.897 901.688C887.941 901.705 887.982 901.731 888.016 901.765C888.049 901.798 888.075 901.839 888.093 901.883C888.11 901.927 888.117 901.974 888.115 902.022V904.903L889.741 903.641L890.472 899.108C890.488 899.016 890.539 898.934 890.615 898.88C890.691 898.825 890.786 898.803 890.878 898.817C890.925 898.823 890.97 898.838 891.01 898.862C891.051 898.886 891.086 898.918 891.113 898.956C891.141 898.993 891.16 899.037 891.17 899.082C891.18 899.128 891.18 899.176 891.171 899.221L890.423 903.916C890.402 904.002 890.357 904.081 890.293 904.142L888.05 905.761V908.497L892.292 911.621C892.845 910.229 893.447 908.885 894.064 907.558V907.445C894.828 905.826 895.69 904.207 896.437 902.734L891.561 895.757C891.556 895.686 891.567 895.614 891.594 895.547V886.142C891.598 886.049 891.636 885.961 891.703 885.895C891.769 885.829 891.858 885.79 891.951 885.786C892.046 885.786 892.137 885.824 892.204 885.89C892.271 885.957 892.309 886.048 892.309 886.142V895.547L896.909 902.151C897.315 901.423 897.722 900.727 898.112 900.047V891.775L899.103 887.13C899.123 887.042 899.176 886.965 899.253 886.916C899.329 886.868 899.421 886.851 899.51 886.871C899.555 886.878 899.598 886.895 899.637 886.92C899.675 886.945 899.708 886.977 899.734 887.015C899.76 887.052 899.778 887.095 899.787 887.14C899.796 887.184 899.795 887.231 899.786 887.275L898.811 891.889V898.784C901.278 894.647 904.026 890.683 907.035 886.919C907.067 886.887 907.105 886.861 907.147 886.844C907.189 886.826 907.234 886.817 907.279 886.817C907.325 886.817 907.37 886.826 907.411 886.844C907.453 886.861 907.491 886.887 907.523 886.919C907.558 886.95 907.585 886.987 907.604 887.029C907.623 887.071 907.633 887.116 907.633 887.162C907.633 887.208 907.623 887.253 907.604 887.295C907.585 887.337 907.558 887.374 907.523 887.405C904.44 891.259 901.637 895.326 899.136 899.578L909.75 897.506L920.819 888.635C920.885 888.574 920.973 888.539 921.063 888.539C921.154 888.539 921.241 888.574 921.307 888.635C921.374 888.705 921.412 888.797 921.412 888.894C921.412 888.991 921.374 889.084 921.307 889.153L910.156 898.056C910.108 898.065 910.058 898.065 910.01 898.056L898.632 900.274C897.38 902.427 896.096 904.774 894.926 907.266H900.647L905.199 903.22C905.229 903.185 905.267 903.158 905.309 903.139C905.351 903.12 905.396 903.11 905.442 903.11C905.489 903.11 905.534 903.12 905.576 903.139C905.618 903.158 905.656 903.185 905.686 903.22C905.719 903.251 905.744 903.289 905.762 903.331C905.78 903.372 905.789 903.417 905.789 903.462C905.789 903.508 905.78 903.552 905.762 903.594C905.744 903.636 905.719 903.674 905.686 903.705L901.037 907.833C901.004 907.862 900.966 907.885 900.924 907.898C900.882 907.912 900.838 907.918 900.794 907.914H894.601C893.82 909.533 893.105 911.297 892.439 913.061C896.245 913.368 900.015 914.018 903.703 915.004L905.069 913.806C904.873 913.256 904.191 911.491 903.573 909.889C903.55 909.825 903.545 909.757 903.56 909.691C903.574 909.625 903.607 909.564 903.654 909.516L909.457 903.754C909.526 903.696 909.613 903.667 909.703 903.67C909.792 903.674 909.877 903.711 909.941 903.774C910.004 903.837 910.041 903.922 910.045 904.011C910.049 904.1 910.019 904.187 909.961 904.256L904.305 909.856C905.036 911.702 905.442 912.738 905.638 913.32C907.653 911.572 909.669 909.954 911.635 908.464L912.432 899.367C912.438 899.319 912.455 899.272 912.48 899.231C912.505 899.189 912.538 899.153 912.578 899.124L925.224 889.299C925.3 889.257 925.388 889.244 925.473 889.263C925.557 889.281 925.632 889.329 925.684 889.398C925.736 889.467 925.76 889.553 925.753 889.639C925.747 889.725 925.709 889.805 925.647 889.865L913.115 899.578L912.383 907.882C915.13 905.793 917.78 903.883 920.267 902.184C920.308 902.167 920.355 902.167 920.397 902.184C925.743 898.497 931.324 895.16 937.106 892.196C937.191 892.157 937.287 892.152 937.375 892.182C937.463 892.212 937.536 892.275 937.578 892.358C937.613 892.443 937.617 892.537 937.587 892.624C937.557 892.71 937.496 892.783 937.415 892.828C931.949 895.665 926.662 898.833 921.583 902.313L929.532 903.77L945.396 895.304C945.435 895.281 945.479 895.266 945.524 895.26C945.569 895.255 945.615 895.258 945.659 895.27C945.703 895.282 945.744 895.303 945.78 895.331C945.816 895.359 945.846 895.394 945.868 895.434C945.908 895.52 945.914 895.618 945.883 895.709C945.853 895.799 945.789 895.874 945.705 895.919L929.759 904.45H929.597L920.835 902.831C915.203 906.663 909.813 910.837 904.695 915.328C906.415 915.813 908.091 916.447 909.701 917.222L913.732 914.664V911.734C913.733 911.68 913.746 911.627 913.772 911.579C913.797 911.531 913.834 911.49 913.879 911.459L920.527 906.603C920.593 906.541 920.68 906.507 920.771 906.507C920.861 906.507 920.948 906.541 921.014 906.603C921.047 906.634 921.072 906.672 921.09 906.714C921.108 906.756 921.117 906.8 921.117 906.846C921.117 906.891 921.108 906.936 921.09 906.977C921.072 907.019 921.047 907.057 921.014 907.088L914.512 911.945V914.324L920.64 910.423C920.681 910.403 920.725 910.393 920.771 910.393C920.816 910.393 920.86 910.403 920.901 910.423L925.777 911.637L934.115 908.48C934.158 908.46 934.204 908.448 934.251 908.447C934.298 908.446 934.345 908.454 934.388 908.473C934.431 908.491 934.47 908.519 934.502 908.554C934.533 908.589 934.557 908.63 934.571 908.675C934.589 908.716 934.6 908.761 934.601 908.806C934.602 908.852 934.594 908.897 934.577 908.939C934.561 908.981 934.536 909.02 934.504 909.052C934.472 909.085 934.434 909.11 934.392 909.128L925.923 912.365C925.86 912.389 925.791 912.389 925.728 912.365L920.949 911.151L910.579 917.74C911.547 918.253 912.448 918.884 913.261 919.617C919.405 917.027 926.525 914.259 933.189 911.75L936.44 910.536L939.236 902.847C939.255 902.774 939.302 902.711 939.366 902.669L948.501 896.907C948.58 896.872 948.668 896.867 948.751 896.892C948.833 896.918 948.903 896.972 948.949 897.044C948.994 897.117 949.012 897.204 948.998 897.289C948.985 897.374 948.941 897.451 948.875 897.506L939.853 903.203L937.106 910.115C947.477 906.263 955.848 903.333 956.027 903.284C956.07 903.264 956.117 903.253 956.165 903.253C956.213 903.252 956.261 903.263 956.304 903.283C956.348 903.303 956.386 903.332 956.417 903.369C956.447 903.406 956.47 903.449 956.482 903.495C956.508 903.581 956.502 903.674 956.462 903.755C956.423 903.836 956.355 903.899 956.27 903.932C956.043 903.932 945.884 907.574 934.034 912.025L935.416 912.641L957.815 906.522C957.858 906.507 957.905 906.502 957.951 906.506C957.997 906.511 958.041 906.525 958.081 906.548C958.121 906.571 958.156 906.602 958.183 906.64C958.21 906.677 958.228 906.72 958.237 906.765C958.252 906.808 958.257 906.854 958.253 906.9C958.248 906.946 958.234 906.99 958.211 907.03C958.188 907.07 958.156 907.104 958.119 907.131C958.082 907.158 958.039 907.176 957.993 907.186L935.481 913.353H935.253L933.092 912.398C926.59 914.842 919.6 917.561 913.586 920.103C914.332 920.865 914.771 921.873 914.821 922.936C914.804 923.5 914.66 924.053 914.399 924.554L918.527 924.166C918.511 924.108 918.511 924.046 918.527 923.988L922.819 919.132C922.843 919.098 922.875 919.071 922.911 919.051C922.948 919.031 922.988 919.02 923.03 919.018L944.161 915.927L945.916 911.281C945.94 911.226 945.976 911.178 946.021 911.139C946.066 911.099 946.119 911.071 946.176 911.054L957.798 908.756C957.85 908.744 957.904 908.743 957.956 908.755C958.008 908.766 958.057 908.789 958.099 908.821C958.141 908.854 958.176 908.895 958.199 908.943C958.223 908.99 958.236 909.043 958.237 909.096Z" fill="#EA8933"/>
<defs>
<linearGradient id="paint0_linear_1487_20977" x1="438.808" y1="33.4609" x2="0" y2="33.4609" gradientUnits="userSpaceOnUse">
<stop stop-color="white"/>
<stop offset="1" stop-color="#5CE1E6"/>
</linearGradient>
<linearGradient id="paint1_linear_1487_20977" x1="387.653" y1="92.7867" x2="834.231" y2="92.7867" gradientUnits="userSpaceOnUse">
<stop stop-color="#EA8933"/>
<stop offset="1" stop-color="white"/>
</linearGradient>
<linearGradient id="paint2_linear_1487_20977" x1="434.84" y1="857.263" x2="1223.25" y2="857.263" gradientUnits="userSpaceOnUse">
<stop stop-color="white"/>
<stop offset="1" stop-color="#5CE1E6"/>
</linearGradient>
<linearGradient id="paint3_linear_1487_20977" x1="189.169" y1="614.652" x2="229.334" y2="614.652" gradientUnits="userSpaceOnUse">
<stop stop-color="white"/>
<stop offset="1" stop-color="#5CE1E6"/>
</linearGradient>
<linearGradient id="paint4_linear_1487_20977" x1="465.074" y1="753.182" x2="496.559" y2="753.182" gradientUnits="userSpaceOnUse">
<stop stop-color="white"/>
<stop offset="1" stop-color="#5CE1E6"/>
</linearGradient>
<linearGradient id="paint5_linear_1487_20977" x1="72.7047" y1="693.775" x2="586.983" y2="693.775" gradientUnits="userSpaceOnUse">
<stop stop-color="white"/>
<stop offset="1" stop-color="#5CE1E6"/>
</linearGradient>
<linearGradient id="paint6_linear_1487_20977" x1="296.563" y1="759.138" x2="324.674" y2="702.681" gradientUnits="userSpaceOnUse">
<stop stop-color="#EA8933"/>
<stop offset="1" stop-color="white"/>
</linearGradient>
<linearGradient id="paint7_linear_1487_20977" x1="58.092" y1="820.6" x2="213.486" y2="820.6" gradientUnits="userSpaceOnUse">
<stop stop-color="white"/>
<stop offset="1" stop-color="#5CE1E6"/>
</linearGradient>
<linearGradient id="paint8_linear_1487_20977" x1="498.233" y1="890.691" x2="623.718" y2="890.691" gradientUnits="userSpaceOnUse">
<stop stop-color="#EA8933"/>
<stop offset="1" stop-color="white"/>
</linearGradient>
<linearGradient id="paint9_linear_1487_20977" x1="420.081" y1="889.721" x2="534.611" y2="889.721" gradientUnits="userSpaceOnUse">
<stop stop-color="white"/>
<stop offset="1" stop-color="#5CE1E6"/>
</linearGradient>
<linearGradient id="paint10_linear_1487_20977" x1="451.095" y1="910.634" x2="512.862" y2="910.634" gradientUnits="userSpaceOnUse">
<stop stop-color="#EA8933"/>
<stop offset="1" stop-color="white"/>
</linearGradient>
<linearGradient id="paint11_linear_1487_20977" x1="360.785" y1="865.052" x2="474.697" y2="865.052" gradientUnits="userSpaceOnUse">
<stop stop-color="#EA8933"/>
<stop offset="1" stop-color="white"/>
</linearGradient>
<linearGradient id="paint12_linear_1487_20977" x1="265.744" y1="863.546" x2="380.274" y2="863.546" gradientUnits="userSpaceOnUse">
<stop stop-color="white"/>
<stop offset="1" stop-color="#5CE1E6"/>
</linearGradient>
<linearGradient id="paint13_linear_1487_20977" x1="94.2584" y1="879.441" x2="170.135" y2="879.441" gradientUnits="userSpaceOnUse">
<stop stop-color="#EA8933"/>
<stop offset="1" stop-color="white"/>
</linearGradient>
<linearGradient id="paint14_linear_1487_20977" x1="287.688" y1="899.853" x2="360.069" y2="899.853" gradientUnits="userSpaceOnUse">
<stop stop-color="#EA8933"/>
<stop offset="1" stop-color="white"/>
</linearGradient>
<linearGradient id="paint15_linear_1487_20977" x1="191.461" y1="822.462" x2="303.471" y2="822.462" gradientUnits="userSpaceOnUse">
<stop stop-color="#EA8933"/>
<stop offset="1" stop-color="white"/>
</linearGradient>
</defs>
</svg>
