<svg width="28" height="28" viewBox="0 0 28 28" fill="none" xmlns="http://www.w3.org/2000/svg">
<path fill-rule="evenodd" clip-rule="evenodd" d="M1.1665 3.50016C1.1665 2.85583 1.68884 2.3335 2.33317 2.3335H9.33317C10.8803 2.3335 12.364 2.94808 13.458 4.04204C14.5519 5.136 15.1665 6.61973 15.1665 8.16683V24.5002C15.1665 25.1445 14.6442 25.6668 13.9998 25.6668C13.3555 25.6668 12.8332 25.1445 12.8332 24.5002C12.8332 23.8813 12.5873 23.2878 12.1498 22.8502C11.7122 22.4127 11.1187 22.1668 10.4998 22.1668H2.33317C1.68884 22.1668 1.1665 21.6445 1.1665 21.0002V3.50016ZM12.8332 20.4587V8.16683C12.8332 7.23857 12.4644 6.34833 11.808 5.69196C11.1517 5.03558 10.2614 4.66683 9.33317 4.66683H3.49984V19.8335H10.4998C11.3261 19.8335 12.1298 20.0526 12.8332 20.4587Z" fill="#F2F1F0"/>
<path fill-rule="evenodd" clip-rule="evenodd" d="M14.542 4.04204C15.636 2.94808 17.1197 2.3335 18.6668 2.3335H25.6668C26.3112 2.3335 26.8335 2.85583 26.8335 3.50016V21.0002C26.8335 21.6445 26.3112 22.1668 25.6668 22.1668H17.5002C16.8813 22.1668 16.2878 22.4127 15.8502 22.8502C15.4127 23.2878 15.1668 23.8813 15.1668 24.5002C15.1668 25.1445 14.6445 25.6668 14.0002 25.6668C13.3558 25.6668 12.8335 25.1445 12.8335 24.5002V8.16683C12.8335 6.61973 13.4481 5.136 14.542 4.04204ZM15.1668 20.4587C15.8702 20.0526 16.6739 19.8335 17.5002 19.8335H24.5002V4.66683H18.6668C17.7386 4.66683 16.8483 5.03558 16.192 5.69196C15.5356 6.34833 15.1668 7.23857 15.1668 8.16683V20.4587Z" fill="#F2F1F0"/>
</svg>
