<svg width="228" height="402" viewBox="0 0 228 402" fill="none" xmlns="http://www.w3.org/2000/svg">
<g clip-path="url(#clip0_1474_16956)">
<path d="M227.045 18.6546V383.357C227.047 385.805 226.566 388.23 225.631 390.492C224.695 392.755 223.323 394.811 221.593 396.543C219.863 398.275 217.809 399.65 215.548 400.588C213.286 401.526 210.862 402.01 208.414 402.012H19.5511C17.1029 402.01 14.6789 401.526 12.4176 400.588C10.1564 399.65 8.10203 398.275 6.37194 396.543C4.64186 394.811 3.26991 392.755 2.33442 390.492C1.39893 388.23 0.918228 385.805 0.91975 383.357V18.6546C0.918228 16.2063 1.39893 13.7818 2.33442 11.5193C3.26991 9.25687 4.64186 7.20083 6.37194 5.4686C8.10203 3.73636 10.1564 2.36185 12.4176 1.42355C14.6789 0.485246 17.1029 0.00152111 19.5511 0H208.414C210.862 0.00152111 213.286 0.485246 215.548 1.42355C217.809 2.36185 219.863 3.73636 221.593 5.4686C223.323 7.20083 224.695 9.25687 225.631 11.5193C226.566 13.7818 227.047 16.2063 227.045 18.6546Z" fill="url(#paint0_linear_1474_16956)"/>
<path d="M99.5109 168.296L96.1392 170.73L87.4608 176.998L86.1978 177.913L67.8561 178.945C63.7776 168.992 60.0351 141.369 58.0074 124.348C57.0341 116.075 56.4664 110.317 56.4664 110.317L65.2027 104.686L76.9169 114.986L79.9294 117.639L85.7228 122.738L99.5109 168.296Z" fill="url(#paint1_linear_1474_16956)"/>
<path d="M99.5109 168.296L96.1392 170.73L87.4608 176.998C82.0382 163.731 69.9185 132.343 69.3392 115.484L79.9526 117.639L85.7459 122.738L99.5109 168.296Z" fill="url(#paint2_linear_1474_16956)"/>
<path d="M182.796 125.993C174.685 133.096 100.403 177.913 100.403 177.913C100.403 177.913 98.7345 175.179 96.1391 170.73C89.3377 159.143 76.1173 135.831 69.3738 119.065C67.0565 113.271 65.446 108.173 65.2026 104.686C89.0133 88.7191 154.246 62.5332 154.246 62.5332C154.246 62.5332 156.228 68.3265 159.263 76.4372C165.346 92.7976 175.682 118.59 182.796 125.993Z" fill="url(#paint3_linear_1474_16956)"/>
<path d="M159.263 76.4726C131.455 84.2241 90.6122 107.096 76.9399 114.987C73.9737 116.702 72.3052 117.71 72.3052 117.71L69.3854 119.065L58.0305 124.349C57.0572 116.076 56.4894 110.317 56.4894 110.317L63.6268 105.683L65.2258 104.651C89.0364 88.6849 154.269 62.499 154.269 62.499C154.269 62.499 156.228 68.3271 159.263 76.4726Z" fill="url(#paint4_linear_1474_16956)"/>
<path d="M69.3738 119.064L58.0189 124.348C57.0456 116.075 56.4778 110.316 56.4778 110.316L63.6152 105.682L69.3738 119.064Z" fill="url(#paint5_linear_1474_16956)"/>
<path d="M76.0825 104.906C76.8125 98.5682 66.8132 96.7375 66.0948 104.107L63.986 105.474C63.986 105.474 62.9316 96.6911 71.6796 97.1894C78.6316 97.5717 78.423 103.11 77.9364 105.219C77.9095 105.343 77.8576 105.46 77.7839 105.562C77.7101 105.665 77.616 105.752 77.5075 105.817C77.3989 105.882 77.2781 105.925 77.1526 105.941C77.0271 105.958 76.8995 105.949 76.7777 105.914C76.5578 105.862 76.3651 105.73 76.2368 105.543C76.1084 105.357 76.0534 105.13 76.0825 104.906Z" fill="url(#paint6_linear_1474_16956)"/>
<path d="M93.6596 95.9734C95.0963 89.7513 85.3519 86.8199 83.8225 94.0616L81.5746 95.2202C81.5746 95.2202 81.5051 86.3796 90.1372 87.8395C97.0081 88.9982 96.1855 94.4787 95.4671 96.5295C95.3809 96.7527 95.2137 96.935 94.9989 97.0403C94.7841 97.1455 94.5376 97.1659 94.3084 97.0973C94.0779 97.0272 93.8827 96.872 93.7622 96.6634C93.6417 96.4547 93.6051 96.2081 93.6596 95.9734Z" fill="url(#paint7_linear_1474_16956)"/>
<path d="M114.33 85.8923C115.767 79.6703 106.023 76.7388 104.493 83.9805L102.245 85.1392C102.245 85.1392 102.176 76.2986 110.808 77.7585C117.679 78.9172 116.856 84.3977 116.138 86.4485C116.049 86.6699 115.882 86.8506 115.668 86.9555C115.454 87.0604 115.208 87.0821 114.979 87.0162C114.745 86.9511 114.546 86.7969 114.425 86.5868C114.304 86.3766 114.27 86.1273 114.33 85.8923Z" fill="url(#paint8_linear_1474_16956)"/>
<path d="M133.518 77.2716C134.955 71.0495 125.21 68.1297 123.681 75.3597L121.433 76.5184C121.433 76.5184 121.375 67.6662 129.995 69.1377C136.866 70.2964 136.044 75.7769 135.325 77.8161C135.239 78.0392 135.072 78.2216 134.857 78.3269C134.642 78.4321 134.396 78.4525 134.167 78.3839C133.939 78.3138 133.745 78.1605 133.625 77.9544C133.505 77.7483 133.467 77.5046 133.518 77.2716Z" fill="url(#paint9_linear_1474_16956)"/>
<path d="M151.489 69.5779C152.925 63.3558 143.181 60.436 141.652 67.6661L139.404 68.8247C139.404 68.8247 139.346 59.9841 147.978 61.444C154.837 62.6027 154.015 68.0832 153.296 70.1224C153.21 70.3455 153.043 70.5279 152.828 70.6332C152.613 70.7384 152.367 70.7588 152.138 70.6902C151.908 70.6225 151.713 70.4696 151.592 70.2629C151.472 70.0561 151.435 69.8111 151.489 69.5779Z" fill="url(#paint10_linear_1474_16956)"/>
<path opacity="0.25" d="M83.1042 120.34C89.6622 115.265 107.042 108.081 107.042 108.081" stroke="url(#paint11_linear_1474_16956)" stroke-width="3.47601" stroke-miterlimit="10" stroke-linecap="round"/>
<path opacity="0.15" d="M92.5645 124.286L84.9936 128.457C83.9735 129.019 83.6021 130.302 84.1641 131.322L87.6919 137.725C88.2538 138.746 89.5364 139.117 90.5565 138.555L98.1273 134.384C99.1474 133.822 99.5188 132.54 98.9568 131.52L95.4291 125.116C94.8671 124.096 93.5846 123.724 92.5645 124.286Z" fill="url(#paint12_linear_1474_16956)"/>
<path opacity="0.15" d="M107.966 115.795L100.395 119.966C99.3751 120.528 99.0037 121.81 99.5657 122.83L103.093 129.234C103.655 130.254 104.938 130.626 105.958 130.064L113.529 125.893C114.549 125.331 114.92 124.049 114.358 123.028L110.831 116.625C110.269 115.605 108.986 115.233 107.966 115.795Z" fill="url(#paint13_linear_1474_16956)"/>
<path opacity="0.15" d="M123.379 107.306L115.808 111.477C114.788 112.039 114.417 113.321 114.979 114.341L118.507 120.745C119.069 121.765 120.351 122.136 121.371 121.574L128.942 117.404C129.962 116.842 130.334 115.559 129.772 114.539L126.244 108.135C125.682 107.115 124.399 106.744 123.379 107.306Z" fill="url(#paint14_linear_1474_16956)"/>
<path opacity="0.15" d="M138.798 98.8137L131.227 102.984C130.207 103.546 129.836 104.829 130.398 105.849L133.925 112.253C134.487 113.273 135.77 113.644 136.79 113.082L144.361 108.912C145.381 108.35 145.752 107.067 145.19 106.047L141.662 99.6432C141.101 98.6232 139.818 98.2517 138.798 98.8137Z" fill="url(#paint15_linear_1474_16956)"/>
<path opacity="0.15" d="M154.199 90.3225L146.629 94.4932C145.608 95.0552 145.237 96.3377 145.799 97.3578L149.327 103.762C149.889 104.782 151.171 105.153 152.191 104.591L159.762 100.42C160.782 99.8584 161.154 98.5759 160.592 97.5558L157.064 91.152C156.502 90.1319 155.219 89.7605 154.199 90.3225Z" fill="url(#paint16_linear_1474_16956)"/>
<path opacity="0.15" d="M100.53 137.285L92.9596 141.456C91.9395 142.018 91.5681 143.301 92.1301 144.321L95.6579 150.724C96.2199 151.745 97.5024 152.116 98.5225 151.554L106.093 147.383C107.113 146.821 107.485 145.539 106.923 144.519L103.395 138.115C102.833 137.095 101.551 136.723 100.53 137.285Z" fill="url(#paint17_linear_1474_16956)"/>
<path opacity="0.15" d="M115.954 128.788L108.383 132.959C107.363 133.521 106.991 134.804 107.553 135.824L111.081 142.227C111.643 143.247 112.926 143.619 113.946 143.057L121.517 138.886C122.537 138.324 122.908 137.042 122.346 136.022L118.818 129.618C118.256 128.598 116.974 128.226 115.954 128.788Z" fill="url(#paint18_linear_1474_16956)"/>
<path opacity="0.15" d="M131.361 120.297L123.79 124.468C122.77 125.03 122.399 126.312 122.961 127.332L126.488 133.736C127.05 134.756 128.333 135.128 129.353 134.566L136.924 130.395C137.944 129.833 138.315 128.55 137.753 127.53L134.226 121.127C133.664 120.107 132.381 119.735 131.361 120.297Z" fill="url(#paint19_linear_1474_16956)"/>
<path d="M146.774 111.807L139.203 115.978C138.183 116.54 137.812 117.822 138.374 118.842L141.901 125.246C142.463 126.266 143.746 126.637 144.766 126.075L152.337 121.905C153.357 121.343 153.728 120.06 153.166 119.04L149.639 112.636C149.077 111.616 147.794 111.245 146.774 111.807Z" fill="url(#paint20_linear_1474_16956)"/>
<path opacity="0.15" d="M162.187 103.316L154.616 107.486C153.596 108.048 153.225 109.331 153.787 110.351L157.315 116.755C157.877 117.775 159.159 118.146 160.179 117.584L167.75 113.414C168.77 112.852 169.141 111.569 168.579 110.549L165.052 104.145C164.49 103.125 163.207 102.754 162.187 103.316Z" fill="url(#paint21_linear_1474_16956)"/>
<path opacity="0.15" d="M107.754 150.378L100.183 154.549C99.1628 155.111 98.7914 156.393 99.3534 157.413L102.881 163.817C103.443 164.837 104.726 165.209 105.746 164.647L113.317 160.476C114.337 159.914 114.708 158.632 114.146 157.611L110.618 151.208C110.056 150.188 108.774 149.816 107.754 150.378Z" fill="url(#paint22_linear_1474_16956)"/>
<path opacity="0.15" d="M123.167 141.888L115.596 146.059C114.576 146.621 114.204 147.903 114.766 148.923L118.294 155.327C118.856 156.347 120.139 156.718 121.159 156.157L128.73 151.986C129.75 151.424 130.121 150.141 129.559 149.121L126.031 142.717C125.469 141.697 124.187 141.326 123.167 141.888Z" fill="url(#paint23_linear_1474_16956)"/>
<path opacity="0.15" d="M138.579 133.392L131.008 137.563C129.988 138.125 129.616 139.407 130.178 140.427L133.706 146.831C134.268 147.851 135.55 148.222 136.571 147.66L144.141 143.49C145.161 142.928 145.533 141.645 144.971 140.625L141.443 134.221C140.881 133.201 139.599 132.83 138.579 133.392Z" fill="url(#paint24_linear_1474_16956)"/>
<path opacity="0.15" d="M153.992 124.902L146.421 129.072C145.401 129.634 145.029 130.917 145.591 131.937L149.119 138.341C149.681 139.361 150.963 139.732 151.984 139.17L159.554 134.999C160.575 134.437 160.946 133.155 160.384 132.135L156.856 125.731C156.294 124.711 155.012 124.34 153.992 124.902Z" fill="url(#paint25_linear_1474_16956)"/>
<path opacity="0.15" d="M169.405 116.41L161.834 120.581C160.814 121.143 160.442 122.426 161.004 123.446L164.532 129.849C165.094 130.87 166.377 131.241 167.397 130.679L174.967 126.508C175.988 125.946 176.359 124.664 175.797 123.644L172.269 117.24C171.707 116.22 170.425 115.848 169.405 116.41Z" fill="url(#paint26_linear_1474_16956)"/>
<path d="M143.158 119.482L146.414 120.884L147.816 115.484" stroke="white" stroke-width="1.15867" stroke-linecap="round" stroke-linejoin="round"/>
<path d="M102.245 62.5337C102.245 63.322 102.012 64.0926 101.574 64.7481C101.136 65.4035 100.513 65.9144 99.7848 66.2161C99.0565 66.5178 98.2551 66.5967 97.482 66.4429C96.7088 66.2891 95.9986 65.9095 95.4411 65.3521C94.8837 64.7946 94.5041 64.0844 94.3503 63.3113C94.1965 62.5381 94.2755 61.7367 94.5771 61.0084C94.8788 60.28 95.3897 59.6575 96.0452 59.2196C96.7006 58.7816 97.4712 58.5479 98.2596 58.5479C99.3167 58.5479 100.33 58.9678 101.078 59.7153C101.825 60.4628 102.245 61.4766 102.245 62.5337Z" fill="url(#paint27_linear_1474_16956)"/>
<path d="M147.144 178.991C147.144 179.779 146.91 180.55 146.472 181.205C146.034 181.861 145.412 182.371 144.683 182.673C143.955 182.975 143.154 183.054 142.38 182.9C141.607 182.746 140.897 182.367 140.34 181.809C139.782 181.252 139.403 180.541 139.249 179.768C139.095 178.995 139.174 178.194 139.476 177.465C139.777 176.737 140.288 176.115 140.944 175.677C141.599 175.239 142.37 175.005 143.158 175.005C144.215 175.005 145.229 175.425 145.976 176.172C146.724 176.92 147.144 177.934 147.144 178.991Z" fill="#ED510C"/>
<path d="M178.88 76.9582L179.818 74.7799C179.878 74.6399 179.91 74.4894 179.912 74.3371C179.914 74.1848 179.886 74.0335 179.83 73.892C179.773 73.7506 179.689 73.6216 179.583 73.5125C179.477 73.4034 179.35 73.3163 179.21 73.2562C179.07 73.1961 178.919 73.1642 178.767 73.1622C178.615 73.1602 178.463 73.1883 178.322 73.2448C178.18 73.3013 178.052 73.3851 177.942 73.4914C177.833 73.5978 177.746 73.7245 177.686 73.8645L176.748 76.0428L174.569 75.0927C174.429 75.0326 174.279 75.0007 174.127 74.9987C173.974 74.9967 173.823 75.0248 173.682 75.0813C173.54 75.1378 173.411 75.2216 173.302 75.3279C173.193 75.4342 173.106 75.561 173.046 75.701C172.986 75.841 172.954 75.9914 172.952 76.1438C172.95 76.2961 172.978 76.4473 173.034 76.5888C173.091 76.7303 173.175 76.8593 173.281 76.9684C173.387 77.0775 173.514 77.1645 173.654 77.2247L175.821 78.1632L174.882 80.3415C174.762 80.6228 174.758 80.9402 174.871 81.2246C174.983 81.5089 175.204 81.7371 175.485 81.8593C175.625 81.9207 175.775 81.9538 175.928 81.9567C176.081 81.9596 176.233 81.9323 176.375 81.8763C176.517 81.8203 176.647 81.7367 176.756 81.6304C176.866 81.5241 176.954 81.3971 177.014 81.2568L177.953 79.0901L180.131 80.0286C180.413 80.1445 180.729 80.1445 181.012 80.0286C181.297 79.9163 181.526 79.6955 181.649 79.4145C181.71 79.2746 181.743 79.1239 181.746 78.9712C181.749 78.8184 181.722 78.6666 181.666 78.5245C181.61 78.3823 181.526 78.2526 181.42 78.1429C181.314 78.0332 181.187 77.9456 181.046 77.8851L178.88 76.9582Z" fill="#72959A"/>
<path d="M39.6077 134.962L40.5578 132.784C40.6792 132.501 40.6833 132.182 40.5692 131.896C40.4551 131.61 40.2322 131.381 39.9495 131.26C39.6668 131.139 39.3474 131.135 39.0617 131.249C38.776 131.363 38.5472 131.586 38.4259 131.868L37.4873 134.047L35.309 133.097C35.0263 132.975 34.707 132.971 34.4212 133.085C34.1355 133.199 33.9068 133.422 33.7854 133.705C33.664 133.988 33.6599 134.307 33.774 134.593C33.8881 134.878 34.111 135.107 34.3937 135.229L36.5604 136.167L35.6219 138.345C35.5016 138.627 35.4974 138.944 35.6103 139.228C35.7231 139.513 35.9439 139.741 36.2244 139.863C36.3643 139.925 36.515 139.958 36.6677 139.961C36.8205 139.963 36.9723 139.936 37.1145 139.88C37.2566 139.824 37.3863 139.741 37.496 139.634C37.6057 139.528 37.6934 139.401 37.7538 139.261L38.6924 137.094L40.8707 138.033C41.1528 138.148 41.4691 138.148 41.7512 138.033C41.9602 137.943 42.1385 137.795 42.2637 137.605C42.389 137.416 42.4558 137.194 42.4558 136.967C42.4558 136.739 42.389 136.517 42.2637 136.328C42.1385 136.138 41.9602 135.99 41.7512 135.901L39.6077 134.962Z" fill="url(#paint28_linear_1474_16956)"/>
<path d="M57.1192 278.13C56.1675 278.13 55.3148 277.975 54.5608 277.666C53.8069 277.357 53.2013 276.9 52.7441 276.294C52.2991 275.689 52.0643 274.96 52.0396 274.107H55.4136C55.4631 274.589 55.6299 274.96 55.9142 275.219C56.1984 275.466 56.5692 275.59 57.0265 275.59C57.4961 275.59 57.8669 275.485 58.1388 275.275C58.4107 275.052 58.5467 274.75 58.5467 274.366C58.5467 274.045 58.4354 273.779 58.213 273.569C58.0029 273.359 57.7371 273.186 57.4158 273.05C57.1068 272.914 56.6619 272.76 56.081 272.587C55.2406 272.327 54.5547 272.068 54.0232 271.808C53.4918 271.549 53.0345 271.165 52.6514 270.659C52.2682 270.152 52.0767 269.491 52.0767 268.675C52.0767 267.464 52.5154 266.518 53.3929 265.839C54.2704 265.147 55.4136 264.8 56.8226 264.8C58.2562 264.8 59.4118 265.147 60.2893 265.839C61.1668 266.518 61.6364 267.47 61.6982 268.694H58.2686C58.2439 268.273 58.0894 267.946 57.8051 267.711C57.5209 267.464 57.1563 267.34 56.7113 267.34C56.3282 267.34 56.0192 267.445 55.7844 267.655C55.5496 267.853 55.4322 268.144 55.4322 268.527C55.4322 268.947 55.6299 269.274 56.0254 269.509C56.4209 269.744 57.0388 269.997 57.8793 270.269C58.7197 270.554 59.3994 270.826 59.9185 271.085C60.45 271.345 60.9073 271.722 61.2904 272.216C61.6735 272.71 61.8651 273.347 61.8651 274.125C61.8651 274.867 61.6735 275.541 61.2904 276.146C60.9196 276.752 60.3758 277.234 59.659 277.592C58.9422 277.951 58.0956 278.13 57.1192 278.13ZM73.5674 272.661C73.5674 272.957 73.5488 273.266 73.5117 273.588H66.3373C66.3867 274.23 66.5906 274.725 66.949 275.071C67.3198 275.405 67.7709 275.571 68.3024 275.571C69.0933 275.571 69.6433 275.238 69.9523 274.57H73.3263C73.1533 275.25 72.8382 275.862 72.3809 276.406C71.9359 276.949 71.3736 277.376 70.6939 277.685C70.0141 277.994 69.254 278.148 68.4136 278.148C67.4001 278.148 66.4979 277.932 65.7069 277.499C64.916 277.067 64.298 276.449 63.8531 275.646C63.4081 274.842 63.1857 273.903 63.1857 272.828C63.1857 271.752 63.402 270.813 63.8345 270.01C64.2795 269.206 64.8974 268.589 65.6884 268.156C66.4794 267.723 67.3878 267.507 68.4136 267.507C69.4147 267.507 70.3045 267.717 71.0832 268.137C71.8618 268.558 72.4674 269.157 72.9 269.936C73.3449 270.714 73.5674 271.623 73.5674 272.661ZM70.3231 271.827C70.3231 271.283 70.1377 270.85 69.7669 270.529C69.3961 270.208 68.9327 270.047 68.3765 270.047C67.8451 270.047 67.394 270.201 67.0232 270.51C66.6648 270.819 66.4423 271.258 66.3558 271.827H70.3231ZM78.4099 264.281V278H75.2397V264.281H78.4099ZM90.4586 272.661C90.4586 272.957 90.44 273.266 90.4029 273.588H83.2285C83.2779 274.23 83.4818 274.725 83.8403 275.071C84.211 275.405 84.6621 275.571 85.1936 275.571C85.9846 275.571 86.5345 275.238 86.8435 274.57H90.2176C90.0445 275.25 89.7294 275.862 89.2721 276.406C88.8272 276.949 88.2648 277.376 87.5851 277.685C86.9053 277.994 86.1452 278.148 85.3048 278.148C84.2914 278.148 83.3891 277.932 82.5982 277.499C81.8072 277.067 81.1892 276.449 80.7443 275.646C80.2994 274.842 80.0769 273.903 80.0769 272.828C80.0769 271.752 80.2932 270.813 80.7257 270.01C81.1707 269.206 81.7886 268.589 82.5796 268.156C83.3706 267.723 84.279 267.507 85.3048 267.507C86.3059 267.507 87.1958 267.717 87.9744 268.137C88.753 268.558 89.3586 269.157 89.7912 269.936C90.2361 270.714 90.4586 271.623 90.4586 272.661ZM87.2143 271.827C87.2143 271.283 87.0289 270.85 86.6581 270.529C86.2874 270.208 85.8239 270.047 85.2677 270.047C84.7363 270.047 84.2852 270.201 83.9144 270.51C83.556 270.819 83.3335 271.258 83.247 271.827H87.2143ZM91.5006 272.828C91.5006 271.752 91.7169 270.813 92.1495 270.01C92.5944 269.206 93.2062 268.589 93.9848 268.156C94.7758 267.723 95.678 267.507 96.6915 267.507C97.9892 267.507 99.0706 267.847 99.9357 268.527C100.813 269.206 101.388 270.164 101.66 271.4H98.2858C98.0015 270.609 97.4516 270.214 96.6359 270.214C96.055 270.214 95.5915 270.442 95.2455 270.9C94.8994 271.345 94.7264 271.987 94.7264 272.828C94.7264 273.668 94.8994 274.317 95.2455 274.774C95.5915 275.219 96.055 275.442 96.6359 275.442C97.4516 275.442 98.0015 275.046 98.2858 274.255H101.66C101.388 275.466 100.813 276.418 99.9357 277.11C99.0582 277.802 97.9768 278.148 96.6915 278.148C95.678 278.148 94.7758 277.932 93.9848 277.499C93.2062 277.067 92.5944 276.449 92.1495 275.646C91.7169 274.842 91.5006 273.903 91.5006 272.828ZM109.121 275.312V278H107.508C106.359 278 105.463 277.722 104.82 277.166C104.177 276.597 103.856 275.676 103.856 274.403V270.288H102.595V267.655H103.856V265.134H107.026V267.655H109.103V270.288H107.026V274.441C107.026 274.75 107.1 274.972 107.249 275.108C107.397 275.244 107.644 275.312 107.99 275.312H109.121ZM122.917 275.701H118.06L117.281 278H113.963L118.672 264.986H122.342L127.051 278H123.696L122.917 275.701ZM122.101 273.254L120.488 268.49L118.894 273.254H122.101ZM137.288 264.986C138.66 264.986 139.859 265.258 140.885 265.802C141.911 266.345 142.702 267.112 143.258 268.1C143.826 269.077 144.111 270.208 144.111 271.493C144.111 272.766 143.826 273.897 143.258 274.885C142.702 275.874 141.905 276.64 140.866 277.184C139.841 277.728 138.648 278 137.288 278H132.413V264.986H137.288ZM137.085 275.256C138.283 275.256 139.216 274.929 139.884 274.274C140.551 273.619 140.885 272.692 140.885 271.493C140.885 270.294 140.551 269.361 139.884 268.694C139.216 268.026 138.283 267.692 137.085 267.692H135.583V275.256H137.085ZM145.252 272.809C145.252 271.746 145.45 270.813 145.845 270.01C146.253 269.206 146.803 268.589 147.495 268.156C148.187 267.723 148.96 267.507 149.813 267.507C150.542 267.507 151.178 267.655 151.722 267.952C152.278 268.249 152.705 268.638 153.001 269.12V267.655H156.171V278H153.001V276.535C152.692 277.017 152.26 277.407 151.703 277.703C151.16 278 150.523 278.148 149.794 278.148C148.954 278.148 148.187 277.932 147.495 277.499C146.803 277.055 146.253 276.43 145.845 275.627C145.45 274.811 145.252 273.872 145.252 272.809ZM153.001 272.828C153.001 272.037 152.779 271.413 152.334 270.955C151.901 270.498 151.37 270.269 150.739 270.269C150.109 270.269 149.572 270.498 149.127 270.955C148.694 271.4 148.478 272.018 148.478 272.809C148.478 273.6 148.694 274.23 149.127 274.7C149.572 275.157 150.109 275.386 150.739 275.386C151.37 275.386 151.901 275.157 152.334 274.7C152.779 274.243 153.001 273.619 153.001 272.828ZM164.23 275.312V278H162.617C161.468 278 160.572 277.722 159.929 277.166C159.287 276.597 158.965 275.676 158.965 274.403V270.288H157.705V267.655H158.965V265.134H162.135V267.655H164.212V270.288H162.135V274.441C162.135 274.75 162.21 274.972 162.358 275.108C162.506 275.244 162.753 275.312 163.099 275.312H164.23ZM175.747 272.661C175.747 272.957 175.729 273.266 175.692 273.588H168.517C168.567 274.23 168.771 274.725 169.129 275.071C169.5 275.405 169.951 275.571 170.482 275.571C171.273 275.571 171.823 275.238 172.132 274.57H175.506C175.333 275.25 175.018 275.862 174.561 276.406C174.116 276.949 173.554 277.376 172.874 277.685C172.194 277.994 171.434 278.148 170.594 278.148C169.58 278.148 168.678 277.932 167.887 277.499C167.096 277.067 166.478 276.449 166.033 275.646C165.588 274.842 165.366 273.903 165.366 272.828C165.366 271.752 165.582 270.813 166.015 270.01C166.46 269.206 167.077 268.589 167.868 268.156C168.659 267.723 169.568 267.507 170.594 267.507C171.595 267.507 172.485 267.717 173.263 268.137C174.042 268.558 174.647 269.157 175.08 269.936C175.525 270.714 175.747 271.623 175.747 272.661ZM172.503 271.827C172.503 271.283 172.318 270.85 171.947 270.529C171.576 270.208 171.113 270.047 170.557 270.047C170.025 270.047 169.574 270.201 169.203 270.51C168.845 270.819 168.622 271.258 168.536 271.827H172.503ZM67.1233 293.809C67.1233 292.746 67.3211 291.813 67.7166 291.01C68.1244 290.206 68.6744 289.589 69.3665 289.156C70.0586 288.723 70.8311 288.507 71.6839 288.507C72.4131 288.507 73.0495 288.655 73.5934 288.952C74.1495 289.249 74.5759 289.638 74.8725 290.12V288.655H78.0426V299H74.8725V297.535C74.5635 298.017 74.131 298.407 73.5748 298.703C73.031 299 72.3945 299.148 71.6653 299.148C70.8249 299.148 70.0586 298.932 69.3665 298.499C68.6744 298.055 68.1244 297.43 67.7166 296.627C67.3211 295.811 67.1233 294.872 67.1233 293.809ZM74.8725 293.828C74.8725 293.037 74.6501 292.413 74.2051 291.955C73.7726 291.498 73.2411 291.269 72.6108 291.269C71.9805 291.269 71.4429 291.498 70.9979 291.955C70.5654 292.4 70.3491 293.018 70.3491 293.809C70.3491 294.6 70.5654 295.23 70.9979 295.7C71.4429 296.157 71.9805 296.386 72.6108 296.386C73.2411 296.386 73.7726 296.157 74.2051 295.7C74.6501 295.243 74.8725 294.619 74.8725 293.828ZM86.6392 288.544C87.8504 288.544 88.8144 288.94 89.5313 289.731C90.2605 290.509 90.6251 291.585 90.6251 292.956V299H87.4735V293.383C87.4735 292.691 87.2943 292.153 86.9359 291.77C86.5774 291.387 86.0954 291.195 85.4898 291.195C84.8842 291.195 84.4022 291.387 84.0438 291.77C83.6854 292.153 83.5062 292.691 83.5062 293.383V299H80.3361V288.655H83.5062V290.027C83.8275 289.57 84.2601 289.212 84.8039 288.952C85.3477 288.68 85.9595 288.544 86.6392 288.544ZM92.1977 293.809C92.1977 292.746 92.3954 291.813 92.7909 291.01C93.1987 290.206 93.7487 289.589 94.4408 289.156C95.133 288.723 95.9054 288.507 96.7582 288.507C97.4379 288.507 98.0559 288.649 98.612 288.933C99.1806 289.218 99.6255 289.601 99.9468 290.083V285.281H103.117V299H99.9468V297.517C99.6502 298.011 99.2238 298.407 98.6677 298.703C98.1239 299 97.4874 299.148 96.7582 299.148C95.9054 299.148 95.133 298.932 94.4408 298.499C93.7487 298.055 93.1987 297.43 92.7909 296.627C92.3954 295.811 92.1977 294.872 92.1977 293.809ZM99.9468 293.828C99.9468 293.037 99.7244 292.413 99.2794 291.955C98.8469 291.498 98.3154 291.269 97.6851 291.269C97.0548 291.269 96.5172 291.498 96.0722 291.955C95.6397 292.4 95.4234 293.018 95.4234 293.809C95.4234 294.6 95.6397 295.23 96.0722 295.7C96.5172 296.157 97.0548 296.386 97.6851 296.386C98.3154 296.386 98.8469 296.157 99.2794 295.7C99.7244 295.243 99.9468 294.619 99.9468 293.828ZM117.44 296.701H112.583L111.805 299H108.486L113.195 285.986H116.866L121.575 299H118.219L117.44 296.701ZM116.625 294.254L115.012 289.49L113.418 294.254H116.625ZM131.145 299.148C130.242 299.148 129.439 298.994 128.735 298.685C128.03 298.376 127.474 297.956 127.066 297.424C126.658 296.88 126.43 296.275 126.38 295.607H129.513C129.55 295.966 129.717 296.256 130.014 296.479C130.31 296.701 130.675 296.812 131.107 296.812C131.503 296.812 131.806 296.738 132.016 296.59C132.238 296.429 132.35 296.225 132.35 295.978C132.35 295.682 132.195 295.465 131.886 295.329C131.577 295.181 131.077 295.02 130.384 294.847C129.643 294.674 129.025 294.495 128.531 294.31C128.036 294.112 127.61 293.809 127.251 293.401C126.893 292.981 126.714 292.419 126.714 291.714C126.714 291.121 126.874 290.583 127.196 290.101C127.53 289.607 128.012 289.218 128.642 288.933C129.285 288.649 130.045 288.507 130.922 288.507C132.22 288.507 133.239 288.828 133.981 289.471C134.735 290.114 135.167 290.967 135.279 292.029H132.35C132.3 291.671 132.139 291.387 131.868 291.177C131.608 290.967 131.262 290.862 130.829 290.862C130.459 290.862 130.174 290.936 129.977 291.084C129.779 291.22 129.68 291.411 129.68 291.659C129.68 291.955 129.834 292.178 130.143 292.326C130.465 292.474 130.959 292.623 131.627 292.771C132.393 292.969 133.017 293.166 133.499 293.364C133.981 293.55 134.401 293.859 134.76 294.291C135.13 294.711 135.322 295.28 135.334 295.997C135.334 296.602 135.161 297.146 134.815 297.628C134.482 298.098 133.993 298.469 133.351 298.74C132.72 299.012 131.985 299.148 131.145 299.148ZM140.444 285.281V299H137.274V285.281H140.444ZM147.45 299.148C146.437 299.148 145.522 298.932 144.706 298.499C143.903 298.067 143.266 297.449 142.797 296.646C142.34 295.842 142.111 294.903 142.111 293.828C142.111 292.765 142.346 291.832 142.815 291.028C143.285 290.213 143.928 289.589 144.743 289.156C145.559 288.723 146.474 288.507 147.487 288.507C148.501 288.507 149.415 288.723 150.231 289.156C151.047 289.589 151.689 290.213 152.159 291.028C152.629 291.832 152.863 292.765 152.863 293.828C152.863 294.891 152.622 295.83 152.14 296.646C151.671 297.449 151.022 298.067 150.194 298.499C149.378 298.932 148.464 299.148 147.45 299.148ZM147.45 296.405C148.056 296.405 148.569 296.182 148.989 295.737C149.421 295.292 149.638 294.656 149.638 293.828C149.638 293 149.428 292.363 149.007 291.918C148.599 291.473 148.093 291.251 147.487 291.251C146.869 291.251 146.356 291.473 145.948 291.918C145.541 292.351 145.337 292.987 145.337 293.828C145.337 294.656 145.534 295.292 145.93 295.737C146.338 296.182 146.844 296.405 147.45 296.405ZM160.311 296.312V299H158.698C157.548 299 156.652 298.722 156.01 298.166C155.367 297.597 155.046 296.676 155.046 295.403V291.288H153.785V288.655H155.046V286.134H158.216V288.655H160.292V291.288H158.216V295.441C158.216 295.75 158.29 295.972 158.438 296.108C158.587 296.244 158.834 296.312 159.18 296.312H160.311Z" fill="#EA8933"/>
</g>
<defs>
<linearGradient id="paint0_linear_1474_16956" x1="113.983" y1="0" x2="113.983" y2="402.012" gradientUnits="userSpaceOnUse">
<stop stop-color="#4E39B7"/>
<stop offset="1" stop-color="#322477"/>
</linearGradient>
<linearGradient id="paint1_linear_1474_16956" x1="59.5253" y1="43.8902" x2="89.5" y2="209.163" gradientUnits="userSpaceOnUse">
<stop stop-color="#B9A5FF"/>
<stop offset="1" stop-color="#F9F7ED"/>
</linearGradient>
<linearGradient id="paint2_linear_1474_16956" x1="75.5265" y1="117.686" x2="103.138" y2="203.08" gradientUnits="userSpaceOnUse">
<stop stop-color="#B9A5FF"/>
<stop offset="1" stop-color="#F9F7ED"/>
</linearGradient>
<linearGradient id="paint3_linear_1474_16956" x1="182.39" y1="342.607" x2="113.16" y2="73.9924" gradientUnits="userSpaceOnUse">
<stop stop-color="#B9A5FF"/>
<stop offset="1" stop-color="#F9F7ED"/>
</linearGradient>
<linearGradient id="paint4_linear_1474_16956" x1="102.338" y1="66.6471" x2="117.134" y2="145.923" gradientUnits="userSpaceOnUse">
<stop stop-color="#FF998B"/>
<stop offset="1" stop-color="#FF4B6B"/>
</linearGradient>
<linearGradient id="paint5_linear_1474_16956" x1="62.7926" y1="74.6988" x2="62.9432" y2="118.925" gradientUnits="userSpaceOnUse">
<stop stop-color="#FF998B"/>
<stop offset="1" stop-color="#FF4B6B"/>
</linearGradient>
<linearGradient id="paint6_linear_1474_16956" x1="61.7034" y1="87.8041" x2="76.0941" y2="111.835" gradientUnits="userSpaceOnUse">
<stop stop-color="#6D5EB7"/>
<stop offset="1" stop-color="#453777"/>
</linearGradient>
<linearGradient id="paint7_linear_1474_16956" x1="81.254" y1="77.4043" x2="92.8648" y2="102.888" gradientUnits="userSpaceOnUse">
<stop stop-color="#6D5EB7"/>
<stop offset="1" stop-color="#453777"/>
</linearGradient>
<linearGradient id="paint8_linear_1474_16956" x1="101.914" y1="67.3271" x2="113.537" y2="92.8007" gradientUnits="userSpaceOnUse">
<stop stop-color="#6D5EB7"/>
<stop offset="1" stop-color="#453777"/>
</linearGradient>
<linearGradient id="paint9_linear_1474_16956" x1="121.116" y1="58.7074" x2="132.727" y2="84.1913" gradientUnits="userSpaceOnUse">
<stop stop-color="#6D5EB7"/>
<stop offset="1" stop-color="#453777"/>
</linearGradient>
<linearGradient id="paint10_linear_1474_16956" x1="139.082" y1="51.022" x2="150.704" y2="76.5071" gradientUnits="userSpaceOnUse">
<stop stop-color="#6D5EB7"/>
<stop offset="1" stop-color="#453777"/>
</linearGradient>
<linearGradient id="paint11_linear_1474_16956" x1="96.1549" y1="119.471" x2="94.0303" y2="108.94" gradientUnits="userSpaceOnUse">
<stop stop-color="#6D5EB7"/>
<stop offset="1" stop-color="#453777"/>
</linearGradient>
<linearGradient id="paint12_linear_1474_16956" x1="88.7234" y1="128.169" x2="138.055" y2="184.76" gradientUnits="userSpaceOnUse">
<stop stop-color="#6D5EB7"/>
<stop offset="1" stop-color="#453777"/>
</linearGradient>
<linearGradient id="paint13_linear_1474_16956" x1="101.682" y1="116.872" x2="151.002" y2="173.463" gradientUnits="userSpaceOnUse">
<stop stop-color="#6D5EB7"/>
<stop offset="1" stop-color="#453777"/>
</linearGradient>
<linearGradient id="paint14_linear_1474_16956" x1="117.152" y1="107.331" x2="166.694" y2="164.337" gradientUnits="userSpaceOnUse">
<stop stop-color="#6D5EB7"/>
<stop offset="1" stop-color="#453777"/>
</linearGradient>
<linearGradient id="paint15_linear_1474_16956" x1="130.214" y1="95.9825" x2="179.756" y2="152.988" gradientUnits="userSpaceOnUse">
<stop stop-color="#6D5EB7"/>
<stop offset="1" stop-color="#453777"/>
</linearGradient>
<linearGradient id="paint16_linear_1474_16956" x1="140.572" y1="82.9707" x2="189.903" y2="139.55" gradientUnits="userSpaceOnUse">
<stop stop-color="#6D5EB7"/>
<stop offset="1" stop-color="#453777"/>
</linearGradient>
<linearGradient id="paint17_linear_1474_16956" x1="96.6967" y1="141.173" x2="146.016" y2="197.753" gradientUnits="userSpaceOnUse">
<stop stop-color="#6D5EB7"/>
<stop offset="1" stop-color="#453777"/>
</linearGradient>
<linearGradient id="paint18_linear_1474_16956" x1="109.666" y1="129.871" x2="158.997" y2="186.45" gradientUnits="userSpaceOnUse">
<stop stop-color="#6D5EB7"/>
<stop offset="1" stop-color="#453777"/>
</linearGradient>
<linearGradient id="paint19_linear_1474_16956" x1="122.624" y1="118.563" x2="171.944" y2="175.143" gradientUnits="userSpaceOnUse">
<stop stop-color="#6D5EB7"/>
<stop offset="1" stop-color="#453777"/>
</linearGradient>
<linearGradient id="paint20_linear_1474_16956" x1="146.345" y1="145.553" x2="145.464" y2="104.432" gradientUnits="userSpaceOnUse">
<stop stop-color="#51C991"/>
<stop offset="1" stop-color="#C5FFC3"/>
</linearGradient>
<linearGradient id="paint21_linear_1474_16956" x1="151.283" y1="97.7144" x2="200.838" y2="154.731" gradientUnits="userSpaceOnUse">
<stop stop-color="#6D5EB7"/>
<stop offset="1" stop-color="#453777"/>
</linearGradient>
<linearGradient id="paint22_linear_1474_16956" x1="103.918" y1="154.249" x2="153.238" y2="210.841" gradientUnits="userSpaceOnUse">
<stop stop-color="#6D5EB7"/>
<stop offset="1" stop-color="#453777"/>
</linearGradient>
<linearGradient id="paint23_linear_1474_16956" x1="116.893" y1="142.958" x2="166.213" y2="199.549" gradientUnits="userSpaceOnUse">
<stop stop-color="#6D5EB7"/>
<stop offset="1" stop-color="#453777"/>
</linearGradient>
<linearGradient id="paint24_linear_1474_16956" x1="132.397" y1="133.607" x2="181.939" y2="190.625" gradientUnits="userSpaceOnUse">
<stop stop-color="#6D5EB7"/>
<stop offset="1" stop-color="#453777"/>
</linearGradient>
<linearGradient id="paint25_linear_1474_16956" x1="145.463" y1="122.255" x2="195.017" y2="179.26" gradientUnits="userSpaceOnUse">
<stop stop-color="#6D5EB7"/>
<stop offset="1" stop-color="#453777"/>
</linearGradient>
<linearGradient id="paint26_linear_1474_16956" x1="155.779" y1="109.063" x2="205.098" y2="165.643" gradientUnits="userSpaceOnUse">
<stop stop-color="#6D5EB7"/>
<stop offset="1" stop-color="#453777"/>
</linearGradient>
<linearGradient id="paint27_linear_1474_16956" x1="100.924" y1="82.6018" x2="96.9386" y2="52.5691" gradientUnits="userSpaceOnUse">
<stop stop-color="#7BB8EF"/>
<stop offset="1" stop-color="#E3FBFF"/>
</linearGradient>
<linearGradient id="paint28_linear_1474_16956" x1="39.179" y1="167.011" x2="37.105" y2="106.957" gradientUnits="userSpaceOnUse">
<stop stop-color="#7BB8EF"/>
<stop offset="1" stop-color="#E3FBFF"/>
</linearGradient>
<clipPath id="clip0_1474_16956">
<rect width="226.114" height="402" fill="white" transform="translate(0.942932)"/>
</clipPath>
</defs>
</svg>
