<svg width="227" height="402" viewBox="0 0 227 402" fill="none" xmlns="http://www.w3.org/2000/svg">
<g clip-path="url(#clip0_1474_16530)">
<path d="M226.114 18.6546V383.357C226.116 385.805 225.635 388.23 224.699 390.492C223.764 392.755 222.392 394.811 220.662 396.543C218.932 398.275 216.877 399.65 214.616 400.588C212.355 401.526 209.931 402.01 207.483 402.012H18.6198C16.1716 402.01 13.7476 401.526 11.4863 400.588C9.22503 399.65 7.1707 398.275 5.44061 396.543C3.71053 394.811 2.33858 392.755 1.40308 390.492C0.467593 388.23 -0.0131151 385.805 -0.0115931 383.357V18.6546C-0.0131151 16.2063 0.467593 13.7818 1.40308 11.5193C2.33858 9.25687 3.71053 7.20083 5.44061 5.4686C7.1707 3.73636 9.22503 2.36185 11.4863 1.42355C13.7476 0.485246 16.1716 0.00152111 18.6198 0H207.483C209.931 0.00152111 212.355 0.485246 214.616 1.42355C216.877 2.36185 218.932 3.73636 220.662 5.4686C222.392 7.20083 223.764 9.25687 224.699 11.5193C225.635 13.7818 226.116 16.2063 226.114 18.6546Z" fill="url(#paint0_linear_1474_16530)"/>
<path d="M153.929 148.054L129.11 153.685L104.419 159.293L103.11 160.44L63.7963 194.795L33.6246 117.882L77.596 81.0018L78.9401 80.6889L104.755 74.687L134.406 67.793L153.929 148.054Z" fill="url(#paint1_linear_1474_16530)"/>
<path d="M40.5418 119.644L80.2725 86.3326L130.13 74.7344L146.908 143.71L101.719 153.976L66.1831 185.016L40.5418 119.644Z" fill="white"/>
<mask id="mask0_1474_16530" style="mask-type:luminance" maskUnits="userSpaceOnUse" x="40" y="74" width="107" height="112">
<path d="M40.5419 119.643L80.2726 86.3317L130.13 74.7334L146.908 143.72L101.72 153.975L66.1948 185.027L40.5419 119.643Z" fill="white"/>
</mask>
<g mask="url(#mask0_1474_16530)">
<path d="M30.0558 153.302L29.4997 152.283L66.3801 132.296L76.924 72.6475L97.7684 71.8828L97.9538 72.0798L124.904 101.533L158.471 110.513L158.17 111.637L124.279 102.576L124.163 102.448L97.2818 73.0647L77.8973 73.7714L67.4229 133.049L30.0558 153.302Z" fill="#EAEAEA"/>
<path d="M156.281 160.625L98.904 137.695L40.7389 159.64L40.3333 158.562L98.9156 136.455L99.1242 136.536L156.71 159.547L156.281 160.625Z" fill="#EAEAEA"/>
<path d="M156.189 154.866L111.105 127.337L119.737 114.278L160.163 122.632L159.931 123.779L120.27 115.564L112.738 126.966L156.791 153.87L156.189 154.866Z" fill="#D3D1D3"/>
<path d="M33.4392 135.192L33.0337 134.103L51.3059 127.267C53.0357 126.622 54.5652 125.533 55.7408 124.109C56.9163 122.685 57.6965 120.977 58.003 119.156L64.4104 82.0791L65.5691 82.2761L58.0146 125.993L33.4392 135.192Z" fill="#D3D1D3"/>
<path d="M73.344 146.925L72.1855 146.947L72.9416 186.323L74.1001 186.301L73.344 146.925Z" fill="#EAEAEA"/>
<path d="M87.1193 141.689L85.9651 141.79L89.2744 179.464L90.4286 179.363L87.1193 141.689Z" fill="#EAEAEA"/>
<path d="M98.3478 137.22L93.4003 118.067L119.03 95.9482L119.795 96.8288L94.698 118.473L99.4601 136.93L98.3478 137.22Z" fill="#EAEAEA"/>
<path d="M81.1126 65.4831L79.9901 65.7705L93.4705 118.425L94.5929 118.138L81.1126 65.4831Z" fill="#EAEAEA"/>
<path d="M133.788 117.572L123.256 134.066L124.233 134.69L134.765 118.196L133.788 117.572Z" fill="#D3D1D3"/>
<path d="M146.409 120.191L134.194 140.765L135.19 141.356L147.405 120.783L146.409 120.191Z" fill="#D3D1D3"/>
<path d="M87.6271 155.325L72.8599 159.523L73.1768 160.638L87.944 156.44L87.6271 155.325Z" fill="#EAEAEA"/>
<path d="M90.3468 72.5128L89.3057 73.0215L106.203 107.605L107.244 107.096L90.3468 72.5128Z" fill="#D3D1D3"/>
<path d="M77.5034 85.7411L70.1111 131.288L92.8673 134.648L82.335 83.7598L77.5034 85.7411Z" fill="#F2F2F2"/>
<path d="M109.946 71.7324L119.412 90.0394L141.601 86.8183L138.936 67.793" fill="#F2F2F2"/>
<path d="M148.402 90.0391L123.746 92.8894L127.848 98.3583L153.929 104.719" fill="#F2F2F2"/>
<path d="M120.849 117.871L115.519 126.712L122.622 131.288L129.724 120.49L120.849 117.871Z" fill="#D3D1D3"/>
<path d="M135.634 120.489L127.998 133.756L133.664 137.603L142.887 122.413L135.634 120.489Z" fill="#D3D1D3"/>
<path d="M92.2996 165.805L90.7238 146.189L99.3443 141.994L105.763 162.306" fill="#F2F2F2"/>
<path d="M107.385 157.995L101.963 143.327L103.342 142.435L124.441 152.793V162.85" fill="#F2F2F2"/>
<path d="M53.1481 159.942L65.5111 155.018C65.8928 154.863 66.3066 154.803 66.7164 154.845C67.1263 154.887 67.5197 155.028 67.8624 155.256C68.2052 155.485 68.4869 155.794 68.6829 156.156C68.8789 156.518 68.9834 156.923 68.9871 157.335V158.343C68.9976 158.822 68.8713 159.295 68.623 159.705C68.3747 160.116 68.0147 160.447 67.5851 160.66L55.7551 166.558" fill="url(#paint2_linear_1474_16530)"/>
<path d="M53.1481 169.165L65.5111 164.229C65.8928 164.075 66.3066 164.015 66.7164 164.057C67.1263 164.098 67.5197 164.24 67.8624 164.468C68.2052 164.697 68.4869 165.006 68.6829 165.368C68.8789 165.73 68.9834 166.135 68.9871 166.547V167.566C68.999 168.046 68.8733 168.519 68.6248 168.93C68.3764 169.341 68.0156 169.672 67.5851 169.884L55.7551 175.781" fill="url(#paint3_linear_1474_16530)"/>
<path d="M53.1481 178.423L65.5111 173.499C65.8928 173.344 66.3066 173.285 66.7164 173.326C67.1263 173.368 67.5197 173.509 67.8624 173.738C68.2052 173.966 68.4869 174.275 68.6829 174.637C68.8789 175 68.9834 175.404 68.9871 175.816V176.824C69.0019 177.305 68.8773 177.779 68.6286 178.19C68.3798 178.601 68.0174 178.932 67.5851 179.142L55.7551 185.051" fill="url(#paint4_linear_1474_16530)"/>
<path d="M39.9857 126.851L49.6605 124.151C50.5137 123.91 51.2545 123.376 51.7526 122.643C52.2507 121.909 52.474 121.024 52.3834 120.142L51.1436 107.895C51.0911 107.359 50.924 106.841 50.6534 106.375C50.3829 105.909 50.0153 105.507 49.5757 105.196C49.136 104.885 48.6346 104.672 48.1055 104.572C47.5763 104.472 47.0319 104.487 46.509 104.616C39.557 106.342 26.4293 109.621 25.931 109.842" fill="url(#paint5_linear_1474_16530)"/>
</g>
<path d="M145.876 149.885L104.431 159.293L103.121 160.452L78.9517 80.7009L118.138 71.5938C123.456 89.3445 137.928 125.402 145.876 149.885Z" fill="url(#paint6_linear_1474_16530)"/>
<path d="M130.165 66.9942C130.17 69.3276 129.713 71.6388 128.82 73.7946C127.927 75.9503 126.616 77.9078 124.962 79.5542L121.011 83.5052L112.414 92.091L99.8656 79.5426C96.9069 76.5032 95.1344 72.5048 94.8691 68.2715C94.6037 64.0381 95.863 59.8497 98.419 56.4646C100.975 53.0795 104.659 50.7216 108.803 49.8178C112.947 48.914 117.278 49.5241 121.011 51.5376C122.464 52.3312 123.795 53.3302 124.962 54.5038C126.609 56.1411 127.915 58.0872 128.808 60.2306C129.701 62.3739 130.162 64.6724 130.165 66.9942Z" fill="url(#paint7_linear_1474_16530)"/>
<path d="M130.165 66.9941C130.17 69.3274 129.713 71.6387 128.82 73.7944C127.927 75.9501 126.616 77.9077 124.962 79.554L121.011 83.5051L117.06 79.554C113.733 76.2234 111.864 71.7079 111.864 66.9999C111.864 62.2918 113.733 57.7763 117.06 54.4457C118.228 53.2722 119.559 52.2731 121.011 51.4795C122.464 52.2731 123.795 53.2722 124.962 54.4457C126.616 56.0899 127.927 58.0454 128.819 60.1992C129.712 62.353 130.17 64.6625 130.165 66.9941Z" fill="url(#paint8_linear_1474_16530)"/>
<path d="M118.532 67.399C118.532 68.609 118.173 69.7918 117.501 70.7979C116.829 71.8039 115.873 72.5881 114.755 73.0511C113.637 73.5141 112.407 73.6353 111.22 73.3992C110.034 73.1632 108.944 72.5805 108.088 71.7249C107.233 70.8693 106.65 69.7793 106.414 68.5925C106.178 67.4058 106.299 66.1757 106.762 65.0578C107.225 63.94 108.009 62.9845 109.015 62.3123C110.021 61.64 111.204 61.2812 112.414 61.2812C114.036 61.2843 115.59 61.9298 116.737 63.0765C117.883 64.2231 118.529 65.7774 118.532 67.399Z" fill="white"/>
<path d="M185.053 110.678L160.341 99.2178C157.532 97.9147 154.197 99.1361 152.894 101.946L127.409 156.899C126.106 159.709 127.328 163.043 130.137 164.346L154.85 175.807C157.659 177.11 160.993 175.888 162.296 173.078L187.782 118.125C189.085 115.315 187.863 111.981 185.053 110.678Z" fill="url(#paint9_linear_1474_16530)"/>
<path d="M183.172 109.807L158.459 98.3467C155.65 97.0436 152.316 98.265 151.013 101.075L125.527 156.028C124.224 158.838 125.446 162.172 128.256 163.475L152.968 174.935C155.777 176.238 159.111 175.017 160.415 172.207L185.9 117.254C187.203 114.444 185.981 111.11 183.172 109.807Z" fill="url(#paint10_linear_1474_16530)"/>
<path d="M181.378 120.154L159.711 166.883C159.448 167.451 159.075 167.961 158.615 168.385C158.155 168.809 157.615 169.138 157.028 169.353C156.44 169.568 155.816 169.665 155.191 169.639C154.566 169.613 153.952 169.464 153.385 169.201L132.366 159.445C131.799 159.182 131.288 158.809 130.864 158.349C130.441 157.889 130.112 157.349 129.897 156.762C129.681 156.174 129.584 155.55 129.61 154.925C129.636 154.3 129.785 153.686 130.049 153.118L151.716 106.389C152.25 105.245 153.215 104.358 154.401 103.924C155.586 103.49 156.896 103.543 158.042 104.072L179.061 113.828C179.63 114.088 180.143 114.459 180.568 114.919C180.994 115.379 181.324 115.919 181.539 116.507C181.755 117.096 181.852 117.721 181.824 118.347C181.796 118.973 181.645 119.587 181.378 120.154Z" fill="url(#paint11_linear_1474_16530)"/>
<path d="M165.365 107.502L161.113 116.678C160.579 117.826 159.612 118.714 158.424 119.149C157.235 119.583 155.923 119.528 154.775 118.996L147.417 115.589L151.681 106.401C152.215 105.257 153.18 104.37 154.366 103.936C155.552 103.501 156.861 103.555 158.008 104.084L165.365 107.502Z" fill="url(#paint12_linear_1474_16530)"/>
<path d="M175.191 133.513L159.711 166.882C159.448 167.45 159.075 167.96 158.615 168.384C158.155 168.808 157.615 169.137 157.028 169.352C156.44 169.567 155.816 169.664 155.191 169.638C154.566 169.612 153.952 169.463 153.385 169.2L145.726 165.643L161.194 132.273C161.457 131.705 161.829 131.195 162.29 130.771C162.75 130.347 163.289 130.018 163.877 129.803C164.464 129.588 165.089 129.491 165.714 129.517C166.339 129.543 166.953 129.692 167.52 129.956L175.191 133.513Z" fill="url(#paint13_linear_1474_16530)"/>
<path d="M152.967 134.277L154.3 137.927L161.02 135.471" stroke="white" stroke-width="2.31734" stroke-linecap="round" stroke-linejoin="round"/>
<path d="M161.862 142.763C165.618 139.544 166.054 133.89 162.836 130.134C159.617 126.377 153.963 125.941 150.207 129.16C146.451 132.378 146.015 138.032 149.233 141.789C152.451 145.545 158.106 145.981 161.862 142.763Z" stroke="white" stroke-width="2.31734" stroke-linecap="round" stroke-linejoin="round"/>
<path d="M165.249 104.593C165.192 104.719 165.099 104.825 164.982 104.898C164.865 104.97 164.728 105.006 164.591 105.001C164.453 104.996 164.319 104.95 164.208 104.869C164.096 104.788 164.011 104.676 163.963 104.546C163.916 104.417 163.908 104.276 163.941 104.142C163.973 104.008 164.045 103.886 164.147 103.793C164.249 103.7 164.376 103.64 164.513 103.619C164.649 103.599 164.789 103.619 164.913 103.678C164.996 103.716 165.07 103.769 165.132 103.836C165.194 103.902 165.242 103.98 165.273 104.065C165.304 104.151 165.318 104.241 165.314 104.332C165.31 104.422 165.288 104.511 165.249 104.593Z" fill="url(#paint14_linear_1474_16530)"/>
<path d="M174.148 109.471L166.617 105.995C166.452 105.917 166.324 105.777 166.261 105.606C166.198 105.435 166.205 105.246 166.281 105.08C166.318 104.997 166.371 104.922 166.438 104.861C166.504 104.799 166.583 104.751 166.668 104.72C166.753 104.688 166.844 104.674 166.934 104.678C167.025 104.683 167.114 104.705 167.196 104.743L174.727 108.219C174.81 108.257 174.884 108.31 174.946 108.377C175.008 108.443 175.056 108.522 175.087 108.607C175.118 108.692 175.132 108.783 175.128 108.873C175.124 108.964 175.102 109.053 175.063 109.135C175.026 109.218 174.972 109.292 174.906 109.354C174.839 109.416 174.761 109.463 174.676 109.495C174.591 109.526 174.5 109.54 174.41 109.536C174.319 109.532 174.23 109.51 174.148 109.471Z" fill="url(#paint15_linear_1474_16530)"/>
<path d="M68.176 63.8188C68.176 64.6077 67.9419 65.3787 67.5035 66.0344C67.065 66.6901 66.4418 67.201 65.7128 67.5024C64.9838 67.8037 64.1818 67.8819 63.4083 67.7272C62.6348 67.5725 61.9246 67.1917 61.3677 66.6331C60.8107 66.0745 60.432 65.3632 60.2795 64.5893C60.1271 63.8154 60.2076 63.0136 60.5111 62.2855C60.8146 61.5574 61.3272 60.9357 61.9842 60.4991C62.6412 60.0625 63.413 59.8307 64.2018 59.833C65.2569 59.8361 66.2677 60.2574 67.0127 61.0045C67.7577 61.7517 68.176 62.7637 68.176 63.8188Z" fill="#ED510C"/>
<path d="M192.478 160.452C192.48 161.241 192.248 162.013 191.811 162.671C191.374 163.328 190.752 163.84 190.023 164.144C189.294 164.447 188.492 164.527 187.717 164.373C186.943 164.22 186.232 163.84 185.674 163.282C185.116 162.724 184.736 162.012 184.582 161.238C184.429 160.464 184.509 159.661 184.812 158.933C185.115 158.204 185.628 157.582 186.285 157.144C186.942 156.707 187.714 156.475 188.504 156.478C189.557 156.481 190.566 156.9 191.311 157.645C192.055 158.39 192.475 159.399 192.478 160.452Z" fill="url(#paint16_linear_1474_16530)"/>
<path d="M107.571 175.342L108.509 173.163C108.58 173.023 108.621 172.869 108.63 172.712C108.64 172.555 108.617 172.398 108.563 172.25C108.51 172.102 108.427 171.967 108.319 171.852C108.212 171.737 108.082 171.645 107.938 171.582C107.794 171.519 107.638 171.486 107.481 171.485C107.324 171.484 107.168 171.515 107.023 171.577C106.878 171.638 106.747 171.728 106.638 171.841C106.529 171.955 106.444 172.089 106.389 172.236L105.439 174.415L103.272 173.476C103.132 173.406 102.978 173.365 102.821 173.355C102.664 173.346 102.507 173.369 102.359 173.422C102.211 173.476 102.075 173.559 101.961 173.666C101.846 173.774 101.754 173.904 101.691 174.048C101.628 174.192 101.595 174.347 101.594 174.505C101.593 174.662 101.624 174.818 101.685 174.963C101.747 175.108 101.837 175.239 101.95 175.348C102.064 175.457 102.198 175.541 102.345 175.597L104.524 176.535L103.573 178.713C103.512 178.853 103.479 179.004 103.476 179.157C103.473 179.31 103.5 179.461 103.556 179.603C103.612 179.746 103.696 179.875 103.802 179.985C103.909 180.095 104.036 180.182 104.176 180.243C104.317 180.302 104.469 180.332 104.622 180.332C104.775 180.332 104.927 180.302 105.068 180.243C105.353 180.131 105.583 179.91 105.705 179.629L106.644 177.45L108.822 178.389C108.962 178.45 109.113 178.483 109.266 178.486C109.418 178.489 109.57 178.462 109.712 178.406C109.854 178.35 109.984 178.266 110.094 178.16C110.204 178.054 110.291 177.927 110.352 177.786C110.472 177.505 110.476 177.188 110.363 176.903C110.25 176.619 110.03 176.391 109.749 176.269L107.571 175.342Z" fill="#ED510C"/>
<path d="M159.862 82.4042L162.04 81.4773C162.18 81.4172 162.307 81.3301 162.413 81.221C162.519 81.1119 162.603 80.983 162.66 80.8415C162.716 80.7 162.744 80.5488 162.742 80.3964C162.74 80.2441 162.708 80.0936 162.648 79.9537C162.588 79.8137 162.501 79.6869 162.392 79.5806C162.283 79.4742 162.154 79.3904 162.012 79.334C161.871 79.2775 161.72 79.2494 161.567 79.2514C161.415 79.2533 161.264 79.2853 161.124 79.3454L158.946 80.2723L158.019 78.094C157.898 77.8113 157.669 77.5884 157.383 77.4743C157.098 77.3602 156.778 77.3643 156.496 77.4857C156.213 77.6071 155.99 77.8358 155.876 78.1215C155.762 78.4073 155.766 78.7266 155.887 79.0094L156.814 81.1876L154.636 82.1146C154.496 82.1751 154.369 82.2627 154.262 82.3724C154.156 82.4821 154.072 82.6118 154.016 82.754C153.96 82.8961 153.933 83.0479 153.936 83.2007C153.939 83.3534 153.972 83.5041 154.033 83.644C154.154 83.9228 154.378 84.1433 154.659 84.2581C154.8 84.3171 154.952 84.3474 155.105 84.3474C155.258 84.3474 155.41 84.3171 155.551 84.2581L157.73 83.3312L158.668 85.5095C158.724 85.6496 158.809 85.7766 158.916 85.8823C159.024 85.988 159.153 86.0702 159.294 86.1236C159.435 86.1825 159.587 86.2129 159.74 86.2129C159.893 86.2129 160.045 86.1825 160.186 86.1236C160.326 86.0631 160.453 85.9755 160.56 85.8658C160.666 85.756 160.749 85.6264 160.805 85.4842C160.861 85.3421 160.889 85.1902 160.886 85.0375C160.883 84.8847 160.85 84.734 160.788 84.5941L159.862 82.4042Z" fill="url(#paint17_linear_1474_16530)"/>
<path d="M56.1255 264.986V267.526H50.8234V270.269H54.7907V272.735H50.8234V278H47.6533V264.986H56.1255ZM59.386 266.58C58.8298 266.58 58.3725 266.419 58.0141 266.098C57.6681 265.764 57.4951 265.357 57.4951 264.875C57.4951 264.38 57.6681 263.972 58.0141 263.651C58.3725 263.317 58.8298 263.151 59.386 263.151C59.9298 263.151 60.3747 263.317 60.7208 263.651C61.0792 263.972 61.2584 264.38 61.2584 264.875C61.2584 265.357 61.0792 265.764 60.7208 266.098C60.3747 266.419 59.9298 266.58 59.386 266.58ZM60.9618 267.655V278H57.7917V267.655H60.9618ZM69.5623 267.544C70.7735 267.544 71.7375 267.94 72.4543 268.731C73.1835 269.509 73.5481 270.585 73.5481 271.956V278H70.3965V272.383C70.3965 271.691 70.2173 271.153 69.8589 270.77C69.5005 270.387 69.0185 270.195 68.4129 270.195C67.8073 270.195 67.3253 270.387 66.9669 270.77C66.6085 271.153 66.4293 271.691 66.4293 272.383V278H63.2591V267.655H66.4293V269.027C66.7506 268.57 67.1832 268.212 67.727 267.952C68.2708 267.68 68.8825 267.544 69.5623 267.544ZM75.1207 272.809C75.1207 271.746 75.3185 270.813 75.714 270.01C76.1218 269.206 76.6718 268.589 77.3639 268.156C78.056 267.723 78.8285 267.507 79.6812 267.507C80.361 267.507 80.9789 267.649 81.5351 267.933C82.1036 268.218 82.5486 268.601 82.8699 269.083V264.281H86.04V278H82.8699V276.517C82.5733 277.011 82.1469 277.407 81.5907 277.703C81.0469 278 80.4104 278.148 79.6812 278.148C78.8285 278.148 78.056 277.932 77.3639 277.499C76.6718 277.055 76.1218 276.43 75.714 275.627C75.3185 274.811 75.1207 273.872 75.1207 272.809ZM82.8699 272.828C82.8699 272.037 82.6474 271.413 82.2025 270.955C81.7699 270.498 81.2385 270.269 80.6082 270.269C79.9779 270.269 79.4402 270.498 78.9953 270.955C78.5627 271.4 78.3464 272.018 78.3464 272.809C78.3464 273.6 78.5627 274.23 78.9953 274.7C79.4402 275.157 79.9779 275.386 80.6082 275.386C81.2385 275.386 81.7699 275.157 82.2025 274.7C82.6474 274.243 82.8699 273.619 82.8699 272.828ZM100.363 275.701H95.5063L94.7277 278H91.4093L96.1181 264.986H99.7888L104.498 278H101.142L100.363 275.701ZM99.5478 273.254L97.9349 268.49L96.3406 273.254H99.5478ZM114.568 278.13C113.617 278.13 112.764 277.975 112.01 277.666C111.256 277.357 110.65 276.9 110.193 276.294C109.748 275.689 109.513 274.96 109.489 274.107H112.863C112.912 274.589 113.079 274.96 113.363 275.219C113.647 275.466 114.018 275.59 114.475 275.59C114.945 275.59 115.316 275.485 115.588 275.275C115.86 275.052 115.996 274.75 115.996 274.366C115.996 274.045 115.884 273.779 115.662 273.569C115.452 273.359 115.186 273.186 114.865 273.05C114.556 272.914 114.111 272.76 113.53 272.587C112.69 272.327 112.004 272.068 111.472 271.808C110.941 271.549 110.483 271.165 110.1 270.659C109.717 270.152 109.526 269.491 109.526 268.675C109.526 267.464 109.964 266.518 110.842 265.839C111.719 265.147 112.863 264.8 114.272 264.8C115.705 264.8 116.861 265.147 117.738 265.839C118.616 266.518 119.085 267.47 119.147 268.694H115.718C115.693 268.273 115.538 267.946 115.254 267.711C114.97 267.464 114.605 267.34 114.16 267.34C113.777 267.34 113.468 267.445 113.233 267.655C112.999 267.853 112.881 268.144 112.881 268.527C112.881 268.947 113.079 269.274 113.474 269.509C113.87 269.744 114.488 269.997 115.328 270.269C116.169 270.554 116.848 270.826 117.368 271.085C117.899 271.345 118.356 271.722 118.739 272.216C119.122 272.71 119.314 273.347 119.314 274.125C119.314 274.867 119.122 275.541 118.739 276.146C118.369 276.752 117.825 277.234 117.108 277.592C116.391 277.951 115.545 278.13 114.568 278.13ZM131.016 272.661C131.016 272.957 130.998 273.266 130.961 273.588H123.786C123.836 274.23 124.04 274.725 124.398 275.071C124.769 275.405 125.22 275.571 125.751 275.571C126.542 275.571 127.092 275.238 127.401 274.57H130.775C130.602 275.25 130.287 275.862 129.83 276.406C129.385 276.949 128.823 277.376 128.143 277.685C127.463 277.994 126.703 278.148 125.863 278.148C124.849 278.148 123.947 277.932 123.156 277.499C122.365 277.067 121.747 276.449 121.302 275.646C120.857 274.842 120.635 273.903 120.635 272.828C120.635 271.752 120.851 270.813 121.284 270.01C121.728 269.206 122.346 268.589 123.137 268.156C123.928 267.723 124.837 267.507 125.863 267.507C126.864 267.507 127.754 267.717 128.532 268.137C129.311 268.558 129.916 269.157 130.349 269.936C130.794 270.714 131.016 271.623 131.016 272.661ZM127.772 271.827C127.772 271.283 127.587 270.85 127.216 270.529C126.845 270.208 126.382 270.047 125.825 270.047C125.294 270.047 124.843 270.201 124.472 270.51C124.114 270.819 123.891 271.258 123.805 271.827H127.772ZM135.859 269.38C136.23 268.811 136.693 268.366 137.249 268.045C137.805 267.711 138.423 267.544 139.103 267.544V270.9H138.232C137.441 270.9 136.848 271.073 136.452 271.419C136.057 271.752 135.859 272.346 135.859 273.198V278H132.689V267.655H135.859V269.38ZM145.272 275.034L147.515 267.655H150.889L147.218 278H143.306L139.636 267.655H143.028L145.272 275.034ZM153.817 266.58C153.261 266.58 152.804 266.419 152.446 266.098C152.1 265.764 151.927 265.357 151.927 264.875C151.927 264.38 152.1 263.972 152.446 263.651C152.804 263.317 153.261 263.151 153.817 263.151C154.361 263.151 154.806 263.317 155.152 263.651C155.511 263.972 155.69 264.38 155.69 264.875C155.69 265.357 155.511 265.764 155.152 266.098C154.806 266.419 154.361 266.58 153.817 266.58ZM155.393 267.655V278H152.223V267.655H155.393ZM157.06 272.828C157.06 271.752 157.277 270.813 157.709 270.01C158.154 269.206 158.766 268.589 159.544 268.156C160.335 267.723 161.238 267.507 162.251 267.507C163.549 267.507 164.63 267.847 165.495 268.527C166.373 269.206 166.948 270.164 167.22 271.4H163.845C163.561 270.609 163.011 270.214 162.196 270.214C161.615 270.214 161.151 270.442 160.805 270.9C160.459 271.345 160.286 271.987 160.286 272.828C160.286 273.668 160.459 274.317 160.805 274.774C161.151 275.219 161.615 275.442 162.196 275.442C163.011 275.442 163.561 275.046 163.845 274.255H167.22C166.948 275.466 166.373 276.418 165.495 277.11C164.618 277.802 163.536 278.148 162.251 278.148C161.238 278.148 160.335 277.932 159.544 277.499C158.766 277.067 158.154 276.449 157.709 275.646C157.277 274.842 157.06 273.903 157.06 272.828ZM178.667 272.661C178.667 272.957 178.648 273.266 178.611 273.588H171.436C171.486 274.23 171.69 274.725 172.048 275.071C172.419 275.405 172.87 275.571 173.402 275.571C174.193 275.571 174.743 275.238 175.052 274.57H178.426C178.253 275.25 177.937 275.862 177.48 276.406C177.035 276.949 176.473 277.376 175.793 277.685C175.113 277.994 174.353 278.148 173.513 278.148C172.499 278.148 171.597 277.932 170.806 277.499C170.015 277.067 169.397 276.449 168.952 275.646C168.507 274.842 168.285 273.903 168.285 272.828C168.285 271.752 168.501 270.813 168.934 270.01C169.379 269.206 169.997 268.589 170.788 268.156C171.579 267.723 172.487 267.507 173.513 267.507C174.514 267.507 175.404 267.717 176.182 268.137C176.961 268.558 177.567 269.157 177.999 269.936C178.444 270.714 178.667 271.623 178.667 272.661ZM175.422 271.827C175.422 271.283 175.237 270.85 174.866 270.529C174.495 270.208 174.032 270.047 173.476 270.047C172.944 270.047 172.493 270.201 172.122 270.51C171.764 270.819 171.542 271.258 171.455 271.827H175.422ZM82.7315 299H79.5614L74.2593 290.973V299H71.0892V285.986H74.2593L79.5614 294.05V285.986H82.7315V299ZM94.7808 293.661C94.7808 293.957 94.7622 294.266 94.7252 294.588H87.5507C87.6001 295.23 87.8041 295.725 88.1625 296.071C88.5332 296.405 88.9843 296.571 89.5158 296.571C90.3068 296.571 90.8568 296.238 91.1657 295.57H94.5398C94.3668 296.25 94.0516 296.862 93.5943 297.406C93.1494 297.949 92.587 298.376 91.9073 298.685C91.2275 298.994 90.4674 299.148 89.627 299.148C88.6136 299.148 87.7114 298.932 86.9204 298.499C86.1294 298.067 85.5114 297.449 85.0665 296.646C84.6216 295.842 84.3991 294.903 84.3991 293.828C84.3991 292.752 84.6154 291.813 85.048 291.01C85.4929 290.206 86.1109 289.589 86.9018 289.156C87.6928 288.723 88.6012 288.507 89.627 288.507C90.6281 288.507 91.518 288.717 92.2966 289.137C93.0752 289.558 93.6808 290.157 94.1134 290.936C94.5583 291.714 94.7808 292.623 94.7808 293.661ZM91.5365 292.827C91.5365 292.283 91.3511 291.85 90.9803 291.529C90.6096 291.208 90.1461 291.047 89.5899 291.047C89.0585 291.047 88.6074 291.201 88.2366 291.51C87.8782 291.819 87.6557 292.258 87.5692 292.827H91.5365ZM95.8229 293.809C95.8229 292.746 96.0206 291.813 96.4161 291.01C96.8239 290.206 97.3739 289.589 98.066 289.156C98.7582 288.723 99.5306 288.507 100.383 288.507C101.113 288.507 101.749 288.655 102.293 288.952C102.849 289.249 103.275 289.638 103.572 290.12V288.655H106.742V299H103.572V297.535C103.263 298.017 102.83 298.407 102.274 298.703C101.731 299 101.094 299.148 100.365 299.148C99.5244 299.148 98.7582 298.932 98.066 298.499C97.3739 298.055 96.8239 297.43 96.4161 296.627C96.0206 295.811 95.8229 294.872 95.8229 293.809ZM103.572 293.828C103.572 293.037 103.35 292.413 102.905 291.955C102.472 291.498 101.941 291.269 101.31 291.269C100.68 291.269 100.142 291.498 99.6974 291.955C99.2649 292.4 99.0486 293.018 99.0486 293.809C99.0486 294.6 99.2649 295.23 99.6974 295.7C100.142 296.157 100.68 296.386 101.31 296.386C101.941 296.386 102.472 296.157 102.905 295.7C103.35 295.243 103.572 294.619 103.572 293.828ZM112.206 290.38C112.576 289.811 113.04 289.366 113.596 289.045C114.152 288.711 114.77 288.544 115.45 288.544V291.9H114.579C113.788 291.9 113.194 292.073 112.799 292.419C112.403 292.752 112.206 293.346 112.206 294.198V299H109.036V288.655H112.206V290.38ZM131.461 288.655L124.972 303.913H121.561L123.934 298.648L119.726 288.655H123.267L125.658 295.125L128.031 288.655H131.461ZM137.316 299.148C136.303 299.148 135.388 298.932 134.572 298.499C133.769 298.067 133.133 297.449 132.663 296.646C132.206 295.842 131.977 294.903 131.977 293.828C131.977 292.765 132.212 291.832 132.681 291.028C133.151 290.213 133.794 289.589 134.609 289.156C135.425 288.723 136.34 288.507 137.353 288.507C138.367 288.507 139.281 288.723 140.097 289.156C140.913 289.589 141.555 290.213 142.025 291.028C142.495 291.832 142.729 292.765 142.729 293.828C142.729 294.891 142.488 295.83 142.006 296.646C141.537 297.449 140.888 298.067 140.06 298.499C139.244 298.932 138.33 299.148 137.316 299.148ZM137.316 296.405C137.922 296.405 138.435 296.182 138.855 295.737C139.287 295.292 139.504 294.656 139.504 293.828C139.504 293 139.294 292.363 138.873 291.918C138.465 291.473 137.959 291.251 137.353 291.251C136.735 291.251 136.222 291.473 135.814 291.918C135.407 292.351 135.203 292.987 135.203 293.828C135.203 294.656 135.4 295.292 135.796 295.737C136.204 296.182 136.71 296.405 137.316 296.405ZM154.626 288.655V299H151.456V297.591C151.135 298.048 150.696 298.419 150.14 298.703C149.596 298.975 148.99 299.111 148.323 299.111C147.532 299.111 146.834 298.938 146.228 298.592C145.622 298.234 145.153 297.721 144.819 297.053C144.485 296.386 144.318 295.601 144.318 294.699V288.655H147.47V294.273C147.47 294.965 147.649 295.502 148.008 295.885C148.366 296.269 148.848 296.46 149.454 296.46C150.072 296.46 150.56 296.269 150.918 295.885C151.277 295.502 151.456 294.965 151.456 294.273V288.655H154.626Z" fill="#EA8933"/>
</g>
<defs>
<linearGradient id="paint0_linear_1474_16530" x1="113.051" y1="0" x2="113.051" y2="402.012" gradientUnits="userSpaceOnUse">
<stop stop-color="#4E39B7"/>
<stop offset="1" stop-color="#322477"/>
</linearGradient>
<linearGradient id="paint1_linear_1474_16530" x1="60.8996" y1="216.207" x2="117.304" y2="73.4241" gradientUnits="userSpaceOnUse">
<stop stop-color="#B9A5FF"/>
<stop offset="1" stop-color="#C3F1FF"/>
</linearGradient>
<linearGradient id="paint2_linear_1474_16530" x1="38.9081" y1="161.668" x2="75.5104" y2="160.058" gradientUnits="userSpaceOnUse">
<stop stop-color="#51C991"/>
<stop offset="1" stop-color="#C5FFC3"/>
</linearGradient>
<linearGradient id="paint3_linear_1474_16530" x1="39.302" y1="170.857" x2="75.916" y2="169.247" gradientUnits="userSpaceOnUse">
<stop stop-color="#51C991"/>
<stop offset="1" stop-color="#C5FFC3"/>
</linearGradient>
<linearGradient id="paint4_linear_1474_16530" x1="39.7076" y1="180.115" x2="76.3215" y2="178.504" gradientUnits="userSpaceOnUse">
<stop stop-color="#51C991"/>
<stop offset="1" stop-color="#C5FFC3"/>
</linearGradient>
<linearGradient id="paint5_linear_1474_16530" x1="36.1389" y1="100.167" x2="47.378" y2="140.396" gradientUnits="userSpaceOnUse">
<stop stop-color="#51C991"/>
<stop offset="1" stop-color="#C5FFC3"/>
</linearGradient>
<linearGradient id="paint6_linear_1474_16530" x1="36.8109" y1="139.596" x2="127.929" y2="110.305" gradientUnits="userSpaceOnUse">
<stop stop-color="#00008B"/>
<stop offset="1" stop-color="white" stop-opacity="0"/>
</linearGradient>
<linearGradient id="paint7_linear_1474_16530" x1="110.722" y1="39.36" x2="116.342" y2="131.358" gradientUnits="userSpaceOnUse">
<stop stop-color="#FF998B"/>
<stop offset="1" stop-color="#FF4B6B"/>
</linearGradient>
<linearGradient id="paint8_linear_1474_16530" x1="68.292" y1="21.0181" x2="149.735" y2="92.4036" gradientUnits="userSpaceOnUse">
<stop stop-color="#FF998B"/>
<stop offset="1" stop-color="#FF4B6B"/>
</linearGradient>
<linearGradient id="paint9_linear_1474_16530" x1="141.397" y1="77.1108" x2="164.206" y2="162.214" gradientUnits="userSpaceOnUse">
<stop stop-color="#6D5EB7"/>
<stop offset="1" stop-color="#453777"/>
</linearGradient>
<linearGradient id="paint10_linear_1474_16530" x1="168.79" y1="95.1553" x2="138.288" y2="191.883" gradientUnits="userSpaceOnUse">
<stop stop-color="#6D5EB7"/>
<stop offset="1" stop-color="#453777"/>
</linearGradient>
<linearGradient id="paint11_linear_1474_16530" x1="131.23" y1="191.54" x2="172.215" y2="103.405" gradientUnits="userSpaceOnUse">
<stop stop-color="#51C991"/>
<stop offset="1" stop-color="#C5FFC3"/>
</linearGradient>
<linearGradient id="paint12_linear_1474_16530" x1="153.567" y1="69.5128" x2="157.035" y2="110.135" gradientUnits="userSpaceOnUse">
<stop stop-color="#51C991"/>
<stop offset="1" stop-color="#C5FFC3"/>
</linearGradient>
<linearGradient id="paint13_linear_1474_16530" x1="148.253" y1="191.761" x2="206.147" y2="6.88426" gradientUnits="userSpaceOnUse">
<stop stop-color="#51C991"/>
<stop offset="1" stop-color="#C5FFC3"/>
</linearGradient>
<linearGradient id="paint14_linear_1474_16530" x1="166.137" y1="95.1255" x2="165.047" y2="109.152" gradientUnits="userSpaceOnUse">
<stop stop-color="#6D5EB7"/>
<stop offset="1" stop-color="#453777"/>
</linearGradient>
<linearGradient id="paint15_linear_1474_16530" x1="173.763" y1="77.7972" x2="170.396" y2="121.174" gradientUnits="userSpaceOnUse">
<stop stop-color="#6D5EB7"/>
<stop offset="1" stop-color="#453777"/>
</linearGradient>
<linearGradient id="paint16_linear_1474_16530" x1="191.169" y1="180.508" x2="187.171" y2="150.487" gradientUnits="userSpaceOnUse">
<stop stop-color="#7BB8EF"/>
<stop offset="1" stop-color="#E3FBFF"/>
</linearGradient>
<linearGradient id="paint17_linear_1474_16530" x1="155.275" y1="90.8095" x2="161.473" y2="76.8624" gradientUnits="userSpaceOnUse">
<stop stop-color="#7BB8EF"/>
<stop offset="1" stop-color="#E3FBFF"/>
</linearGradient>
<clipPath id="clip0_1474_16530">
<rect width="226.114" height="402" fill="white"/>
</clipPath>
</defs>
</svg>
