<svg width="32" height="32" viewBox="0 0 32 32" fill="none" xmlns="http://www.w3.org/2000/svg">
<path fill-rule="evenodd" clip-rule="evenodd" d="M16 10C16.5523 10 17 10.4477 17 11V29C17 29.5523 16.5523 30 16 30C15.4477 30 15 29.5523 15 29V11C15 10.4477 15.4477 10 16 10Z" fill="#F2F1F0"/>
<path fill-rule="evenodd" clip-rule="evenodd" d="M9.10579 15.553C9.35278 15.059 9.95345 14.8588 10.4474 15.1058L16.4474 18.1058C16.9414 18.3528 17.1416 18.9535 16.8946 19.4474C16.6477 19.9414 16.047 20.1416 15.553 19.8946L9.55301 16.8946C9.05903 16.6477 8.8588 16.047 9.10579 15.553Z" fill="#F2F1F0"/>
<path fill-rule="evenodd" clip-rule="evenodd" d="M22.8946 12.553C23.1416 13.047 22.9414 13.6477 22.4474 13.8946L16.4474 16.8946C15.9535 17.1416 15.3528 16.9414 15.1058 16.4474C14.8588 15.9535 15.059 15.3528 15.553 15.1058L21.553 12.1058C22.047 11.8588 22.6477 12.059 22.8946 12.553Z" fill="#F2F1F0"/>
<path fill-rule="evenodd" clip-rule="evenodd" d="M10.7408 3.59102C12.2992 2.55508 14.1288 2.00244 16.0001 2.00244C17.8713 2.00244 19.7009 2.55508 21.2593 3.59102C22.8133 4.62405 24.0285 6.0918 24.7535 7.81097C24.7594 7.8226 24.7682 7.83246 24.779 7.83962C25.9056 8.34981 26.915 9.08675 27.7442 10.0046C28.5814 10.9312 29.2165 12.0219 29.6093 13.2074C30.0021 14.3928 30.1439 15.647 30.0256 16.8902C29.9073 18.1334 29.5317 19.3384 28.9224 20.4286C28.3132 21.5187 27.4838 22.4701 26.4869 23.2223C25.4901 23.9745 24.3475 24.511 23.1321 24.7977C21.9166 25.0843 20.6548 25.1149 19.4269 24.8875C18.2038 24.6609 17.041 24.1833 16.0119 23.4849C16.0083 23.4829 16.0042 23.4819 16.0001 23.4819C15.9959 23.4819 15.9919 23.4829 15.9882 23.4849C14.9591 24.1833 13.7963 24.6609 12.5733 24.8875C11.3453 25.1149 10.0835 25.0843 8.86804 24.7977C7.65258 24.511 6.51007 23.9745 5.5132 23.2223C4.51633 22.4701 3.6869 21.5187 3.07768 20.4286C2.46846 19.3384 2.09277 18.1334 1.97452 16.8902C1.85627 15.647 1.99804 14.3928 2.39081 13.2074C2.78358 12.0219 3.41876 10.9312 4.25595 10.0046C5.08516 9.08675 6.09457 8.34981 7.22108 7.83962C7.2319 7.83246 7.24071 7.8226 7.2466 7.81098C7.9716 6.0918 9.18685 4.62406 10.7408 3.59102ZM16.0001 4.00244C14.5227 4.00244 13.0783 4.43874 11.848 5.25658C10.6178 6.07443 9.65642 7.23739 9.08462 8.59957L9.07684 8.61759C8.88219 9.05695 8.54107 9.41512 8.11173 9.63097C8.09846 9.63764 8.08505 9.64401 8.0715 9.65008C7.18513 10.0473 6.39112 10.6246 5.73998 11.3453C5.08883 12.066 4.5948 12.9144 4.28932 13.8364C3.98383 14.7584 3.87356 15.7339 3.96554 16.7008C4.05751 17.6678 4.34971 18.605 4.82355 19.4529C5.29739 20.3008 5.94249 21.0408 6.71784 21.6258C7.49319 22.2108 8.3818 22.6281 9.32716 22.8511C10.2725 23.074 11.2539 23.0978 12.209 22.9209C13.1641 22.744 14.0718 22.3703 14.8746 21.8235L14.8888 21.8141C15.2189 21.5973 15.6052 21.4819 16.0001 21.4819C16.395 21.4819 16.7812 21.5973 17.1113 21.8141L17.1255 21.8235C17.9283 22.3703 18.8361 22.744 19.7911 22.9209C20.7462 23.0978 21.7276 23.074 22.673 22.8511C23.6183 22.6281 24.5069 22.2108 25.2823 21.6258C26.0576 21.0408 26.7027 20.3008 27.1766 19.4529C27.6504 18.605 27.9426 17.6678 28.0346 16.7008C28.1266 15.7339 28.0163 14.7584 27.7108 13.8364C27.4053 12.9144 26.9113 12.066 26.2601 11.3453C25.609 10.6246 24.815 10.0473 23.9286 9.65008C23.9151 9.64401 23.9017 9.63764 23.8884 9.63097C23.4591 9.41512 23.1179 9.05695 22.9233 8.61759L22.9155 8.59957C22.3437 7.23739 21.3824 6.07443 20.1521 5.25658C18.9218 4.43874 17.4774 4.00244 16.0001 4.00244Z" fill="#F2F1F0"/>
</svg>
