<svg width="13" height="18" viewBox="0 0 13 18" fill="none" xmlns="http://www.w3.org/2000/svg">
<path fill-rule="evenodd" clip-rule="evenodd" d="M8.70142 15.5965C10.53 13.2648 12.8333 9.87709 12.8333 7.60721C12.8333 3.84327 9.99776 0.791992 6.49996 0.791992C3.00216 0.791992 0.166626 3.84327 0.166626 7.60721C0.166626 9.87709 2.46994 13.2648 4.2985 15.5965C5.25249 16.8131 5.72948 17.4213 6.49996 17.4213C7.27044 17.4213 7.74743 16.8131 8.70142 15.5965ZM9.3373 6.7062C9.54304 6.45085 9.50284 6.07707 9.2475 5.87132C8.99215 5.66558 8.61837 5.70578 8.41262 5.96112L6.81227 7.94725C6.48366 8.35506 6.27632 8.6101 6.10377 8.77125C6.02268 8.84698 5.97088 8.88067 5.94111 8.89556C5.91895 8.90665 5.91103 8.9066 5.90678 8.90658H5.90563C5.90138 8.9066 5.89347 8.90665 5.8713 8.89556C5.84154 8.88067 5.78974 8.84698 5.70865 8.77125C5.5361 8.6101 5.32875 8.35506 5.00015 7.94724L4.5873 7.43487C4.38155 7.17953 4.00776 7.13932 3.75242 7.34507C3.49708 7.55082 3.45688 7.9246 3.66262 8.17994L4.10126 8.72432C4.39617 9.09038 4.65635 9.41332 4.89814 9.63913C5.15774 9.88157 5.4805 10.0941 5.90621 10.0941C6.33192 10.0941 6.65468 9.88157 6.91428 9.63913C7.15607 9.41333 7.41624 9.09039 7.71114 8.72434L9.3373 6.7062Z" fill="#72959A"/>
</svg>
