<svg width="15" height="18" viewBox="0 0 15 18" fill="none" xmlns="http://www.w3.org/2000/svg">
<path fill-rule="evenodd" clip-rule="evenodd" d="M3.9375 3.27185C3.11304 3.36961 2.5083 3.55836 2.00668 3.9228C1.67064 4.16695 1.37512 4.46247 1.13097 4.79851C0.375 5.83902 0.375 7.32329 0.375 10.2918C0.375 13.2604 0.375 14.7446 1.13097 15.7851C1.37512 16.1212 1.67064 16.4167 2.00668 16.6609C3.04719 17.4168 4.53146 17.4168 7.5 17.4168C8.16416 17.4168 8.75403 17.4168 9.28125 17.4084L9.28125 17.3528C9.28119 16.6783 9.28116 16.2675 9.33729 15.9131C9.6458 13.9653 11.1734 12.4376 13.1212 12.1291C13.4756 12.073 13.8865 12.073 14.561 12.0731L14.6165 12.0731C14.625 11.546 14.625 10.9562 14.625 10.2922C14.625 7.32366 14.625 5.83902 13.869 4.79851C13.6249 4.46247 13.3294 4.16695 12.9933 3.9228C12.4917 3.55836 11.887 3.36961 11.0625 3.27185V3.9585C11.0625 4.61433 10.5308 5.146 9.875 5.146C9.21916 5.146 8.6875 4.61433 8.6875 3.9585V3.16905C8.32009 3.16683 7.92528 3.16683 7.5 3.16683C7.07472 3.16683 6.67991 3.16683 6.3125 3.16905V3.9585C6.3125 4.61433 5.78084 5.146 5.125 5.146C4.46916 5.146 3.9375 4.61433 3.9375 3.9585V3.27185ZM3.54167 7.91683C3.97889 7.91683 4.33333 7.56239 4.33333 7.12516C4.33333 6.68794 3.97889 6.3335 3.54167 6.3335C3.10444 6.3335 2.75 6.68794 2.75 7.12516C2.75 7.56239 3.10444 7.91683 3.54167 7.91683ZM4.33333 10.2918C4.33333 10.7291 3.97889 11.0835 3.54167 11.0835C3.10444 11.0835 2.75 10.7291 2.75 10.2918C2.75 9.8546 3.10444 9.50016 3.54167 9.50016C3.97889 9.50016 4.33333 9.8546 4.33333 10.2918ZM7.5 7.91683C7.93723 7.91683 8.29167 7.56239 8.29167 7.12516C8.29167 6.68794 7.93723 6.3335 7.5 6.3335C7.06277 6.3335 6.70833 6.68794 6.70833 7.12516C6.70833 7.56239 7.06277 7.91683 7.5 7.91683ZM8.29167 10.2918C8.29167 10.7291 7.93723 11.0835 7.5 11.0835C7.06277 11.0835 6.70833 10.7291 6.70833 10.2918C6.70833 9.8546 7.06277 9.50016 7.5 9.50016C7.93723 9.50016 8.29167 9.8546 8.29167 10.2918ZM7.5 14.2502C7.93723 14.2502 8.29167 13.8957 8.29167 13.4585C8.29167 13.0213 7.93723 12.6668 7.5 12.6668C7.06277 12.6668 6.70833 13.0213 6.70833 13.4585C6.70833 13.8957 7.06277 14.2502 7.5 14.2502ZM12.25 7.12516C12.25 7.56239 11.8956 7.91683 11.4583 7.91683C11.0211 7.91683 10.6667 7.56239 10.6667 7.12516C10.6667 6.68794 11.0211 6.3335 11.4583 6.3335C11.8956 6.3335 12.25 6.68794 12.25 7.12516ZM11.4583 11.0835C11.8956 11.0835 12.25 10.7291 12.25 10.2918C12.25 9.8546 11.8956 9.50016 11.4583 9.50016C11.0211 9.50016 10.6667 9.8546 10.6667 10.2918C10.6667 10.7291 11.0211 11.0835 11.4583 11.0835ZM4.33333 13.4585C4.33333 13.8957 3.97889 14.2502 3.54167 14.2502C3.10444 14.2502 2.75 13.8957 2.75 13.4585C2.75 13.0213 3.10444 12.6668 3.54167 12.6668C3.97889 12.6668 4.33333 13.0213 4.33333 13.4585Z" fill="#72959A"/>
<path d="M14.5733 13.2606C13.8526 13.2607 13.5511 13.2633 13.307 13.302C11.8673 13.53 10.7382 14.6591 10.5102 16.0988C10.4715 16.343 10.4689 16.6444 10.4688 17.3651C11.6085 17.2904 12.3784 17.1076 12.9933 16.6609C13.3294 16.4167 13.6249 16.1212 13.869 15.7851C14.3158 15.1702 14.4985 14.4003 14.5733 13.2606Z" fill="#72959A"/>
<path d="M5.71875 1.5835C5.71875 1.25558 5.45292 0.989746 5.125 0.989746C4.79708 0.989746 4.53125 1.25558 4.53125 1.5835V3.9585C4.53125 4.28642 4.79708 4.55225 5.125 4.55225C5.45292 4.55225 5.71875 4.28642 5.71875 3.9585V1.5835Z" fill="#72959A"/>
<path d="M10.4688 1.5835C10.4688 1.25558 10.2029 0.989746 9.875 0.989746C9.54708 0.989746 9.28125 1.25558 9.28125 1.5835V3.9585C9.28125 4.28642 9.54708 4.55225 9.875 4.55225C10.2029 4.55225 10.4688 4.28642 10.4688 3.9585V1.5835Z" fill="#72959A"/>
<path fill-rule="evenodd" clip-rule="evenodd" d="M3.9375 3.27185C3.11304 3.36961 2.5083 3.55836 2.00668 3.9228C1.67064 4.16695 1.37512 4.46247 1.13097 4.79851C0.375 5.83902 0.375 7.32329 0.375 10.2918C0.375 13.2604 0.375 14.7446 1.13097 15.7851C1.37512 16.1212 1.67064 16.4167 2.00668 16.6609C3.04719 17.4168 4.53146 17.4168 7.5 17.4168C8.16416 17.4168 8.75403 17.4168 9.28125 17.4084L9.28125 17.3528C9.28119 16.6783 9.28116 16.2675 9.33729 15.9131C9.6458 13.9653 11.1734 12.4376 13.1212 12.1291C13.4756 12.073 13.8865 12.073 14.561 12.0731L14.6165 12.0731C14.625 11.546 14.625 10.9562 14.625 10.2922C14.625 7.32366 14.625 5.83902 13.869 4.79851C13.6249 4.46247 13.3294 4.16695 12.9933 3.9228C12.4917 3.55836 11.887 3.36961 11.0625 3.27185V3.9585C11.0625 4.61433 10.5308 5.146 9.875 5.146C9.21916 5.146 8.6875 4.61433 8.6875 3.9585V3.16905C8.32009 3.16683 7.92528 3.16683 7.5 3.16683C7.07472 3.16683 6.67991 3.16683 6.3125 3.16905V3.9585C6.3125 4.61433 5.78084 5.146 5.125 5.146C4.46916 5.146 3.9375 4.61433 3.9375 3.9585V3.27185ZM3.54167 7.91683C3.97889 7.91683 4.33333 7.56239 4.33333 7.12516C4.33333 6.68794 3.97889 6.3335 3.54167 6.3335C3.10444 6.3335 2.75 6.68794 2.75 7.12516C2.75 7.56239 3.10444 7.91683 3.54167 7.91683ZM4.33333 10.2918C4.33333 10.7291 3.97889 11.0835 3.54167 11.0835C3.10444 11.0835 2.75 10.7291 2.75 10.2918C2.75 9.8546 3.10444 9.50016 3.54167 9.50016C3.97889 9.50016 4.33333 9.8546 4.33333 10.2918ZM7.5 7.91683C7.93723 7.91683 8.29167 7.56239 8.29167 7.12516C8.29167 6.68794 7.93723 6.3335 7.5 6.3335C7.06277 6.3335 6.70833 6.68794 6.70833 7.12516C6.70833 7.56239 7.06277 7.91683 7.5 7.91683ZM8.29167 10.2918C8.29167 10.7291 7.93723 11.0835 7.5 11.0835C7.06277 11.0835 6.70833 10.7291 6.70833 10.2918C6.70833 9.8546 7.06277 9.50016 7.5 9.50016C7.93723 9.50016 8.29167 9.8546 8.29167 10.2918ZM7.5 14.2502C7.93723 14.2502 8.29167 13.8957 8.29167 13.4585C8.29167 13.0213 7.93723 12.6668 7.5 12.6668C7.06277 12.6668 6.70833 13.0213 6.70833 13.4585C6.70833 13.8957 7.06277 14.2502 7.5 14.2502ZM12.25 7.12516C12.25 7.56239 11.8956 7.91683 11.4583 7.91683C11.0211 7.91683 10.6667 7.56239 10.6667 7.12516C10.6667 6.68794 11.0211 6.3335 11.4583 6.3335C11.8956 6.3335 12.25 6.68794 12.25 7.12516ZM11.4583 11.0835C11.8956 11.0835 12.25 10.7291 12.25 10.2918C12.25 9.8546 11.8956 9.50016 11.4583 9.50016C11.0211 9.50016 10.6667 9.8546 10.6667 10.2918C10.6667 10.7291 11.0211 11.0835 11.4583 11.0835ZM4.33333 13.4585C4.33333 13.8957 3.97889 14.2502 3.54167 14.2502C3.10444 14.2502 2.75 13.8957 2.75 13.4585C2.75 13.0213 3.10444 12.6668 3.54167 12.6668C3.97889 12.6668 4.33333 13.0213 4.33333 13.4585Z" stroke="#72959A"/>
<path d="M14.5733 13.2606C13.8526 13.2607 13.5511 13.2633 13.307 13.302C11.8673 13.53 10.7382 14.6591 10.5102 16.0988C10.4715 16.343 10.4689 16.6444 10.4688 17.3651C11.6085 17.2904 12.3784 17.1076 12.9933 16.6609C13.3294 16.4167 13.6249 16.1212 13.869 15.7851C14.3158 15.1702 14.4985 14.4003 14.5733 13.2606Z" stroke="#72959A"/>
<path d="M5.71875 1.5835C5.71875 1.25558 5.45292 0.989746 5.125 0.989746C4.79708 0.989746 4.53125 1.25558 4.53125 1.5835V3.9585C4.53125 4.28642 4.79708 4.55225 5.125 4.55225C5.45292 4.55225 5.71875 4.28642 5.71875 3.9585V1.5835Z" stroke="#72959A"/>
<path d="M10.4688 1.5835C10.4688 1.25558 10.2029 0.989746 9.875 0.989746C9.54708 0.989746 9.28125 1.25558 9.28125 1.5835V3.9585C9.28125 4.28642 9.54708 4.55225 9.875 4.55225C10.2029 4.55225 10.4688 4.28642 10.4688 3.9585V1.5835Z" stroke="#72959A"/>
</svg>
