<svg width="15" height="16" viewBox="0 0 15 16" fill="none" xmlns="http://www.w3.org/2000/svg">
<path fill-rule="evenodd" clip-rule="evenodd" d="M0.859188 2.6448C0.375 3.53152 0.375 4.70794 0.375 7.06077V9.52532C0.375 9.57582 0.375 9.60107 0.375231 9.62243C0.398463 11.7751 2.13791 13.5146 4.29062 13.5378C4.31197 13.538 4.33722 13.538 4.38772 13.538L4.39673 13.5381C4.6089 13.5392 4.81172 13.6255 4.95969 13.7776L4.96595 13.784L5.21846 14.0464C6.2904 15.1601 6.82637 15.717 7.5 15.717C8.17363 15.717 8.7096 15.1601 9.78154 14.0464L10.0341 13.784L10.0403 13.7776C10.1883 13.6255 10.3911 13.5392 10.6033 13.5381L10.6123 13.538C10.6628 13.538 10.688 13.538 10.7094 13.5378C12.8621 13.5146 14.6015 11.7751 14.6248 9.62243C14.625 9.60107 14.625 9.57582 14.625 9.52532V7.06077C14.625 4.70794 14.625 3.53152 14.1408 2.6448C13.7771 1.97879 13.2297 1.43135 12.5637 1.06768C11.677 0.583496 10.5006 0.583496 8.14773 0.583496H6.85227C4.49944 0.583496 3.32303 0.583496 2.43631 1.06768C1.7703 1.43135 1.22286 1.97879 0.859188 2.6448ZM8.1336 4.20376C8.79609 3.78351 9.866 3.38612 10.79 4.32836C12.9833 6.56508 9.22194 10.8752 7.50001 10.8752C5.77807 10.8752 2.01672 6.56508 4.21004 4.32836C5.13399 3.38613 6.2039 3.78352 6.86639 4.20376C7.24072 4.44121 7.75927 4.44121 8.1336 4.20376Z" fill="#72959A"/>
</svg>
