<svg width="16" height="15" viewBox="0 0 16 15" fill="none" xmlns="http://www.w3.org/2000/svg">
<path fill-rule="evenodd" clip-rule="evenodd" d="M3.54167 6.90625C3.21375 6.90625 2.94792 7.17208 2.94792 7.5C2.94792 7.82792 3.21375 8.09375 3.54167 8.09375L9.875 8.09375L9.875 9.875C9.875 10.6105 9.875 10.9782 9.82627 11.2859C9.558 12.9796 8.22963 14.308 6.53589 14.5763C6.22819 14.625 5.86046 14.625 5.125 14.625C4.38954 14.625 4.02181 14.625 3.71411 14.5763C2.02037 14.308 0.691996 12.9796 0.423733 11.2859C0.375 10.9782 0.375001 10.6105 0.375001 9.875L0.375001 5.125C0.375001 4.38954 0.375001 4.02181 0.423734 3.71411C0.691997 2.02037 2.02037 0.691995 3.71411 0.423733C4.02181 0.375 4.38954 0.375 5.125 0.375C5.86046 0.375 6.2282 0.375 6.53589 0.423733C8.22963 0.691996 9.558 2.02037 9.82627 3.71411C9.875 4.02181 9.875 4.38954 9.875 5.125L9.875 6.90625L3.54167 6.90625ZM9.875 6.90625L13.6833 6.90625C13.4241 6.65081 13.0425 6.34713 12.4851 5.90521L11.0894 4.79858C10.8325 4.59485 10.7893 4.22139 10.9931 3.96444C11.1968 3.70749 11.5703 3.66435 11.8272 3.86808L13.2513 4.9972C13.7837 5.4193 14.223 5.76761 14.5359 6.07936C14.8571 6.39929 15.1233 6.75437 15.1956 7.20813C15.211 7.3048 15.2187 7.40232 15.2187 7.5C15.2187 7.59768 15.211 7.6952 15.1956 7.79186C15.1233 8.24562 14.8571 8.60071 14.5359 8.92064C14.223 9.23239 13.7837 9.5807 13.2513 10.0028L11.8272 11.1319C11.5703 11.3357 11.1968 11.2925 10.9931 11.0356C10.7893 10.7786 10.8325 10.4052 11.0894 10.2014L12.4851 9.09479C13.0425 8.65287 13.4241 8.34919 13.6833 8.09375L9.875 8.09375L9.875 6.90625Z" fill="#72959A"/>
</svg>
