<svg width="17" height="19" viewBox="0 0 17 19" fill="none" xmlns="http://www.w3.org/2000/svg">
<path fill-rule="evenodd" clip-rule="evenodd" d="M8.49998 0.989746C6.5761 0.989746 4.98967 2.4345 4.76644 4.29824C4.45475 4.35794 4.16761 4.44423 3.89218 4.5705C3.0962 4.93539 2.42237 5.52211 1.95144 6.26032C1.66641 6.70712 1.49728 7.20694 1.36442 7.81666C1.23425 8.41403 1.13081 9.15878 0.999221 10.1063L0.991932 10.1587C0.822591 11.378 0.690209 12.3311 0.650001 13.0988C0.609177 13.8783 0.658563 14.5279 0.893055 15.1243C1.27632 16.099 1.98398 16.9117 2.8967 17.4254C3.45513 17.7397 4.09174 17.878 4.86944 17.9448C5.6354 18.0106 6.59767 18.0106 7.8286 18.0106H9.17136C10.4023 18.0106 11.3646 18.0106 12.1305 17.9448C12.9082 17.878 13.5448 17.7397 14.1033 17.4254C15.016 16.9117 15.7236 16.099 16.1069 15.1243C16.3414 14.5279 16.3908 13.8783 16.35 13.0988C16.3097 12.3311 16.1774 11.3779 16.008 10.1586L16.0007 10.1062C15.8691 9.15877 15.7657 8.41403 15.6355 7.81666C15.5027 7.20694 15.3336 6.70712 15.0485 6.26032C14.5776 5.52211 13.9038 4.93539 13.1078 4.5705C12.8323 4.44423 12.5452 4.35794 12.2335 4.29824C12.0103 2.4345 10.4239 0.989746 8.49998 0.989746ZM7.82121 4.15641C7.10706 4.15641 6.50594 4.1564 5.99126 4.17647C6.25197 3.03164 7.2762 2.17725 8.49998 2.17725C9.72376 2.17725 10.748 3.03164 11.0087 4.17647C10.494 4.1564 9.89289 4.15641 9.17874 4.15641H7.82121ZM5.33335 6.53141C5.00543 6.53141 4.7396 6.79724 4.7396 7.12516C4.7396 7.45308 5.00543 7.71891 5.33335 7.71891H11.6667C11.9946 7.71891 12.2604 7.45308 12.2604 7.12516C12.2604 6.79724 11.9946 6.53141 11.6667 6.53141H5.33335Z" fill="#72959A"/>
</svg>
