<svg width="17" height="19" viewBox="0 0 17 19" fill="none" xmlns="http://www.w3.org/2000/svg">
<path fill-rule="evenodd" clip-rule="evenodd" d="M8.27416 0.815659C8.42455 0.808192 8.57522 0.808192 8.72562 0.815659C9.30619 0.844483 9.8407 1.01318 10.4366 1.28969C11.0166 1.55887 11.6906 1.94803 12.5434 2.44036L12.5917 2.46827C13.4445 2.96061 14.1185 3.34977 14.6417 3.71754C15.1791 4.09531 15.5925 4.47386 15.9077 4.96224C15.9894 5.08875 16.0647 5.21923 16.1334 5.35321C16.3988 5.87041 16.5199 6.41766 16.5784 7.07194C16.6353 7.70888 16.6353 8.4872 16.6353 9.47186V9.52766C16.6353 10.5123 16.6353 11.2907 16.5784 11.9276C16.5199 12.5819 16.3988 13.1292 16.1334 13.6464C16.0647 13.7803 15.9894 13.9108 15.9077 14.0373C15.5925 14.5257 15.1791 14.9043 14.6417 15.282C14.1185 15.6498 13.4445 16.039 12.5917 16.5313L12.5434 16.5592C11.6907 17.0515 11.0166 17.4407 10.4366 17.7099C9.8407 17.9864 9.30619 18.1551 8.72562 18.1839C8.57523 18.1914 8.42456 18.1914 8.27416 18.1839C7.69359 18.1551 7.15908 17.9864 6.56323 17.7099C5.98316 17.4407 5.30913 17.0515 4.45639 16.5592L4.408 16.5313C3.55532 16.039 2.8812 15.6498 2.35807 15.282C1.82068 14.9043 1.40733 14.5257 1.09208 14.0373C1.01042 13.9108 0.935082 13.7803 0.866353 13.6464C0.601027 13.1292 0.47987 12.5819 0.421408 11.9276C0.364493 11.2907 0.364497 10.5124 0.364502 9.52767V9.47191C0.364497 8.48722 0.364493 7.70889 0.421407 7.07194C0.479869 6.41766 0.601027 5.87041 0.866352 5.35321C0.935081 5.21923 1.01042 5.08875 1.09208 4.96224C1.40733 4.47386 1.82068 4.09531 2.35807 3.71754C2.88123 3.34977 3.55528 2.96061 4.40805 2.46827L4.45633 2.4404C5.30909 1.94805 5.98315 1.55888 6.56323 1.28969C7.15908 1.01318 7.69359 0.844483 8.27416 0.815659ZM9.09366 6.33312C9.09366 6.0052 8.82783 5.73937 8.49991 5.73937C8.17199 5.73937 7.90616 6.0052 7.90616 6.33312V12.6665C7.90616 12.9944 8.17199 13.2602 8.49991 13.2602C8.82783 13.2602 9.09366 12.9944 9.09366 12.6665V6.33312ZM6.71866 7.12479C6.71866 6.79687 6.45283 6.53104 6.12491 6.53104C5.79699 6.53104 5.53116 6.79687 5.53116 7.12479V11.8748C5.53116 12.2027 5.79699 12.4685 6.12491 12.4685C6.45283 12.4685 6.71866 12.2027 6.71866 11.8748V7.12479ZM11.4687 7.12479C11.4687 6.79687 11.2028 6.53104 10.8749 6.53104C10.547 6.53104 10.2812 6.79687 10.2812 7.12479V11.8748C10.2812 12.2027 10.547 12.4685 10.8749 12.4685C11.2028 12.4685 11.4687 12.2027 11.4687 11.8748V7.12479ZM4.34366 8.70812C4.34366 8.3802 4.07783 8.11437 3.74991 8.11437C3.42199 8.11437 3.15616 8.3802 3.15616 8.70812L3.15616 10.2915C3.15616 10.6194 3.42199 10.8852 3.74991 10.8852C4.07783 10.8852 4.34366 10.6194 4.34366 10.2915V8.70812ZM13.8437 8.70812C13.8437 8.3802 13.5778 8.11437 13.2499 8.11437C12.922 8.11437 12.6562 8.3802 12.6562 8.70812V10.2915C12.6562 10.6194 12.922 10.8852 13.2499 10.8852C13.5778 10.8852 13.8437 10.6194 13.8437 10.2915V8.70812Z" fill="#72959A"/>
</svg>
