<svg width="17" height="15" viewBox="0 0 17 15" fill="none" xmlns="http://www.w3.org/2000/svg">
<path d="M9.31823 0.573242C10.4042 0.573239 11.2556 0.573236 11.9398 0.629143C12.6366 0.686072 13.2122 0.803917 13.7333 1.06939C14.5898 1.50581 15.2862 2.20219 15.7226 3.05872C16.0409 3.68351 16.1509 4.39884 16.1922 5.32324H0.807802C0.849107 4.39884 0.95905 3.68351 1.2774 3.05872C1.71382 2.20219 2.4102 1.50581 3.26673 1.06939C3.78775 0.803917 4.36338 0.686072 5.06016 0.629143C5.74443 0.573236 6.59582 0.573239 7.68177 0.573242H9.31823Z" fill="#72959A"/>
<path fill-rule="evenodd" clip-rule="evenodd" d="M0.78305 6.51074C0.78125 6.8148 0.78125 7.14247 0.78125 7.49574V7.52689C0.781246 8.61284 0.781244 9.46422 0.837151 10.1485C0.89408 10.8453 1.01192 11.4209 1.2774 11.9419C1.71382 12.7985 2.4102 13.4948 3.26673 13.9313C3.78775 14.1967 4.36338 14.3146 5.06016 14.3715C5.7444 14.4274 6.59573 14.4274 7.6816 14.4274H9.31825C10.4041 14.4274 11.2556 14.4274 11.9398 14.3715C12.6366 14.3146 13.2122 14.1967 13.7333 13.9313C14.5898 13.4948 15.2862 12.7985 15.7226 11.9419C15.9881 11.4209 16.1059 10.8453 16.1628 10.1485C16.2188 9.46426 16.2188 8.61292 16.2188 7.52706V7.49573C16.2188 7.14246 16.2188 6.81479 16.217 6.51074H0.78305ZM8.69792 11.4587C8.69792 11.1307 8.96375 10.8649 9.29167 10.8649H12.4583C12.7863 10.8649 13.0521 11.1307 13.0521 11.4587C13.0521 11.7866 12.7863 12.0524 12.4583 12.0524H9.29167C8.96375 12.0524 8.69792 11.7866 8.69792 11.4587Z" fill="#72959A"/>
</svg>
