<svg width="17" height="18" viewBox="0 0 17 18" fill="none" xmlns="http://www.w3.org/2000/svg">
<path fill-rule="evenodd" clip-rule="evenodd" d="M8.5001 0.989258C6.57623 0.989258 4.98979 2.43401 4.76656 4.29775C4.45488 4.35745 4.16773 4.44375 3.8923 4.57001C3.09633 4.9349 2.42249 5.52162 1.95156 6.25983C1.66653 6.70663 1.4974 7.20645 1.36454 7.81617C1.23437 8.41355 1.13093 9.15829 0.999343 10.1058L0.992055 10.1582C0.822713 11.3775 0.690331 12.3306 0.650123 13.0983C0.609299 13.8778 0.658685 14.5274 0.893177 15.1238C1.27644 16.0985 1.9841 16.9112 2.89682 17.4249C3.45526 17.7392 4.09186 17.8775 4.86956 17.9443C5.63552 18.0101 6.59779 18.0101 7.82872 18.0101H9.17148C10.4024 18.0101 11.3647 18.0101 12.1306 17.9443C12.9083 17.8775 13.5449 17.7392 14.1034 17.4249C15.0161 16.9112 15.7238 16.0985 16.107 15.1238C16.3415 14.5274 16.3909 13.8778 16.3501 13.0983C16.3099 12.3306 16.1775 11.3774 16.0081 10.1582L16.0009 10.1058C15.8693 9.15828 15.7658 8.41354 15.6357 7.81617C15.5028 7.20645 15.3337 6.70663 15.0486 6.25983C14.5777 5.52162 13.9039 4.9349 13.1079 4.57001C12.8325 4.44375 12.5453 4.35745 12.2336 4.29775C12.0104 2.43401 10.424 0.989258 8.5001 0.989258ZM7.82133 4.15592C7.10719 4.15592 6.50606 4.15591 5.99138 4.17598C6.25209 3.03115 7.27632 2.17676 8.5001 2.17676C9.72388 2.17676 10.7481 3.03115 11.0088 4.17598C10.4941 4.15591 9.89301 4.15592 9.17887 4.15592H7.82133ZM5.33348 6.53092C5.00556 6.53092 4.73973 6.79675 4.73973 7.12467C4.73973 7.45259 5.00556 7.71842 5.33348 7.71842H11.6668C11.9947 7.71842 12.2606 7.45259 12.2606 7.12467C12.2606 6.79675 11.9947 6.53092 11.6668 6.53092H5.33348Z" fill="#72959A"/>
</svg>
