<svg width="19" height="18" viewBox="0 0 19 18" fill="none" xmlns="http://www.w3.org/2000/svg">
<path fill-rule="evenodd" clip-rule="evenodd" d="M9.5 17.5095C14.3325 17.5095 18.25 13.7427 18.25 9.09608C18.25 4.44945 14.3325 0.682617 9.5 0.682617C4.66751 0.682617 0.75 4.44945 0.75 9.09608C0.75 13.7427 4.66751 17.5095 9.5 17.5095ZM14.3639 6.99294C14.6057 6.7333 14.5828 6.33438 14.3127 6.10192C14.0427 5.86946 13.6278 5.8915 13.3861 6.15114L10.438 9.31728C9.84068 9.95883 9.4384 10.3886 9.09445 10.6666C8.76681 10.9314 8.57436 10.9891 8.40625 10.9891C8.23814 10.9891 8.04569 10.9314 7.71805 10.6666C7.3741 10.3886 6.97181 9.95883 6.37445 9.31727L5.61393 8.50048C5.37217 8.24084 4.95729 8.2188 4.68726 8.45126C4.41724 8.68372 4.39432 9.08264 4.63607 9.34229L5.42909 10.194C5.98546 10.7915 6.44952 11.29 6.87356 11.6327C7.32212 11.9952 7.80593 12.2511 8.40625 12.2511C9.00656 12.2511 9.49038 11.9952 9.93894 11.6327C10.363 11.29 10.827 10.7916 11.3834 10.194L14.3639 6.99294Z" fill="#04C017"/>
</svg>
