<svg width="21" height="21" viewBox="0 0 21 21" fill="none" xmlns="http://www.w3.org/2000/svg">
<path fill-rule="evenodd" clip-rule="evenodd" d="M5.39322 4.29337C5.64998 4.53933 5.65075 4.93886 5.39495 5.18575C4.5014 6.04812 3.85823 7.12041 3.5294 8.29596C3.43526 8.63249 3.07522 8.83193 2.72522 8.74142C2.37522 8.6509 2.16781 8.3047 2.26194 7.96817C2.65029 6.57985 3.40987 5.31349 4.46515 4.29502C4.72095 4.04814 5.13647 4.0474 5.39322 4.29337Z" fill="#04C017"/>
<path fill-rule="evenodd" clip-rule="evenodd" d="M2.72739 11.4422C3.07771 11.3528 3.43704 11.5534 3.52998 11.8903C3.85507 13.0685 4.49822 14.1433 5.39429 15.0056C5.65046 15.2522 5.65027 15.6517 5.39388 15.898C5.13748 16.1443 4.72197 16.1442 4.4658 15.8976C3.40625 14.8779 2.64577 13.6071 2.26136 12.2139C2.16842 11.877 2.37707 11.5315 2.72739 11.4422Z" fill="#04C017"/>
<path fill-rule="evenodd" clip-rule="evenodd" d="M7.83249 17.2411C7.9281 16.9049 8.28902 16.7069 8.63862 16.7989C9.85977 17.12 11.1482 17.12 12.3693 16.7989C12.7189 16.7069 13.0798 16.9049 13.1755 17.2411C13.2711 17.5772 13.0652 17.9243 12.7156 18.0162C11.2678 18.3969 9.74019 18.3969 8.29238 18.0162C7.94278 17.9243 7.73688 17.5772 7.83249 17.2411Z" fill="#04C017"/>
<path fill-rule="evenodd" clip-rule="evenodd" d="M18.2747 11.4505C18.6246 11.541 18.8321 11.8872 18.7379 12.2238C18.3496 13.6121 17.59 14.8785 16.5347 15.8969C16.2789 16.1438 15.8634 16.1445 15.6066 15.8986C15.3499 15.6526 15.3491 15.2531 15.6049 15.0062C16.4985 14.1438 17.1416 13.0715 17.4705 11.896C17.5646 11.5594 17.9247 11.36 18.2747 11.4505Z" fill="#04C017"/>
<path fill-rule="evenodd" clip-rule="evenodd" d="M15.606 4.294C15.8624 4.04768 16.2779 4.04786 16.5341 4.29439C17.5936 5.31409 18.3541 6.58491 18.7385 7.97814C18.8314 8.31499 18.6228 8.6605 18.2725 8.74986C17.9222 8.83922 17.5628 8.6386 17.4699 8.30176C17.1448 7.12349 16.5016 6.04875 15.6056 5.18638C15.3494 4.93984 15.3496 4.54031 15.606 4.294Z" fill="#04C017"/>
<path fill-rule="evenodd" clip-rule="evenodd" d="M12.361 3.39251C11.1399 3.07139 9.85146 3.07139 8.63032 3.39251C8.28072 3.48445 7.9198 3.28647 7.82419 2.95031C7.72858 2.61416 7.93448 2.26713 8.28408 2.1752C9.73189 1.79447 11.2595 1.79447 12.7073 2.1752C13.0569 2.26713 13.2628 2.61416 13.1672 2.95031C13.0715 3.28647 12.7106 3.48445 12.361 3.39251Z" fill="#04C017"/>
</svg>
