<svg width="20" height="21" viewBox="0 0 20 21" fill="none" xmlns="http://www.w3.org/2000/svg">
<path fill-rule="evenodd" clip-rule="evenodd" d="M14.375 3.625C14.375 3.27982 14.0952 3 13.75 3L6.25 3C5.90482 3 5.625 3.27982 5.625 3.625L5.625 17.375C5.625 17.7202 5.90482 18 6.25 18H13.75C14.0952 18 14.375 17.7202 14.375 17.375V3.625ZM13.75 1.75C14.7855 1.75 15.625 2.58947 15.625 3.625L15.625 17.375C15.625 18.4105 14.7855 19.25 13.75 19.25H6.25C5.21447 19.25 4.375 18.4105 4.375 17.375L4.375 3.625C4.375 2.58947 5.21447 1.75 6.25 1.75L13.75 1.75Z" fill="#2C2C2C"/>
<path d="M10 6.125C10.5178 6.125 10.9375 5.70527 10.9375 5.1875C10.9375 4.66973 10.5178 4.25 10 4.25C9.48223 4.25 9.0625 4.66973 9.0625 5.1875C9.0625 5.70527 9.48223 6.125 10 6.125Z" fill="black"/>
</svg>
