<svg width="26" height="26" viewBox="0 0 26 26" fill="none" xmlns="http://www.w3.org/2000/svg">
<rect width="26" height="26" rx="8" fill="#EA8933"/>
<path fill-rule="evenodd" clip-rule="evenodd" d="M12.1716 6.83856C12.9217 6.08842 13.9391 5.66699 15 5.66699H17C17.3682 5.66699 17.6667 5.96547 17.6667 6.33366V9.00033C17.6667 9.36852 17.3682 9.66699 17 9.66699H15V11.0003H17C17.2053 11.0003 17.3991 11.0949 17.5255 11.2567C17.6518 11.4185 17.6966 11.6295 17.6468 11.8287L16.9801 14.4953C16.9059 14.7921 16.6392 15.0003 16.3333 15.0003H15V19.667C15 20.0352 14.7015 20.3337 14.3333 20.3337H11.6667C11.2985 20.3337 11 20.0352 11 19.667V15.0003H9.66667C9.29848 15.0003 9 14.7018 9 14.3337V11.667C9 11.2988 9.29848 11.0003 9.66667 11.0003H11V9.66699C11 8.60613 11.4214 7.58871 12.1716 6.83856ZM15 7.00033C14.2928 7.00033 13.6145 7.28128 13.1144 7.78137C12.6143 8.28147 12.3333 8.95975 12.3333 9.66699V11.667C12.3333 12.0352 12.0349 12.3337 11.6667 12.3337H10.3333V13.667H11.6667C12.0349 13.667 12.3333 13.9655 12.3333 14.3337V19.0003H13.6667V14.3337C13.6667 13.9655 13.9651 13.667 14.3333 13.667H15.8128L16.1461 12.3337H14.3333C13.9651 12.3337 13.6667 12.0352 13.6667 11.667V9.66699C13.6667 9.31337 13.8071 8.97423 14.0572 8.72418C14.3072 8.47414 14.6464 8.33366 15 8.33366H16.3333V7.00033H15Z" fill="#F2F1F0"/>
</svg>
