<svg width="26" height="26" viewBox="0 0 26 26" fill="none" xmlns="http://www.w3.org/2000/svg">
<rect width="26" height="26" rx="8" fill="#EA8933"/>
<g clip-path="url(#clip0_1759_17544)">
<path fill-rule="evenodd" clip-rule="evenodd" d="M9.6665 7.00033C8.19374 7.00033 6.99984 8.19423 6.99984 9.66699V16.3337C6.99984 17.8064 8.19374 19.0003 9.6665 19.0003H16.3332C17.8059 19.0003 18.9998 17.8064 18.9998 16.3337V9.66699C18.9998 8.19423 17.8059 7.00033 16.3332 7.00033H9.6665ZM5.6665 9.66699C5.6665 7.45785 7.45736 5.66699 9.6665 5.66699H16.3332C18.5423 5.66699 20.3332 7.45785 20.3332 9.66699V16.3337C20.3332 18.5428 18.5423 20.3337 16.3332 20.3337H9.6665C7.45736 20.3337 5.6665 18.5428 5.6665 16.3337V9.66699Z" fill="#F2F1F0"/>
<path fill-rule="evenodd" clip-rule="evenodd" d="M13.322 10.9927C12.9059 10.931 12.4809 11.002 12.1075 11.1958C11.7341 11.3895 11.4313 11.6961 11.2422 12.0719C11.053 12.4476 10.9872 12.8734 11.0541 13.2888C11.1209 13.7041 11.317 14.0878 11.6144 14.3852C11.9119 14.6827 12.2956 14.8788 12.7109 14.9456C13.1262 15.0125 13.5521 14.9466 13.9278 14.7575C14.3036 14.5684 14.6101 14.2656 14.8039 13.8922C14.9976 13.5188 15.0687 13.0938 15.007 12.6777C14.9441 12.2532 14.7463 11.8602 14.4429 11.5568C14.1394 11.2534 13.7465 11.0556 13.322 10.9927ZM11.4934 10.0123C12.1157 9.68937 12.8241 9.57091 13.5176 9.67375C14.225 9.77866 14.88 10.1083 15.3857 10.614C15.8914 11.1197 16.221 11.7747 16.3259 12.4821C16.4288 13.1756 16.3103 13.8839 15.9874 14.5063C15.6645 15.1286 15.1536 15.6333 14.5273 15.9485C13.901 16.2637 13.1913 16.3734 12.4991 16.262C11.8069 16.1506 11.1674 15.8238 10.6716 15.3281C10.1759 14.8323 9.84904 14.1928 9.73765 13.5006C9.62626 12.8084 9.73598 12.0987 10.0512 11.4724C10.3664 10.8461 10.8711 10.3352 11.4934 10.0123Z" fill="#F2F1F0"/>
</g>
<defs>
<clipPath id="clip0_1759_17544">
<rect width="16" height="16" fill="white" transform="translate(5 5)"/>
</clipPath>
</defs>
</svg>
