<svg width="17" height="19" viewBox="0 0 17 19" fill="none" xmlns="http://www.w3.org/2000/svg">
<path fill-rule="evenodd" clip-rule="evenodd" d="M8.27416 0.816147C8.42456 0.80868 8.57522 0.80868 8.72562 0.816147C9.30619 0.844972 9.8407 1.01367 10.4366 1.29018C11.0166 1.55937 11.6907 1.94853 12.5434 2.44088L12.5917 2.46875C13.4445 2.96109 14.1185 3.35026 14.6417 3.71803C15.1791 4.0958 15.5925 4.47434 15.9077 4.96273C15.9894 5.08923 16.0647 5.21972 16.1334 5.3537C16.3988 5.8709 16.5199 6.41815 16.5784 7.07242C16.6353 7.70937 16.6353 8.48768 16.6353 9.47235V9.52815C16.6353 10.5128 16.6353 11.2912 16.5784 11.9281C16.5199 12.5824 16.3988 13.1296 16.1334 13.6469C16.0647 13.7808 15.9894 13.9113 15.9077 14.0378C15.5235 14.633 14.992 15.0667 14.2691 15.5326C13.8104 15.8282 13.2514 16.1509 12.5794 16.5389L12.5434 16.5597C11.6907 17.052 11.0166 17.4412 10.4366 17.7104C9.8407 17.9869 9.30619 18.1556 8.72562 18.1844C8.57522 18.1919 8.42456 18.1919 8.27416 18.1844C7.69359 18.1556 7.15908 17.9869 6.56323 17.7104C5.98315 17.4412 5.3091 17.052 4.45633 16.5597L4.42086 16.5392C3.75514 16.1548 3.20034 15.8345 2.7443 15.5413C2.01437 15.0721 1.47862 14.6366 1.09208 14.0378C1.01042 13.9113 0.935082 13.7808 0.866352 13.6469C0.601027 13.1296 0.47987 12.5824 0.421407 11.9281C0.364493 11.2912 0.364497 10.5128 0.364502 9.52815V9.47239C0.364497 8.48771 0.364493 7.70938 0.421407 7.07242C0.47987 6.41815 0.601027 5.8709 0.866352 5.3537C0.935082 5.21972 1.01042 5.08924 1.09208 4.96273C1.40733 4.47434 1.82068 4.0958 2.35807 3.71803C2.88123 3.35026 3.55528 2.9611 4.40805 2.46876L4.45635 2.44088C5.3091 1.94853 5.98315 1.55937 6.56323 1.29018C7.15908 1.01367 7.69359 0.844972 8.27416 0.816147ZM13.7316 14.4655C13.2211 13.4015 12.1338 12.6669 10.8749 12.6669H6.12489C4.866 12.6669 3.77868 13.4015 3.26821 14.4655C3.30655 14.4908 3.34595 14.5164 3.38647 14.5425C3.81598 14.8186 4.34662 15.1251 5.02595 15.5173C5.90817 16.0267 6.5367 16.3889 7.06309 16.6332C7.57918 16.8727 7.95873 16.9798 8.33305 16.9984C8.44421 17.0039 8.55557 17.0039 8.66673 16.9984C9.04105 16.9798 9.4206 16.8727 9.93669 16.6332C10.4631 16.3889 11.0916 16.0267 11.9738 15.5173C12.6599 15.1212 13.1943 14.8125 13.6258 14.5344C13.6619 14.5111 13.6972 14.4882 13.7316 14.4655ZM8.49986 3.36486C6.42304 3.36486 4.73945 5.04846 4.73945 7.12528C4.73945 9.2021 6.42304 10.8857 8.49986 10.8857C10.5767 10.8857 12.2603 9.2021 12.2603 7.12528C12.2603 5.04846 10.5767 3.36486 8.49986 3.36486Z" fill="#72959A"/>
</svg>
