<svg width="14" height="15" viewBox="0 0 14 15" fill="none" xmlns="http://www.w3.org/2000/svg">
<path fill-rule="evenodd" clip-rule="evenodd" d="M8.26804 5.0313L6.95833 2.5415L5.64862 5.0313C5.5561 5.21324 5.42218 5.37094 5.25762 5.49171C5.09227 5.61311 4.90093 5.69435 4.69875 5.729L2 6.25813L3.88417 8.51134C4.14184 8.79374 4.26342 9.17453 4.21708 9.554L3.85867 12.4582L6.3435 11.254C6.53519 11.1612 6.74535 11.1127 6.95833 11.1123C7.15817 11.1129 7.35493 11.1615 7.53208 11.254L10.075 12.3838L9.71658 9.51434C9.67128 9.1357 9.79308 8.75611 10.0502 8.4745L11.9167 6.25813L9.21792 5.729C9.01549 5.69445 8.82389 5.61321 8.65833 5.49171C8.49404 5.37085 8.36036 5.21316 8.26804 5.0313Z" fill="#EA8933" stroke="#EA8933" stroke-width="1.5" stroke-linecap="round" stroke-linejoin="round"/>
</svg>
