<svg width="19" height="19" viewBox="0 0 19 19" fill="none" xmlns="http://www.w3.org/2000/svg">
<g clip-path="url(#clip0_1280_11034)">
<path fill-rule="evenodd" clip-rule="evenodd" d="M9.50008 2.37508C5.56505 2.37508 2.37508 5.56505 2.37508 9.50008C2.37508 13.4351 5.56505 16.6251 9.50008 16.6251C13.4351 16.6251 16.6251 13.4351 16.6251 9.50008C16.6251 5.56505 13.4351 2.37508 9.50008 2.37508ZM0.791748 9.50008C0.791748 4.6906 4.6906 0.791748 9.50008 0.791748C14.3096 0.791748 18.2084 4.6906 18.2084 9.50008C18.2084 14.3096 14.3096 18.2084 9.50008 18.2084C4.6906 18.2084 0.791748 14.3096 0.791748 9.50008Z" fill="#2C2C2C"/>
<path fill-rule="evenodd" clip-rule="evenodd" d="M12.4347 6.56513C12.7439 6.87429 12.7439 7.37555 12.4347 7.68471L7.68471 12.4347C7.37555 12.7439 6.87429 12.7439 6.56513 12.4347C6.25596 12.1255 6.25596 11.6243 6.56513 11.3151L11.3151 6.56513C11.6243 6.25596 12.1255 6.25596 12.4347 6.56513Z" fill="#2C2C2C"/>
<path fill-rule="evenodd" clip-rule="evenodd" d="M6.56513 6.56513C6.87429 6.25596 7.37555 6.25596 7.68471 6.56513L12.4347 11.3151C12.7439 11.6243 12.7439 12.1255 12.4347 12.4347C12.1255 12.7439 11.6243 12.7439 11.3151 12.4347L6.56513 7.68471C6.25596 7.37555 6.25596 6.87429 6.56513 6.56513Z" fill="#2C2C2C"/>
</g>
<defs>
<clipPath id="clip0_1280_11034">
<rect width="19" height="19" fill="white"/>
</clipPath>
</defs>
</svg>
