<svg width="26" height="26" viewBox="0 0 26 26" fill="none" xmlns="http://www.w3.org/2000/svg">
<rect width="26" height="26" rx="8" fill="#EA8933"/>
<g clip-path="url(#clip0_1759_17548)">
<path fill-rule="evenodd" clip-rule="evenodd" d="M12.9998 7C12.9999 7 12.9999 7 12.9999 7.66667L12.9999 8.33333L12.9496 8.33341C12.9162 8.33348 12.8669 8.33363 12.8037 8.33393C12.6772 8.33452 12.4949 8.33571 12.2724 8.33809C11.8273 8.34285 11.2225 8.35237 10.583 8.37137C9.94245 8.39041 9.27229 8.41881 8.69464 8.46094C8.10257 8.50413 7.66264 8.5584 7.44346 8.61613C7.24433 8.67333 7.06361 8.78169 6.91932 8.93044C6.77856 9.07555 6.67729 9.25413 6.62496 9.44917C6.42527 10.5649 6.32762 11.6965 6.33322 12.83L6.33326 12.8375C6.32611 13.9757 6.42303 15.1121 6.62288 16.2325C6.68063 16.4176 6.78291 16.5859 6.92094 16.7225C7.06555 16.8656 7.24452 16.9691 7.44065 17.0231C7.65887 17.0811 8.10002 17.1357 8.69464 17.1791C9.27229 17.2212 9.94245 17.2496 10.583 17.2686C11.2225 17.2876 11.8273 17.2972 12.2724 17.3019C12.4949 17.3043 12.6772 17.3055 12.8037 17.3061C12.8669 17.3064 12.9162 17.3065 12.9496 17.3066H13.0502C13.0836 17.3065 13.1328 17.3064 13.1961 17.3061C13.3226 17.3055 13.5049 17.3043 13.7273 17.3019C14.1725 17.2972 14.7772 17.2876 15.4168 17.2686C16.0573 17.2496 16.7275 17.2212 17.3051 17.1791C17.8972 17.1359 18.3371 17.0816 18.5563 17.0239C18.7555 16.9667 18.9362 16.8583 19.0805 16.7096C19.2212 16.5645 19.3225 16.3859 19.3748 16.1908C19.573 15.0836 19.6706 13.9606 19.6666 12.8357L19.6665 12.8291C19.6737 11.6871 19.5761 10.5467 19.3748 9.42251C19.3225 9.22747 19.2212 9.04889 19.0805 8.90378C18.9378 8.75672 18.7596 8.64915 18.5632 8.59145C18.3365 8.53813 17.895 8.48899 17.3093 8.44998C16.7305 8.41144 16.0594 8.38548 15.4185 8.36809C14.7785 8.35072 14.1734 8.34203 13.728 8.33768C13.5054 8.3355 13.323 8.33442 13.1964 8.33387L13.0503 8.3334L12.9999 8.33333L12.9999 7.66667C12.9999 7 12.9999 7 12.9998 7L13.053 7.00007C13.0874 7.00014 13.1377 7.00028 13.2021 7.00055C13.3308 7.0011 13.5157 7.00221 13.741 7.00441C14.1914 7.00881 14.8046 7.01761 15.4546 7.03525C16.1037 7.05285 16.7943 7.0794 17.3979 7.1196C17.9844 7.15865 18.5409 7.21345 18.8914 7.29903C18.8992 7.30094 18.907 7.30299 18.9147 7.30518C19.3414 7.42591 19.7288 7.65711 20.0375 7.97543C20.3463 8.29375 20.5656 8.68792 20.6733 9.11813C20.6769 9.13253 20.68 9.14705 20.6826 9.16166C20.9012 10.3735 21.0074 11.6029 20.9999 12.8342C21.0041 14.0471 20.8979 15.2579 20.6826 16.4516C20.68 16.4663 20.6769 16.4808 20.6733 16.4952C20.5656 16.9254 20.3463 17.3196 20.0375 17.6379C19.7288 17.9562 19.3414 18.1874 18.9147 18.3082L18.9055 18.3107C18.5497 18.4058 17.9883 18.4661 17.4021 18.5089C16.7973 18.553 16.1058 18.5821 15.4564 18.6014C14.8059 18.6207 14.1923 18.6303 13.7416 18.6352C13.5161 18.6376 13.3312 18.6388 13.2023 18.6394C13.1379 18.6397 13.0875 18.6398 13.0532 18.6399L13.0002 18.64L12.9466 18.6399C12.9122 18.6398 12.8619 18.6397 12.7974 18.6394C12.6686 18.6388 12.4836 18.6376 12.2582 18.6352C11.8075 18.6303 11.1939 18.6207 10.5434 18.6014C9.89401 18.5821 9.20249 18.553 8.59765 18.5089C8.01145 18.4661 7.45008 18.4058 7.09432 18.3107L7.09061 18.3097C6.67256 18.1953 6.29109 17.975 5.98303 17.6702C5.67498 17.3653 5.45076 16.9861 5.33205 16.5693C5.32603 16.5481 5.32105 16.5267 5.31715 16.505C5.09859 15.2933 4.99238 14.0641 4.99988 12.8329C4.99407 11.6109 5.10027 10.391 5.31714 9.18835C5.31978 9.17373 5.3229 9.15921 5.32651 9.1448C5.43419 8.71459 5.65349 8.32042 5.96226 8.0021C6.27104 7.68378 6.65835 7.45257 7.08507 7.33185L7.09432 7.3293C7.45008 7.23415 8.01144 7.1739 8.59765 7.13114C9.20249 7.08702 9.89401 7.05793 10.5434 7.03863C11.1939 7.0193 11.8075 7.00965 12.2582 7.00483C12.4836 7.00242 12.6686 7.00121 12.7974 7.00061C12.8619 7.0003 12.9122 7.00015 12.9466 7.00008L12.9998 7Z" fill="#F2F1F0"/>
<path fill-rule="evenodd" clip-rule="evenodd" d="M11.165 10.0767C11.3702 9.95736 11.6234 9.95613 11.8297 10.0735L15.6631 12.2535C15.8714 12.372 16.0002 12.5933 16.0002 12.833C16.0002 13.0727 15.8714 13.294 15.6631 13.4125L11.8297 15.5925C11.6234 15.7099 11.3702 15.7086 11.165 15.5893C10.9597 15.4699 10.8335 15.2504 10.8335 15.013V10.653C10.8335 10.4156 10.9597 10.1961 11.165 10.0767ZM12.1668 11.7991V13.8669L13.9849 12.833L12.1668 11.7991Z" fill="#F2F1F0"/>
</g>
<defs>
<clipPath id="clip0_1759_17548">
<rect width="16" height="16" fill="white" transform="translate(5 5)"/>
</clipPath>
</defs>
</svg>
